<?xml version="1.0" encoding="utf-8" standalone="no"?>
<!DOCTYPE svg PUBLIC "-//W3C//DTD SVG 1.1//EN"
  "http://www.w3.org/Graphics/SVG/1.1/DTD/svg11.dtd">
<!-- Created with matplotlib (http://matplotlib.org/) -->
<svg height="345pt" version="1.1" viewBox="0 0 460 345" width="460pt" xmlns="http://www.w3.org/2000/svg" xmlns:xlink="http://www.w3.org/1999/xlink">
 <defs>
  <style type="text/css">
*{stroke-linecap:butt;stroke-linejoin:round;}
  </style>
 </defs>
 <g id="figure_1">
  <g id="patch_1">
   <path d="M 0 345.6 
L 460.8 345.6 
L 460.8 0 
L 0 0 
z
" style="fill:#ffffff;"/>
  </g>
  <g id="axes_1">
   <g id="patch_2">
    <path d="M 57.6 307.584 
L 414.72 307.584 
L 414.72 41.472 
L 57.6 41.472 
z
" style="fill:#ffffff;"/>
   </g>
   <g id="PathCollection_1">
    <defs>
     <path d="M 0 3.535534 
C 0.937635 3.535534 1.836992 3.163008 2.5 2.5 
C 3.163008 1.836992 3.535534 0.937635 3.535534 0 
C 3.535534 -0.937635 3.163008 -1.836992 2.5 -2.5 
C 1.836992 -3.163008 0.937635 -3.535534 0 -3.535534 
C -0.937635 -3.535534 -1.836992 -3.163008 -2.5 -2.5 
C -3.163008 -1.836992 -3.535534 -0.937635 -3.535534 0 
C -3.535534 0.937635 -3.163008 1.836992 -2.5 2.5 
C -1.836992 3.163008 -0.937635 3.535534 0 3.535534 
z
" id="m442fa2f33b" style="stroke:#1f77b4;"/>
    </defs>
    <g clip-path="url(#p496823c52e)">
     <use style="fill:#1f77b4;stroke:#1f77b4;" x="75.426893" xlink:href="#m442fa2f33b" y="249.067665"/>
     <use style="fill:#1f77b4;stroke:#1f77b4;" x="78.674026" xlink:href="#m442fa2f33b" y="249.067665"/>
     <use style="fill:#1f77b4;stroke:#1f77b4;" x="81.92116" xlink:href="#m442fa2f33b" y="249.067665"/>
     <use style="fill:#1f77b4;stroke:#1f77b4;" x="85.168293" xlink:href="#m442fa2f33b" y="249.067665"/>
     <use style="fill:#1f77b4;stroke:#1f77b4;" x="88.415427" xlink:href="#m442fa2f33b" y="249.067665"/>
     <use style="fill:#1f77b4;stroke:#1f77b4;" x="91.66256" xlink:href="#m442fa2f33b" y="249.067665"/>
     <use style="fill:#1f77b4;stroke:#1f77b4;" x="94.909694" xlink:href="#m442fa2f33b" y="249.067665"/>
     <use style="fill:#1f77b4;stroke:#1f77b4;" x="98.156827" xlink:href="#m442fa2f33b" y="249.067665"/>
     <use style="fill:#1f77b4;stroke:#1f77b4;" x="101.403961" xlink:href="#m442fa2f33b" y="249.067665"/>
     <use style="fill:#1f77b4;stroke:#1f77b4;" x="104.651094" xlink:href="#m442fa2f33b" y="249.067665"/>
     <use style="fill:#1f77b4;stroke:#1f77b4;" x="107.898228" xlink:href="#m442fa2f33b" y="249.067665"/>
     <use style="fill:#1f77b4;stroke:#1f77b4;" x="111.145361" xlink:href="#m442fa2f33b" y="249.067665"/>
     <use style="fill:#1f77b4;stroke:#1f77b4;" x="114.392495" xlink:href="#m442fa2f33b" y="249.067665"/>
     <use style="fill:#1f77b4;stroke:#1f77b4;" x="117.639628" xlink:href="#m442fa2f33b" y="249.067665"/>
     <use style="fill:#1f77b4;stroke:#1f77b4;" x="120.886762" xlink:href="#m442fa2f33b" y="249.067665"/>
     <use style="fill:#1f77b4;stroke:#1f77b4;" x="124.133895" xlink:href="#m442fa2f33b" y="249.067665"/>
     <use style="fill:#1f77b4;stroke:#1f77b4;" x="127.381029" xlink:href="#m442fa2f33b" y="249.067665"/>
     <use style="fill:#1f77b4;stroke:#1f77b4;" x="130.628162" xlink:href="#m442fa2f33b" y="249.067665"/>
     <use style="fill:#1f77b4;stroke:#1f77b4;" x="133.875295" xlink:href="#m442fa2f33b" y="249.067665"/>
     <use style="fill:#1f77b4;stroke:#1f77b4;" x="137.122429" xlink:href="#m442fa2f33b" y="249.067665"/>
     <use style="fill:#1f77b4;stroke:#1f77b4;" x="140.369562" xlink:href="#m442fa2f33b" y="249.067665"/>
     <use style="fill:#1f77b4;stroke:#1f77b4;" x="143.616696" xlink:href="#m442fa2f33b" y="249.067665"/>
     <use style="fill:#1f77b4;stroke:#1f77b4;" x="146.863829" xlink:href="#m442fa2f33b" y="249.067665"/>
     <use style="fill:#1f77b4;stroke:#1f77b4;" x="150.110963" xlink:href="#m442fa2f33b" y="249.067665"/>
     <use style="fill:#1f77b4;stroke:#1f77b4;" x="153.358096" xlink:href="#m442fa2f33b" y="249.067665"/>
     <use style="fill:#1f77b4;stroke:#1f77b4;" x="156.60523" xlink:href="#m442fa2f33b" y="249.067665"/>
     <use style="fill:#1f77b4;stroke:#1f77b4;" x="159.852363" xlink:href="#m442fa2f33b" y="249.067665"/>
     <use style="fill:#1f77b4;stroke:#1f77b4;" x="163.099497" xlink:href="#m442fa2f33b" y="249.067665"/>
     <use style="fill:#1f77b4;stroke:#1f77b4;" x="166.34663" xlink:href="#m442fa2f33b" y="249.067665"/>
     <use style="fill:#1f77b4;stroke:#1f77b4;" x="169.593764" xlink:href="#m442fa2f33b" y="249.067665"/>
     <use style="fill:#1f77b4;stroke:#1f77b4;" x="172.840897" xlink:href="#m442fa2f33b" y="249.067665"/>
     <use style="fill:#1f77b4;stroke:#1f77b4;" x="176.088031" xlink:href="#m442fa2f33b" y="249.067665"/>
     <use style="fill:#1f77b4;stroke:#1f77b4;" x="179.335164" xlink:href="#m442fa2f33b" y="249.067665"/>
     <use style="fill:#1f77b4;stroke:#1f77b4;" x="182.582298" xlink:href="#m442fa2f33b" y="249.067665"/>
     <use style="fill:#1f77b4;stroke:#1f77b4;" x="185.829431" xlink:href="#m442fa2f33b" y="249.067665"/>
     <use style="fill:#1f77b4;stroke:#1f77b4;" x="189.076565" xlink:href="#m442fa2f33b" y="249.067665"/>
     <use style="fill:#1f77b4;stroke:#1f77b4;" x="192.323698" xlink:href="#m442fa2f33b" y="249.067665"/>
     <use style="fill:#1f77b4;stroke:#1f77b4;" x="195.570832" xlink:href="#m442fa2f33b" y="249.067665"/>
     <use style="fill:#1f77b4;stroke:#1f77b4;" x="198.817965" xlink:href="#m442fa2f33b" y="249.067665"/>
     <use style="fill:#1f77b4;stroke:#1f77b4;" x="202.065098" xlink:href="#m442fa2f33b" y="249.067665"/>
     <use style="fill:#1f77b4;stroke:#1f77b4;" x="205.312232" xlink:href="#m442fa2f33b" y="249.067665"/>
     <use style="fill:#1f77b4;stroke:#1f77b4;" x="208.559365" xlink:href="#m442fa2f33b" y="249.067665"/>
     <use style="fill:#1f77b4;stroke:#1f77b4;" x="211.806499" xlink:href="#m442fa2f33b" y="249.067665"/>
     <use style="fill:#1f77b4;stroke:#1f77b4;" x="215.053632" xlink:href="#m442fa2f33b" y="249.067665"/>
     <use style="fill:#1f77b4;stroke:#1f77b4;" x="218.300766" xlink:href="#m442fa2f33b" y="249.067665"/>
     <use style="fill:#1f77b4;stroke:#1f77b4;" x="221.547899" xlink:href="#m442fa2f33b" y="249.067665"/>
     <use style="fill:#1f77b4;stroke:#1f77b4;" x="224.795033" xlink:href="#m442fa2f33b" y="249.067665"/>
     <use style="fill:#1f77b4;stroke:#1f77b4;" x="228.042166" xlink:href="#m442fa2f33b" y="249.067665"/>
     <use style="fill:#1f77b4;stroke:#1f77b4;" x="231.2893" xlink:href="#m442fa2f33b" y="249.067665"/>
     <use style="fill:#1f77b4;stroke:#1f77b4;" x="234.536433" xlink:href="#m442fa2f33b" y="249.067665"/>
     <use style="fill:#1f77b4;stroke:#1f77b4;" x="237.783567" xlink:href="#m442fa2f33b" y="249.067665"/>
     <use style="fill:#1f77b4;stroke:#1f77b4;" x="241.0307" xlink:href="#m442fa2f33b" y="249.067665"/>
     <use style="fill:#1f77b4;stroke:#1f77b4;" x="244.277834" xlink:href="#m442fa2f33b" y="249.067665"/>
     <use style="fill:#1f77b4;stroke:#1f77b4;" x="247.524967" xlink:href="#m442fa2f33b" y="249.067665"/>
     <use style="fill:#1f77b4;stroke:#1f77b4;" x="250.772101" xlink:href="#m442fa2f33b" y="249.067665"/>
     <use style="fill:#1f77b4;stroke:#1f77b4;" x="254.019234" xlink:href="#m442fa2f33b" y="249.067665"/>
     <use style="fill:#1f77b4;stroke:#1f77b4;" x="257.266368" xlink:href="#m442fa2f33b" y="249.067665"/>
     <use style="fill:#1f77b4;stroke:#1f77b4;" x="260.513501" xlink:href="#m442fa2f33b" y="249.067665"/>
     <use style="fill:#1f77b4;stroke:#1f77b4;" x="263.760635" xlink:href="#m442fa2f33b" y="249.067665"/>
     <use style="fill:#1f77b4;stroke:#1f77b4;" x="267.007768" xlink:href="#m442fa2f33b" y="249.067665"/>
     <use style="fill:#1f77b4;stroke:#1f77b4;" x="270.254902" xlink:href="#m442fa2f33b" y="249.067665"/>
     <use style="fill:#1f77b4;stroke:#1f77b4;" x="273.502035" xlink:href="#m442fa2f33b" y="249.067665"/>
     <use style="fill:#1f77b4;stroke:#1f77b4;" x="276.749168" xlink:href="#m442fa2f33b" y="249.067665"/>
     <use style="fill:#1f77b4;stroke:#1f77b4;" x="279.996302" xlink:href="#m442fa2f33b" y="249.067665"/>
     <use style="fill:#1f77b4;stroke:#1f77b4;" x="283.243435" xlink:href="#m442fa2f33b" y="249.067665"/>
     <use style="fill:#1f77b4;stroke:#1f77b4;" x="286.490569" xlink:href="#m442fa2f33b" y="249.067665"/>
     <use style="fill:#1f77b4;stroke:#1f77b4;" x="289.737702" xlink:href="#m442fa2f33b" y="249.067665"/>
     <use style="fill:#1f77b4;stroke:#1f77b4;" x="292.984836" xlink:href="#m442fa2f33b" y="249.067665"/>
     <use style="fill:#1f77b4;stroke:#1f77b4;" x="296.231969" xlink:href="#m442fa2f33b" y="249.067665"/>
     <use style="fill:#1f77b4;stroke:#1f77b4;" x="299.479103" xlink:href="#m442fa2f33b" y="249.067665"/>
     <use style="fill:#1f77b4;stroke:#1f77b4;" x="302.726236" xlink:href="#m442fa2f33b" y="249.067665"/>
     <use style="fill:#1f77b4;stroke:#1f77b4;" x="305.97337" xlink:href="#m442fa2f33b" y="249.067665"/>
     <use style="fill:#1f77b4;stroke:#1f77b4;" x="309.220503" xlink:href="#m442fa2f33b" y="249.067665"/>
     <use style="fill:#1f77b4;stroke:#1f77b4;" x="312.467637" xlink:href="#m442fa2f33b" y="249.067665"/>
     <use style="fill:#1f77b4;stroke:#1f77b4;" x="315.71477" xlink:href="#m442fa2f33b" y="249.067665"/>
     <use style="fill:#1f77b4;stroke:#1f77b4;" x="318.961904" xlink:href="#m442fa2f33b" y="249.067665"/>
     <use style="fill:#1f77b4;stroke:#1f77b4;" x="322.209037" xlink:href="#m442fa2f33b" y="249.067665"/>
     <use style="fill:#1f77b4;stroke:#1f77b4;" x="325.456171" xlink:href="#m442fa2f33b" y="249.067665"/>
     <use style="fill:#1f77b4;stroke:#1f77b4;" x="328.703304" xlink:href="#m442fa2f33b" y="249.067665"/>
     <use style="fill:#1f77b4;stroke:#1f77b4;" x="331.950438" xlink:href="#m442fa2f33b" y="249.067665"/>
     <use style="fill:#1f77b4;stroke:#1f77b4;" x="335.197571" xlink:href="#m442fa2f33b" y="249.067665"/>
     <use style="fill:#1f77b4;stroke:#1f77b4;" x="338.444705" xlink:href="#m442fa2f33b" y="249.067665"/>
     <use style="fill:#1f77b4;stroke:#1f77b4;" x="341.691838" xlink:href="#m442fa2f33b" y="249.067665"/>
     <use style="fill:#1f77b4;stroke:#1f77b4;" x="344.938971" xlink:href="#m442fa2f33b" y="249.067665"/>
     <use style="fill:#1f77b4;stroke:#1f77b4;" x="348.186105" xlink:href="#m442fa2f33b" y="249.067665"/>
     <use style="fill:#1f77b4;stroke:#1f77b4;" x="351.433238" xlink:href="#m442fa2f33b" y="249.067665"/>
     <use style="fill:#1f77b4;stroke:#1f77b4;" x="354.680372" xlink:href="#m442fa2f33b" y="249.067665"/>
     <use style="fill:#1f77b4;stroke:#1f77b4;" x="357.927505" xlink:href="#m442fa2f33b" y="249.067665"/>
     <use style="fill:#1f77b4;stroke:#1f77b4;" x="361.174639" xlink:href="#m442fa2f33b" y="249.067665"/>
     <use style="fill:#1f77b4;stroke:#1f77b4;" x="364.421772" xlink:href="#m442fa2f33b" y="249.067665"/>
     <use style="fill:#1f77b4;stroke:#1f77b4;" x="367.668906" xlink:href="#m442fa2f33b" y="249.067665"/>
     <use style="fill:#1f77b4;stroke:#1f77b4;" x="370.916039" xlink:href="#m442fa2f33b" y="249.067665"/>
     <use style="fill:#1f77b4;stroke:#1f77b4;" x="374.163173" xlink:href="#m442fa2f33b" y="249.067665"/>
     <use style="fill:#1f77b4;stroke:#1f77b4;" x="377.410306" xlink:href="#m442fa2f33b" y="249.067665"/>
     <use style="fill:#1f77b4;stroke:#1f77b4;" x="380.65744" xlink:href="#m442fa2f33b" y="249.067665"/>
     <use style="fill:#1f77b4;stroke:#1f77b4;" x="383.904573" xlink:href="#m442fa2f33b" y="249.067665"/>
     <use style="fill:#1f77b4;stroke:#1f77b4;" x="387.151707" xlink:href="#m442fa2f33b" y="249.067665"/>
     <use style="fill:#1f77b4;stroke:#1f77b4;" x="390.39884" xlink:href="#m442fa2f33b" y="249.067665"/>
     <use style="fill:#1f77b4;stroke:#1f77b4;" x="393.645974" xlink:href="#m442fa2f33b" y="249.067665"/>
     <use style="fill:#1f77b4;stroke:#1f77b4;" x="396.893107" xlink:href="#m442fa2f33b" y="249.067665"/>
    </g>
   </g>
   <g id="PathCollection_2">
    <defs>
     <path d="M 0 2.236068 
C 0.593012 2.236068 1.161816 2.000462 1.581139 1.581139 
C 2.000462 1.161816 2.236068 0.593012 2.236068 0 
C 2.236068 -0.593012 2.000462 -1.161816 1.581139 -1.581139 
C 1.161816 -2.000462 0.593012 -2.236068 0 -2.236068 
C -0.593012 -2.236068 -1.161816 -2.000462 -1.581139 -1.581139 
C -2.000462 -1.161816 -2.236068 -0.593012 -2.236068 0 
C -2.236068 0.593012 -2.000462 1.161816 -1.581139 1.581139 
C -1.161816 2.000462 -0.593012 2.236068 0 2.236068 
z
" id="m3b5cc0b4af" style="stroke:#ff7f0e;"/>
    </defs>
    <g clip-path="url(#p496823c52e)">
     <use style="fill:#ff7f0e;stroke:#ff7f0e;" x="75.426893" xlink:href="#m3b5cc0b4af" y="92.065447"/>
     <use style="fill:#ff7f0e;stroke:#ff7f0e;" x="78.674026" xlink:href="#m3b5cc0b4af" y="160.678052"/>
     <use style="fill:#ff7f0e;stroke:#ff7f0e;" x="81.92116" xlink:href="#m3b5cc0b4af" y="199.753256"/>
     <use style="fill:#ff7f0e;stroke:#ff7f0e;" x="85.168293" xlink:href="#m3b5cc0b4af" y="159.231334"/>
     <use style="fill:#ff7f0e;stroke:#ff7f0e;" x="88.415427" xlink:href="#m3b5cc0b4af" y="265.514007"/>
     <use style="fill:#ff7f0e;stroke:#ff7f0e;" x="91.66256" xlink:href="#m3b5cc0b4af" y="163.751173"/>
     <use style="fill:#ff7f0e;stroke:#ff7f0e;" x="94.909694" xlink:href="#m3b5cc0b4af" y="129.445171"/>
     <use style="fill:#ff7f0e;stroke:#ff7f0e;" x="98.156827" xlink:href="#m3b5cc0b4af" y="162.527122"/>
     <use style="fill:#ff7f0e;stroke:#ff7f0e;" x="101.403961" xlink:href="#m3b5cc0b4af" y="164.944973"/>
     <use style="fill:#ff7f0e;stroke:#ff7f0e;" x="104.651094" xlink:href="#m3b5cc0b4af" y="194.125887"/>
     <use style="fill:#ff7f0e;stroke:#ff7f0e;" x="107.898228" xlink:href="#m3b5cc0b4af" y="144.597594"/>
     <use style="fill:#ff7f0e;stroke:#ff7f0e;" x="111.145361" xlink:href="#m3b5cc0b4af" y="148.347023"/>
     <use style="fill:#ff7f0e;stroke:#ff7f0e;" x="114.392495" xlink:href="#m3b5cc0b4af" y="181.740872"/>
     <use style="fill:#ff7f0e;stroke:#ff7f0e;" x="117.639628" xlink:href="#m3b5cc0b4af" y="122.430727"/>
     <use style="fill:#ff7f0e;stroke:#ff7f0e;" x="120.886762" xlink:href="#m3b5cc0b4af" y="227.139066"/>
     <use style="fill:#ff7f0e;stroke:#ff7f0e;" x="124.133895" xlink:href="#m3b5cc0b4af" y="177.118747"/>
     <use style="fill:#ff7f0e;stroke:#ff7f0e;" x="127.381029" xlink:href="#m3b5cc0b4af" y="282.731286"/>
     <use style="fill:#ff7f0e;stroke:#ff7f0e;" x="130.628162" xlink:href="#m3b5cc0b4af" y="223.379514"/>
     <use style="fill:#ff7f0e;stroke:#ff7f0e;" x="133.875295" xlink:href="#m3b5cc0b4af" y="175.777868"/>
     <use style="fill:#ff7f0e;stroke:#ff7f0e;" x="137.122429" xlink:href="#m3b5cc0b4af" y="140.484713"/>
     <use style="fill:#ff7f0e;stroke:#ff7f0e;" x="140.369562" xlink:href="#m3b5cc0b4af" y="295.342933"/>
     <use style="fill:#ff7f0e;stroke:#ff7f0e;" x="143.616696" xlink:href="#m3b5cc0b4af" y="246.050167"/>
     <use style="fill:#ff7f0e;stroke:#ff7f0e;" x="146.863829" xlink:href="#m3b5cc0b4af" y="266.715661"/>
     <use style="fill:#ff7f0e;stroke:#ff7f0e;" x="150.110963" xlink:href="#m3b5cc0b4af" y="282.680886"/>
     <use style="fill:#ff7f0e;stroke:#ff7f0e;" x="153.358096" xlink:href="#m3b5cc0b4af" y="109.602989"/>
     <use style="fill:#ff7f0e;stroke:#ff7f0e;" x="156.60523" xlink:href="#m3b5cc0b4af" y="186.284512"/>
     <use style="fill:#ff7f0e;stroke:#ff7f0e;" x="159.852363" xlink:href="#m3b5cc0b4af" y="53.713067"/>
     <use style="fill:#ff7f0e;stroke:#ff7f0e;" x="163.099497" xlink:href="#m3b5cc0b4af" y="154.971019"/>
     <use style="fill:#ff7f0e;stroke:#ff7f0e;" x="166.34663" xlink:href="#m3b5cc0b4af" y="228.238765"/>
     <use style="fill:#ff7f0e;stroke:#ff7f0e;" x="169.593764" xlink:href="#m3b5cc0b4af" y="151.353799"/>
     <use style="fill:#ff7f0e;stroke:#ff7f0e;" x="172.840897" xlink:href="#m3b5cc0b4af" y="177.193472"/>
     <use style="fill:#ff7f0e;stroke:#ff7f0e;" x="176.088031" xlink:href="#m3b5cc0b4af" y="206.137763"/>
     <use style="fill:#ff7f0e;stroke:#ff7f0e;" x="179.335164" xlink:href="#m3b5cc0b4af" y="106.096297"/>
     <use style="fill:#ff7f0e;stroke:#ff7f0e;" x="182.582298" xlink:href="#m3b5cc0b4af" y="280.243293"/>
     <use style="fill:#ff7f0e;stroke:#ff7f0e;" x="185.829431" xlink:href="#m3b5cc0b4af" y="79.246602"/>
     <use style="fill:#ff7f0e;stroke:#ff7f0e;" x="189.076565" xlink:href="#m3b5cc0b4af" y="85.328059"/>
     <use style="fill:#ff7f0e;stroke:#ff7f0e;" x="192.323698" xlink:href="#m3b5cc0b4af" y="149.304038"/>
     <use style="fill:#ff7f0e;stroke:#ff7f0e;" x="195.570832" xlink:href="#m3b5cc0b4af" y="97.454076"/>
     <use style="fill:#ff7f0e;stroke:#ff7f0e;" x="198.817965" xlink:href="#m3b5cc0b4af" y="180.625404"/>
     <use style="fill:#ff7f0e;stroke:#ff7f0e;" x="202.065098" xlink:href="#m3b5cc0b4af" y="258.311893"/>
     <use style="fill:#ff7f0e;stroke:#ff7f0e;" x="205.312232" xlink:href="#m3b5cc0b4af" y="134.34269"/>
     <use style="fill:#ff7f0e;stroke:#ff7f0e;" x="208.559365" xlink:href="#m3b5cc0b4af" y="188.481197"/>
     <use style="fill:#ff7f0e;stroke:#ff7f0e;" x="211.806499" xlink:href="#m3b5cc0b4af" y="124.393604"/>
     <use style="fill:#ff7f0e;stroke:#ff7f0e;" x="215.053632" xlink:href="#m3b5cc0b4af" y="123.412712"/>
     <use style="fill:#ff7f0e;stroke:#ff7f0e;" x="218.300766" xlink:href="#m3b5cc0b4af" y="145.775348"/>
     <use style="fill:#ff7f0e;stroke:#ff7f0e;" x="221.547899" xlink:href="#m3b5cc0b4af" y="196.022122"/>
     <use style="fill:#ff7f0e;stroke:#ff7f0e;" x="224.795033" xlink:href="#m3b5cc0b4af" y="202.378384"/>
     <use style="fill:#ff7f0e;stroke:#ff7f0e;" x="228.042166" xlink:href="#m3b5cc0b4af" y="154.488671"/>
     <use style="fill:#ff7f0e;stroke:#ff7f0e;" x="231.2893" xlink:href="#m3b5cc0b4af" y="259.629871"/>
     <use style="fill:#ff7f0e;stroke:#ff7f0e;" x="234.536433" xlink:href="#m3b5cc0b4af" y="123.337317"/>
     <use style="fill:#ff7f0e;stroke:#ff7f0e;" x="237.783567" xlink:href="#m3b5cc0b4af" y="141.336973"/>
     <use style="fill:#ff7f0e;stroke:#ff7f0e;" x="241.0307" xlink:href="#m3b5cc0b4af" y="142.299868"/>
     <use style="fill:#ff7f0e;stroke:#ff7f0e;" x="244.277834" xlink:href="#m3b5cc0b4af" y="121.868834"/>
     <use style="fill:#ff7f0e;stroke:#ff7f0e;" x="247.524967" xlink:href="#m3b5cc0b4af" y="155.732912"/>
     <use style="fill:#ff7f0e;stroke:#ff7f0e;" x="250.772101" xlink:href="#m3b5cc0b4af" y="197.446413"/>
     <use style="fill:#ff7f0e;stroke:#ff7f0e;" x="254.019234" xlink:href="#m3b5cc0b4af" y="166.990638"/>
     <use style="fill:#ff7f0e;stroke:#ff7f0e;" x="257.266368" xlink:href="#m3b5cc0b4af" y="87.499348"/>
     <use style="fill:#ff7f0e;stroke:#ff7f0e;" x="260.513501" xlink:href="#m3b5cc0b4af" y="169.192945"/>
     <use style="fill:#ff7f0e;stroke:#ff7f0e;" x="263.760635" xlink:href="#m3b5cc0b4af" y="192.07573"/>
     <use style="fill:#ff7f0e;stroke:#ff7f0e;" x="267.007768" xlink:href="#m3b5cc0b4af" y="153.130717"/>
     <use style="fill:#ff7f0e;stroke:#ff7f0e;" x="270.254902" xlink:href="#m3b5cc0b4af" y="119.627457"/>
     <use style="fill:#ff7f0e;stroke:#ff7f0e;" x="273.502035" xlink:href="#m3b5cc0b4af" y="131.184755"/>
     <use style="fill:#ff7f0e;stroke:#ff7f0e;" x="276.749168" xlink:href="#m3b5cc0b4af" y="142.877768"/>
     <use style="fill:#ff7f0e;stroke:#ff7f0e;" x="279.996302" xlink:href="#m3b5cc0b4af" y="206.770433"/>
     <use style="fill:#ff7f0e;stroke:#ff7f0e;" x="283.243435" xlink:href="#m3b5cc0b4af" y="164.039771"/>
     <use style="fill:#ff7f0e;stroke:#ff7f0e;" x="286.490569" xlink:href="#m3b5cc0b4af" y="157.381943"/>
     <use style="fill:#ff7f0e;stroke:#ff7f0e;" x="289.737702" xlink:href="#m3b5cc0b4af" y="143.282534"/>
     <use style="fill:#ff7f0e;stroke:#ff7f0e;" x="292.984836" xlink:href="#m3b5cc0b4af" y="141.170383"/>
     <use style="fill:#ff7f0e;stroke:#ff7f0e;" x="296.231969" xlink:href="#m3b5cc0b4af" y="220.767847"/>
     <use style="fill:#ff7f0e;stroke:#ff7f0e;" x="299.479103" xlink:href="#m3b5cc0b4af" y="223.603877"/>
     <use style="fill:#ff7f0e;stroke:#ff7f0e;" x="302.726236" xlink:href="#m3b5cc0b4af" y="255.269578"/>
     <use style="fill:#ff7f0e;stroke:#ff7f0e;" x="305.97337" xlink:href="#m3b5cc0b4af" y="107.630595"/>
     <use style="fill:#ff7f0e;stroke:#ff7f0e;" x="309.220503" xlink:href="#m3b5cc0b4af" y="190.549387"/>
     <use style="fill:#ff7f0e;stroke:#ff7f0e;" x="312.467637" xlink:href="#m3b5cc0b4af" y="164.261909"/>
     <use style="fill:#ff7f0e;stroke:#ff7f0e;" x="315.71477" xlink:href="#m3b5cc0b4af" y="127.716491"/>
     <use style="fill:#ff7f0e;stroke:#ff7f0e;" x="318.961904" xlink:href="#m3b5cc0b4af" y="204.064373"/>
     <use style="fill:#ff7f0e;stroke:#ff7f0e;" x="322.209037" xlink:href="#m3b5cc0b4af" y="173.010309"/>
     <use style="fill:#ff7f0e;stroke:#ff7f0e;" x="325.456171" xlink:href="#m3b5cc0b4af" y="159.092607"/>
     <use style="fill:#ff7f0e;stroke:#ff7f0e;" x="328.703304" xlink:href="#m3b5cc0b4af" y="196.980685"/>
     <use style="fill:#ff7f0e;stroke:#ff7f0e;" x="331.950438" xlink:href="#m3b5cc0b4af" y="218.493585"/>
     <use style="fill:#ff7f0e;stroke:#ff7f0e;" x="335.197571" xlink:href="#m3b5cc0b4af" y="169.378494"/>
     <use style="fill:#ff7f0e;stroke:#ff7f0e;" x="338.444705" xlink:href="#m3b5cc0b4af" y="216.031012"/>
     <use style="fill:#ff7f0e;stroke:#ff7f0e;" x="341.691838" xlink:href="#m3b5cc0b4af" y="205.127467"/>
     <use style="fill:#ff7f0e;stroke:#ff7f0e;" x="344.938971" xlink:href="#m3b5cc0b4af" y="118.754176"/>
     <use style="fill:#ff7f0e;stroke:#ff7f0e;" x="348.186105" xlink:href="#m3b5cc0b4af" y="148.945466"/>
     <use style="fill:#ff7f0e;stroke:#ff7f0e;" x="351.433238" xlink:href="#m3b5cc0b4af" y="215.022586"/>
     <use style="fill:#ff7f0e;stroke:#ff7f0e;" x="354.680372" xlink:href="#m3b5cc0b4af" y="84.007501"/>
     <use style="fill:#ff7f0e;stroke:#ff7f0e;" x="357.927505" xlink:href="#m3b5cc0b4af" y="115.620368"/>
     <use style="fill:#ff7f0e;stroke:#ff7f0e;" x="361.174639" xlink:href="#m3b5cc0b4af" y="194.285128"/>
     <use style="fill:#ff7f0e;stroke:#ff7f0e;" x="364.421772" xlink:href="#m3b5cc0b4af" y="92.449541"/>
     <use style="fill:#ff7f0e;stroke:#ff7f0e;" x="367.668906" xlink:href="#m3b5cc0b4af" y="179.409272"/>
     <use style="fill:#ff7f0e;stroke:#ff7f0e;" x="370.916039" xlink:href="#m3b5cc0b4af" y="176.681452"/>
     <use style="fill:#ff7f0e;stroke:#ff7f0e;" x="374.163173" xlink:href="#m3b5cc0b4af" y="190.256964"/>
     <use style="fill:#ff7f0e;stroke:#ff7f0e;" x="377.410306" xlink:href="#m3b5cc0b4af" y="94.281625"/>
     <use style="fill:#ff7f0e;stroke:#ff7f0e;" x="380.65744" xlink:href="#m3b5cc0b4af" y="132.07768"/>
     <use style="fill:#ff7f0e;stroke:#ff7f0e;" x="383.904573" xlink:href="#m3b5cc0b4af" y="201.962041"/>
     <use style="fill:#ff7f0e;stroke:#ff7f0e;" x="387.151707" xlink:href="#m3b5cc0b4af" y="172.323196"/>
     <use style="fill:#ff7f0e;stroke:#ff7f0e;" x="390.39884" xlink:href="#m3b5cc0b4af" y="120.683055"/>
     <use style="fill:#ff7f0e;stroke:#ff7f0e;" x="393.645974" xlink:href="#m3b5cc0b4af" y="244.592572"/>
     <use style="fill:#ff7f0e;stroke:#ff7f0e;" x="396.893107" xlink:href="#m3b5cc0b4af" y="134.333527"/>
    </g>
   </g>
   <g id="matplotlib.axis_1">
    <g id="xtick_1">
     <g id="line2d_1">
      <defs>
       <path d="M 0 0 
L 0 3.5 
" id="m77175bbb31" style="stroke:#000000;stroke-width:0.8;"/>
      </defs>
      <g>
       <use style="stroke:#000000;stroke-width:0.8;" x="75.426893" xlink:href="#m77175bbb31" y="307.584"/>
      </g>
     </g>
     <g id="text_1">
      <!-- 0 -->
      <defs>
       <path d="M 31.78125 66.40625 
Q 24.171875 66.40625 20.328125 58.90625 
Q 16.5 51.421875 16.5 36.375 
Q 16.5 21.390625 20.328125 13.890625 
Q 24.171875 6.390625 31.78125 6.390625 
Q 39.453125 6.390625 43.28125 13.890625 
Q 47.125 21.390625 47.125 36.375 
Q 47.125 51.421875 43.28125 58.90625 
Q 39.453125 66.40625 31.78125 66.40625 
M 31.78125 74.21875 
Q 44.046875 74.21875 50.515625 64.515625 
Q 56.984375 54.828125 56.984375 36.375 
Q 56.984375 17.96875 50.515625 8.265625 
Q 44.046875 -1.421875 31.78125 -1.421875 
Q 19.53125 -1.421875 13.0625 8.265625 
Q 6.59375 17.96875 6.59375 36.375 
Q 6.59375 54.828125 13.0625 64.515625 
Q 19.53125 74.21875 31.78125 74.21875 
" id="DejaVuSans-30"/>
      </defs>
      <g transform="translate(72.245643 322.182437)scale(0.1 -0.1)">
       <use xlink:href="#DejaVuSans-30"/>
      </g>
     </g>
    </g>
    <g id="xtick_2">
     <g id="line2d_2">
      <g>
       <use style="stroke:#000000;stroke-width:0.8;" x="129.545784" xlink:href="#m77175bbb31" y="307.584"/>
      </g>
     </g>
     <g id="text_2">
      <!-- 500 -->
      <defs>
       <path d="M 10.796875 72.90625 
L 49.515625 72.90625 
L 49.515625 64.59375 
L 19.828125 64.59375 
L 19.828125 46.734375 
Q 21.96875 47.46875 24.109375 47.828125 
Q 26.265625 48.1875 28.421875 48.1875 
Q 40.625 48.1875 47.75 41.5 
Q 54.890625 34.8125 54.890625 23.390625 
Q 54.890625 11.625 47.5625 5.09375 
Q 40.234375 -1.421875 26.90625 -1.421875 
Q 22.3125 -1.421875 17.546875 -0.640625 
Q 12.796875 0.140625 7.71875 1.703125 
L 7.71875 11.625 
Q 12.109375 9.234375 16.796875 8.0625 
Q 21.484375 6.890625 26.703125 6.890625 
Q 35.15625 6.890625 40.078125 11.328125 
Q 45.015625 15.765625 45.015625 23.390625 
Q 45.015625 31 40.078125 35.4375 
Q 35.15625 39.890625 26.703125 39.890625 
Q 22.75 39.890625 18.8125 39.015625 
Q 14.890625 38.140625 10.796875 36.28125 
z
" id="DejaVuSans-35"/>
      </defs>
      <g transform="translate(120.002034 322.182437)scale(0.1 -0.1)">
       <use xlink:href="#DejaVuSans-35"/>
       <use x="63.623047" xlink:href="#DejaVuSans-30"/>
       <use x="127.246094" xlink:href="#DejaVuSans-30"/>
      </g>
     </g>
    </g>
    <g id="xtick_3">
     <g id="line2d_3">
      <g>
       <use style="stroke:#000000;stroke-width:0.8;" x="183.664675" xlink:href="#m77175bbb31" y="307.584"/>
      </g>
     </g>
     <g id="text_3">
      <!-- 1000 -->
      <defs>
       <path d="M 12.40625 8.296875 
L 28.515625 8.296875 
L 28.515625 63.921875 
L 10.984375 60.40625 
L 10.984375 69.390625 
L 28.421875 72.90625 
L 38.28125 72.90625 
L 38.28125 8.296875 
L 54.390625 8.296875 
L 54.390625 0 
L 12.40625 0 
z
" id="DejaVuSans-31"/>
      </defs>
      <g transform="translate(170.939675 322.182437)scale(0.1 -0.1)">
       <use xlink:href="#DejaVuSans-31"/>
       <use x="63.623047" xlink:href="#DejaVuSans-30"/>
       <use x="127.246094" xlink:href="#DejaVuSans-30"/>
       <use x="190.869141" xlink:href="#DejaVuSans-30"/>
      </g>
     </g>
    </g>
    <g id="xtick_4">
     <g id="line2d_4">
      <g>
       <use style="stroke:#000000;stroke-width:0.8;" x="237.783567" xlink:href="#m77175bbb31" y="307.584"/>
      </g>
     </g>
     <g id="text_4">
      <!-- 1500 -->
      <g transform="translate(225.058567 322.182437)scale(0.1 -0.1)">
       <use xlink:href="#DejaVuSans-31"/>
       <use x="63.623047" xlink:href="#DejaVuSans-35"/>
       <use x="127.246094" xlink:href="#DejaVuSans-30"/>
       <use x="190.869141" xlink:href="#DejaVuSans-30"/>
      </g>
     </g>
    </g>
    <g id="xtick_5">
     <g id="line2d_5">
      <g>
       <use style="stroke:#000000;stroke-width:0.8;" x="291.902458" xlink:href="#m77175bbb31" y="307.584"/>
      </g>
     </g>
     <g id="text_5">
      <!-- 2000 -->
      <defs>
       <path d="M 19.1875 8.296875 
L 53.609375 8.296875 
L 53.609375 0 
L 7.328125 0 
L 7.328125 8.296875 
Q 12.9375 14.109375 22.625 23.890625 
Q 32.328125 33.6875 34.8125 36.53125 
Q 39.546875 41.84375 41.421875 45.53125 
Q 43.3125 49.21875 43.3125 52.78125 
Q 43.3125 58.59375 39.234375 62.25 
Q 35.15625 65.921875 28.609375 65.921875 
Q 23.96875 65.921875 18.8125 64.3125 
Q 13.671875 62.703125 7.8125 59.421875 
L 7.8125 69.390625 
Q 13.765625 71.78125 18.9375 73 
Q 24.125 74.21875 28.421875 74.21875 
Q 39.75 74.21875 46.484375 68.546875 
Q 53.21875 62.890625 53.21875 53.421875 
Q 53.21875 48.921875 51.53125 44.890625 
Q 49.859375 40.875 45.40625 35.40625 
Q 44.1875 33.984375 37.640625 27.21875 
Q 31.109375 20.453125 19.1875 8.296875 
" id="DejaVuSans-32"/>
      </defs>
      <g transform="translate(279.177458 322.182437)scale(0.1 -0.1)">
       <use xlink:href="#DejaVuSans-32"/>
       <use x="63.623047" xlink:href="#DejaVuSans-30"/>
       <use x="127.246094" xlink:href="#DejaVuSans-30"/>
       <use x="190.869141" xlink:href="#DejaVuSans-30"/>
      </g>
     </g>
    </g>
    <g id="xtick_6">
     <g id="line2d_6">
      <g>
       <use style="stroke:#000000;stroke-width:0.8;" x="346.021349" xlink:href="#m77175bbb31" y="307.584"/>
      </g>
     </g>
     <g id="text_6">
      <!-- 2500 -->
      <g transform="translate(333.296349 322.182437)scale(0.1 -0.1)">
       <use xlink:href="#DejaVuSans-32"/>
       <use x="63.623047" xlink:href="#DejaVuSans-35"/>
       <use x="127.246094" xlink:href="#DejaVuSans-30"/>
       <use x="190.869141" xlink:href="#DejaVuSans-30"/>
      </g>
     </g>
    </g>
    <g id="xtick_7">
     <g id="line2d_7">
      <g>
       <use style="stroke:#000000;stroke-width:0.8;" x="400.140241" xlink:href="#m77175bbb31" y="307.584"/>
      </g>
     </g>
     <g id="text_7">
      <!-- 3000 -->
      <defs>
       <path d="M 40.578125 39.3125 
Q 47.65625 37.796875 51.625 33 
Q 55.609375 28.21875 55.609375 21.1875 
Q 55.609375 10.40625 48.1875 4.484375 
Q 40.765625 -1.421875 27.09375 -1.421875 
Q 22.515625 -1.421875 17.65625 -0.515625 
Q 12.796875 0.390625 7.625 2.203125 
L 7.625 11.71875 
Q 11.71875 9.328125 16.59375 8.109375 
Q 21.484375 6.890625 26.8125 6.890625 
Q 36.078125 6.890625 40.9375 10.546875 
Q 45.796875 14.203125 45.796875 21.1875 
Q 45.796875 27.640625 41.28125 31.265625 
Q 36.765625 34.90625 28.71875 34.90625 
L 20.21875 34.90625 
L 20.21875 43.015625 
L 29.109375 43.015625 
Q 36.375 43.015625 40.234375 45.921875 
Q 44.09375 48.828125 44.09375 54.296875 
Q 44.09375 59.90625 40.109375 62.90625 
Q 36.140625 65.921875 28.71875 65.921875 
Q 24.65625 65.921875 20.015625 65.03125 
Q 15.375 64.15625 9.8125 62.3125 
L 9.8125 71.09375 
Q 15.4375 72.65625 20.34375 73.4375 
Q 25.25 74.21875 29.59375 74.21875 
Q 40.828125 74.21875 47.359375 69.109375 
Q 53.90625 64.015625 53.90625 55.328125 
Q 53.90625 49.265625 50.4375 45.09375 
Q 46.96875 40.921875 40.578125 39.3125 
" id="DejaVuSans-33"/>
      </defs>
      <g transform="translate(387.415241 322.182437)scale(0.1 -0.1)">
       <use xlink:href="#DejaVuSans-33"/>
       <use x="63.623047" xlink:href="#DejaVuSans-30"/>
       <use x="127.246094" xlink:href="#DejaVuSans-30"/>
       <use x="190.869141" xlink:href="#DejaVuSans-30"/>
      </g>
     </g>
    </g>
    <g id="text_8">
     <!-- Ramp Time -->
     <defs>
      <path d="M 44.390625 34.1875 
Q 47.5625 33.109375 50.5625 29.59375 
Q 53.5625 26.078125 56.59375 19.921875 
L 66.609375 0 
L 56 0 
L 46.6875 18.703125 
Q 43.0625 26.03125 39.671875 28.421875 
Q 36.28125 30.8125 30.421875 30.8125 
L 19.671875 30.8125 
L 19.671875 0 
L 9.8125 0 
L 9.8125 72.90625 
L 32.078125 72.90625 
Q 44.578125 72.90625 50.734375 67.671875 
Q 56.890625 62.453125 56.890625 51.90625 
Q 56.890625 45.015625 53.6875 40.46875 
Q 50.484375 35.9375 44.390625 34.1875 
M 19.671875 64.796875 
L 19.671875 38.921875 
L 32.078125 38.921875 
Q 39.203125 38.921875 42.84375 42.21875 
Q 46.484375 45.515625 46.484375 51.90625 
Q 46.484375 58.296875 42.84375 61.546875 
Q 39.203125 64.796875 32.078125 64.796875 
z
" id="DejaVuSans-52"/>
      <path d="M 34.28125 27.484375 
Q 23.390625 27.484375 19.1875 25 
Q 14.984375 22.515625 14.984375 16.5 
Q 14.984375 11.71875 18.140625 8.90625 
Q 21.296875 6.109375 26.703125 6.109375 
Q 34.1875 6.109375 38.703125 11.40625 
Q 43.21875 16.703125 43.21875 25.484375 
L 43.21875 27.484375 
z
M 52.203125 31.203125 
L 52.203125 0 
L 43.21875 0 
L 43.21875 8.296875 
Q 40.140625 3.328125 35.546875 0.953125 
Q 30.953125 -1.421875 24.3125 -1.421875 
Q 15.921875 -1.421875 10.953125 3.296875 
Q 6 8.015625 6 15.921875 
Q 6 25.140625 12.171875 29.828125 
Q 18.359375 34.515625 30.609375 34.515625 
L 43.21875 34.515625 
L 43.21875 35.40625 
Q 43.21875 41.609375 39.140625 45 
Q 35.0625 48.390625 27.6875 48.390625 
Q 23 48.390625 18.546875 47.265625 
Q 14.109375 46.140625 10.015625 43.890625 
L 10.015625 52.203125 
Q 14.9375 54.109375 19.578125 55.046875 
Q 24.21875 56 28.609375 56 
Q 40.484375 56 46.34375 49.84375 
Q 52.203125 43.703125 52.203125 31.203125 
" id="DejaVuSans-61"/>
      <path d="M 52 44.1875 
Q 55.375 50.25 60.0625 53.125 
Q 64.75 56 71.09375 56 
Q 79.640625 56 84.28125 50.015625 
Q 88.921875 44.046875 88.921875 33.015625 
L 88.921875 0 
L 79.890625 0 
L 79.890625 32.71875 
Q 79.890625 40.578125 77.09375 44.375 
Q 74.3125 48.1875 68.609375 48.1875 
Q 61.625 48.1875 57.5625 43.546875 
Q 53.515625 38.921875 53.515625 30.90625 
L 53.515625 0 
L 44.484375 0 
L 44.484375 32.71875 
Q 44.484375 40.625 41.703125 44.40625 
Q 38.921875 48.1875 33.109375 48.1875 
Q 26.21875 48.1875 22.15625 43.53125 
Q 18.109375 38.875 18.109375 30.90625 
L 18.109375 0 
L 9.078125 0 
L 9.078125 54.6875 
L 18.109375 54.6875 
L 18.109375 46.1875 
Q 21.1875 51.21875 25.484375 53.609375 
Q 29.78125 56 35.6875 56 
Q 41.65625 56 45.828125 52.96875 
Q 50 49.953125 52 44.1875 
" id="DejaVuSans-6d"/>
      <path d="M 18.109375 8.203125 
L 18.109375 -20.796875 
L 9.078125 -20.796875 
L 9.078125 54.6875 
L 18.109375 54.6875 
L 18.109375 46.390625 
Q 20.953125 51.265625 25.265625 53.625 
Q 29.59375 56 35.59375 56 
Q 45.5625 56 51.78125 48.09375 
Q 58.015625 40.1875 58.015625 27.296875 
Q 58.015625 14.40625 51.78125 6.484375 
Q 45.5625 -1.421875 35.59375 -1.421875 
Q 29.59375 -1.421875 25.265625 0.953125 
Q 20.953125 3.328125 18.109375 8.203125 
M 48.6875 27.296875 
Q 48.6875 37.203125 44.609375 42.84375 
Q 40.53125 48.484375 33.40625 48.484375 
Q 26.265625 48.484375 22.1875 42.84375 
Q 18.109375 37.203125 18.109375 27.296875 
Q 18.109375 17.390625 22.1875 11.75 
Q 26.265625 6.109375 33.40625 6.109375 
Q 40.53125 6.109375 44.609375 11.75 
Q 48.6875 17.390625 48.6875 27.296875 
" id="DejaVuSans-70"/>
      <path id="DejaVuSans-20"/>
      <path d="M -0.296875 72.90625 
L 61.375 72.90625 
L 61.375 64.59375 
L 35.5 64.59375 
L 35.5 0 
L 25.59375 0 
L 25.59375 64.59375 
L -0.296875 64.59375 
z
" id="DejaVuSans-54"/>
      <path d="M 9.421875 54.6875 
L 18.40625 54.6875 
L 18.40625 0 
L 9.421875 0 
z
M 9.421875 75.984375 
L 18.40625 75.984375 
L 18.40625 64.59375 
L 9.421875 64.59375 
z
" id="DejaVuSans-69"/>
      <path d="M 56.203125 29.59375 
L 56.203125 25.203125 
L 14.890625 25.203125 
Q 15.484375 15.921875 20.484375 11.0625 
Q 25.484375 6.203125 34.421875 6.203125 
Q 39.59375 6.203125 44.453125 7.46875 
Q 49.3125 8.734375 54.109375 11.28125 
L 54.109375 2.78125 
Q 49.265625 0.734375 44.1875 -0.34375 
Q 39.109375 -1.421875 33.890625 -1.421875 
Q 20.796875 -1.421875 13.15625 6.1875 
Q 5.515625 13.8125 5.515625 26.8125 
Q 5.515625 40.234375 12.765625 48.109375 
Q 20.015625 56 32.328125 56 
Q 43.359375 56 49.78125 48.890625 
Q 56.203125 41.796875 56.203125 29.59375 
M 47.21875 32.234375 
Q 47.125 39.59375 43.09375 43.984375 
Q 39.0625 48.390625 32.421875 48.390625 
Q 24.90625 48.390625 20.390625 44.140625 
Q 15.875 39.890625 15.1875 32.171875 
z
" id="DejaVuSans-65"/>
     </defs>
     <g transform="translate(207.602187 335.860562)scale(0.1 -0.1)">
      <use xlink:href="#DejaVuSans-52"/>
      <use x="69.451172" xlink:href="#DejaVuSans-61"/>
      <use x="130.730469" xlink:href="#DejaVuSans-6d"/>
      <use x="228.142578" xlink:href="#DejaVuSans-70"/>
      <use x="291.619141" xlink:href="#DejaVuSans-20"/>
      <use x="323.40625" xlink:href="#DejaVuSans-54"/>
      <use x="384.443359" xlink:href="#DejaVuSans-69"/>
      <use x="412.226562" xlink:href="#DejaVuSans-6d"/>
      <use x="509.638672" xlink:href="#DejaVuSans-65"/>
     </g>
    </g>
   </g>
   <g id="matplotlib.axis_2">
    <g id="ytick_1">
     <g id="line2d_8">
      <defs>
       <path d="M 0 0 
L -3.5 0 
" id="m12f2f24e58" style="stroke:#000000;stroke-width:0.8;"/>
      </defs>
      <g>
       <use style="stroke:#000000;stroke-width:0.8;" x="57.6" xlink:href="#m12f2f24e58" y="306.036663"/>
      </g>
     </g>
     <g id="text_9">
      <!-- −0.05 -->
      <defs>
       <path d="M 10.59375 35.5 
L 73.1875 35.5 
L 73.1875 27.203125 
L 10.59375 27.203125 
z
" id="DejaVuSans-2212"/>
       <path d="M 10.6875 12.40625 
L 21 12.40625 
L 21 0 
L 10.6875 0 
z
" id="DejaVuSans-2e"/>
      </defs>
      <g transform="translate(19.954687 309.835882)scale(0.1 -0.1)">
       <use xlink:href="#DejaVuSans-2212"/>
       <use x="83.789062" xlink:href="#DejaVuSans-30"/>
       <use x="147.412109" xlink:href="#DejaVuSans-2e"/>
       <use x="179.199219" xlink:href="#DejaVuSans-30"/>
       <use x="242.822266" xlink:href="#DejaVuSans-35"/>
      </g>
     </g>
    </g>
    <g id="ytick_2">
     <g id="line2d_9">
      <g>
       <use style="stroke:#000000;stroke-width:0.8;" x="57.6" xlink:href="#m12f2f24e58" y="249.067665"/>
      </g>
     </g>
     <g id="text_10">
      <!-- 0.00 -->
      <g transform="translate(28.334375 252.866884)scale(0.1 -0.1)">
       <use xlink:href="#DejaVuSans-30"/>
       <use x="63.623047" xlink:href="#DejaVuSans-2e"/>
       <use x="95.410156" xlink:href="#DejaVuSans-30"/>
       <use x="159.033203" xlink:href="#DejaVuSans-30"/>
      </g>
     </g>
    </g>
    <g id="ytick_3">
     <g id="line2d_10">
      <g>
       <use style="stroke:#000000;stroke-width:0.8;" x="57.6" xlink:href="#m12f2f24e58" y="192.098667"/>
      </g>
     </g>
     <g id="text_11">
      <!-- 0.05 -->
      <g transform="translate(28.334375 195.897885)scale(0.1 -0.1)">
       <use xlink:href="#DejaVuSans-30"/>
       <use x="63.623047" xlink:href="#DejaVuSans-2e"/>
       <use x="95.410156" xlink:href="#DejaVuSans-30"/>
       <use x="159.033203" xlink:href="#DejaVuSans-35"/>
      </g>
     </g>
    </g>
    <g id="ytick_4">
     <g id="line2d_11">
      <g>
       <use style="stroke:#000000;stroke-width:0.8;" x="57.6" xlink:href="#m12f2f24e58" y="135.129668"/>
      </g>
     </g>
     <g id="text_12">
      <!-- 0.10 -->
      <g transform="translate(28.334375 138.928887)scale(0.1 -0.1)">
       <use xlink:href="#DejaVuSans-30"/>
       <use x="63.623047" xlink:href="#DejaVuSans-2e"/>
       <use x="95.410156" xlink:href="#DejaVuSans-31"/>
       <use x="159.033203" xlink:href="#DejaVuSans-30"/>
      </g>
     </g>
    </g>
    <g id="ytick_5">
     <g id="line2d_12">
      <g>
       <use style="stroke:#000000;stroke-width:0.8;" x="57.6" xlink:href="#m12f2f24e58" y="78.16067"/>
      </g>
     </g>
     <g id="text_13">
      <!-- 0.15 -->
      <g transform="translate(28.334375 81.959889)scale(0.1 -0.1)">
       <use xlink:href="#DejaVuSans-30"/>
       <use x="63.623047" xlink:href="#DejaVuSans-2e"/>
       <use x="95.410156" xlink:href="#DejaVuSans-31"/>
       <use x="159.033203" xlink:href="#DejaVuSans-35"/>
      </g>
     </g>
    </g>
    <g id="text_14">
     <!-- Energy -->
     <defs>
      <path d="M 9.8125 72.90625 
L 55.90625 72.90625 
L 55.90625 64.59375 
L 19.671875 64.59375 
L 19.671875 43.015625 
L 54.390625 43.015625 
L 54.390625 34.71875 
L 19.671875 34.71875 
L 19.671875 8.296875 
L 56.78125 8.296875 
L 56.78125 0 
L 9.8125 0 
z
" id="DejaVuSans-45"/>
      <path d="M 54.890625 33.015625 
L 54.890625 0 
L 45.90625 0 
L 45.90625 32.71875 
Q 45.90625 40.484375 42.875 44.328125 
Q 39.84375 48.1875 33.796875 48.1875 
Q 26.515625 48.1875 22.3125 43.546875 
Q 18.109375 38.921875 18.109375 30.90625 
L 18.109375 0 
L 9.078125 0 
L 9.078125 54.6875 
L 18.109375 54.6875 
L 18.109375 46.1875 
Q 21.34375 51.125 25.703125 53.5625 
Q 30.078125 56 35.796875 56 
Q 45.21875 56 50.046875 50.171875 
Q 54.890625 44.34375 54.890625 33.015625 
" id="DejaVuSans-6e"/>
      <path d="M 41.109375 46.296875 
Q 39.59375 47.171875 37.8125 47.578125 
Q 36.03125 48 33.890625 48 
Q 26.265625 48 22.1875 43.046875 
Q 18.109375 38.09375 18.109375 28.8125 
L 18.109375 0 
L 9.078125 0 
L 9.078125 54.6875 
L 18.109375 54.6875 
L 18.109375 46.1875 
Q 20.953125 51.171875 25.484375 53.578125 
Q 30.03125 56 36.53125 56 
Q 37.453125 56 38.578125 55.875 
Q 39.703125 55.765625 41.0625 55.515625 
z
" id="DejaVuSans-72"/>
      <path d="M 45.40625 27.984375 
Q 45.40625 37.75 41.375 43.109375 
Q 37.359375 48.484375 30.078125 48.484375 
Q 22.859375 48.484375 18.828125 43.109375 
Q 14.796875 37.75 14.796875 27.984375 
Q 14.796875 18.265625 18.828125 12.890625 
Q 22.859375 7.515625 30.078125 7.515625 
Q 37.359375 7.515625 41.375 12.890625 
Q 45.40625 18.265625 45.40625 27.984375 
M 54.390625 6.78125 
Q 54.390625 -7.171875 48.1875 -13.984375 
Q 42 -20.796875 29.203125 -20.796875 
Q 24.46875 -20.796875 20.265625 -20.09375 
Q 16.0625 -19.390625 12.109375 -17.921875 
L 12.109375 -9.1875 
Q 16.0625 -11.328125 19.921875 -12.34375 
Q 23.78125 -13.375 27.78125 -13.375 
Q 36.625 -13.375 41.015625 -8.765625 
Q 45.40625 -4.15625 45.40625 5.171875 
L 45.40625 9.625 
Q 42.625 4.78125 38.28125 2.390625 
Q 33.9375 0 27.875 0 
Q 17.828125 0 11.671875 7.65625 
Q 5.515625 15.328125 5.515625 27.984375 
Q 5.515625 40.671875 11.671875 48.328125 
Q 17.828125 56 27.875 56 
Q 33.9375 56 38.28125 53.609375 
Q 42.625 51.21875 45.40625 46.390625 
L 45.40625 54.6875 
L 54.390625 54.6875 
z
" id="DejaVuSans-67"/>
      <path d="M 32.171875 -5.078125 
Q 28.375 -14.84375 24.75 -17.8125 
Q 21.140625 -20.796875 15.09375 -20.796875 
L 7.90625 -20.796875 
L 7.90625 -13.28125 
L 13.1875 -13.28125 
Q 16.890625 -13.28125 18.9375 -11.515625 
Q 21 -9.765625 23.484375 -3.21875 
L 25.09375 0.875 
L 2.984375 54.6875 
L 12.5 54.6875 
L 29.59375 11.921875 
L 46.6875 54.6875 
L 56.203125 54.6875 
z
" id="DejaVuSans-79"/>
     </defs>
     <g transform="translate(13.875 192.120969)rotate(-90)scale(0.1 -0.1)">
      <use xlink:href="#DejaVuSans-45"/>
      <use x="63.183594" xlink:href="#DejaVuSans-6e"/>
      <use x="126.5625" xlink:href="#DejaVuSans-65"/>
      <use x="188.085938" xlink:href="#DejaVuSans-72"/>
      <use x="229.183594" xlink:href="#DejaVuSans-67"/>
      <use x="292.660156" xlink:href="#DejaVuSans-79"/>
     </g>
    </g>
   </g>
   <g id="patch_3">
    <path d="M 57.6 307.584 
L 57.6 41.472 
" style="fill:none;stroke:#000000;stroke-linecap:square;stroke-linejoin:miter;stroke-width:0.8;"/>
   </g>
   <g id="patch_4">
    <path d="M 414.72 307.584 
L 414.72 41.472 
" style="fill:none;stroke:#000000;stroke-linecap:square;stroke-linejoin:miter;stroke-width:0.8;"/>
   </g>
   <g id="patch_5">
    <path d="M 57.6 307.584 
L 414.72 307.584 
" style="fill:none;stroke:#000000;stroke-linecap:square;stroke-linejoin:miter;stroke-width:0.8;"/>
   </g>
   <g id="patch_6">
    <path d="M 57.6 41.472 
L 414.72 41.472 
" style="fill:none;stroke:#000000;stroke-linecap:square;stroke-linejoin:miter;stroke-width:0.8;"/>
   </g>
  </g>
 </g>
 <defs>
  <clipPath id="p496823c52e">
   <rect height="266.112" width="357.12" x="57.6" y="41.472"/>
  </clipPath>
 </defs>
</svg>
