<?xml version="1.0" encoding="utf-8" standalone="no"?>
<!DOCTYPE svg PUBLIC "-//W3C//DTD SVG 1.1//EN"
  "http://www.w3.org/Graphics/SVG/1.1/DTD/svg11.dtd">
<!-- Created with matplotlib (http://matplotlib.org/) -->
<svg height="345pt" version="1.1" viewBox="0 0 460 345" width="460pt" xmlns="http://www.w3.org/2000/svg" xmlns:xlink="http://www.w3.org/1999/xlink">
 <defs>
  <style type="text/css">
*{stroke-linecap:butt;stroke-linejoin:round;}
  </style>
 </defs>
 <g id="figure_1">
  <g id="patch_1">
   <path d="M 0 345.6 
L 460.8 345.6 
L 460.8 0 
L 0 0 
z
" style="fill:#ffffff;"/>
  </g>
  <g id="axes_1">
   <g id="patch_2">
    <path d="M 57.6 307.584 
L 414.72 307.584 
L 414.72 41.472 
L 57.6 41.472 
z
" style="fill:#ffffff;"/>
   </g>
   <g id="PathCollection_1">
    <defs>
     <path d="M 0 3.535534 
C 0.937635 3.535534 1.836992 3.163008 2.5 2.5 
C 3.163008 1.836992 3.535534 0.937635 3.535534 0 
C 3.535534 -0.937635 3.163008 -1.836992 2.5 -2.5 
C 1.836992 -3.163008 0.937635 -3.535534 0 -3.535534 
C -0.937635 -3.535534 -1.836992 -3.163008 -2.5 -2.5 
C -3.163008 -1.836992 -3.535534 -0.937635 -3.535534 0 
C -3.535534 0.937635 -3.163008 1.836992 -2.5 2.5 
C -1.836992 3.163008 -0.937635 3.535534 0 3.535534 
z
" id="md9330a36cb" style="stroke:#1f77b4;"/>
    </defs>
    <g clip-path="url(#p7298824525)">
     <use style="fill:#1f77b4;stroke:#1f77b4;" x="94.265763" xlink:href="#md9330a36cb" y="303.999517"/>
     <use style="fill:#1f77b4;stroke:#1f77b4;" x="97.132313" xlink:href="#md9330a36cb" y="303.929191"/>
     <use style="fill:#1f77b4;stroke:#1f77b4;" x="99.998863" xlink:href="#md9330a36cb" y="303.785442"/>
     <use style="fill:#1f77b4;stroke:#1f77b4;" x="102.865413" xlink:href="#md9330a36cb" y="303.590249"/>
     <use style="fill:#1f77b4;stroke:#1f77b4;" x="105.731964" xlink:href="#md9330a36cb" y="303.400927"/>
     <use style="fill:#1f77b4;stroke:#1f77b4;" x="108.598514" xlink:href="#md9330a36cb" y="303.111171"/>
     <use style="fill:#1f77b4;stroke:#1f77b4;" x="111.465064" xlink:href="#md9330a36cb" y="302.761669"/>
     <use style="fill:#1f77b4;stroke:#1f77b4;" x="114.331614" xlink:href="#md9330a36cb" y="302.345213"/>
     <use style="fill:#1f77b4;stroke:#1f77b4;" x="117.198165" xlink:href="#md9330a36cb" y="301.923915"/>
     <use style="fill:#1f77b4;stroke:#1f77b4;" x="120.064715" xlink:href="#md9330a36cb" y="301.495065"/>
     <use style="fill:#1f77b4;stroke:#1f77b4;" x="122.931265" xlink:href="#md9330a36cb" y="300.948236"/>
     <use style="fill:#1f77b4;stroke:#1f77b4;" x="125.797815" xlink:href="#md9330a36cb" y="300.436862"/>
     <use style="fill:#1f77b4;stroke:#1f77b4;" x="128.664366" xlink:href="#md9330a36cb" y="299.890116"/>
     <use style="fill:#1f77b4;stroke:#1f77b4;" x="131.530916" xlink:href="#md9330a36cb" y="299.203508"/>
     <use style="fill:#1f77b4;stroke:#1f77b4;" x="134.397466" xlink:href="#md9330a36cb" y="298.569098"/>
     <use style="fill:#1f77b4;stroke:#1f77b4;" x="137.264016" xlink:href="#md9330a36cb" y="298.101952"/>
     <use style="fill:#1f77b4;stroke:#1f77b4;" x="140.130567" xlink:href="#md9330a36cb" y="297.446258"/>
     <use style="fill:#1f77b4;stroke:#1f77b4;" x="142.997117" xlink:href="#md9330a36cb" y="296.384537"/>
     <use style="fill:#1f77b4;stroke:#1f77b4;" x="145.863667" xlink:href="#md9330a36cb" y="295.759938"/>
     <use style="fill:#1f77b4;stroke:#1f77b4;" x="148.730217" xlink:href="#md9330a36cb" y="295.283849"/>
     <use style="fill:#1f77b4;stroke:#1f77b4;" x="151.596768" xlink:href="#md9330a36cb" y="293.611606"/>
     <use style="fill:#1f77b4;stroke:#1f77b4;" x="154.463318" xlink:href="#md9330a36cb" y="292.768885"/>
     <use style="fill:#1f77b4;stroke:#1f77b4;" x="157.329868" xlink:href="#md9330a36cb" y="291.942157"/>
     <use style="fill:#1f77b4;stroke:#1f77b4;" x="160.196418" xlink:href="#md9330a36cb" y="290.956802"/>
     <use style="fill:#1f77b4;stroke:#1f77b4;" x="163.062969" xlink:href="#md9330a36cb" y="289.571607"/>
     <use style="fill:#1f77b4;stroke:#1f77b4;" x="165.929519" xlink:href="#md9330a36cb" y="288.129684"/>
     <use style="fill:#1f77b4;stroke:#1f77b4;" x="168.796069" xlink:href="#md9330a36cb" y="287.796612"/>
     <use style="fill:#1f77b4;stroke:#1f77b4;" x="171.662619" xlink:href="#md9330a36cb" y="286.242083"/>
     <use style="fill:#1f77b4;stroke:#1f77b4;" x="174.52917" xlink:href="#md9330a36cb" y="284.726143"/>
     <use style="fill:#1f77b4;stroke:#1f77b4;" x="177.39572" xlink:href="#md9330a36cb" y="283.71408"/>
     <use style="fill:#1f77b4;stroke:#1f77b4;" x="180.26227" xlink:href="#md9330a36cb" y="282.95125"/>
     <use style="fill:#1f77b4;stroke:#1f77b4;" x="183.12882" xlink:href="#md9330a36cb" y="280.733598"/>
     <use style="fill:#1f77b4;stroke:#1f77b4;" x="185.995371" xlink:href="#md9330a36cb" y="279.216963"/>
     <use style="fill:#1f77b4;stroke:#1f77b4;" x="188.861921" xlink:href="#md9330a36cb" y="276.993889"/>
     <use style="fill:#1f77b4;stroke:#1f77b4;" x="191.728471" xlink:href="#md9330a36cb" y="273.685912"/>
     <use style="fill:#1f77b4;stroke:#1f77b4;" x="194.595021" xlink:href="#md9330a36cb" y="272.922104"/>
     <use style="fill:#1f77b4;stroke:#1f77b4;" x="197.461572" xlink:href="#md9330a36cb" y="272.147686"/>
     <use style="fill:#1f77b4;stroke:#1f77b4;" x="200.328122" xlink:href="#md9330a36cb" y="269.140013"/>
     <use style="fill:#1f77b4;stroke:#1f77b4;" x="203.194672" xlink:href="#md9330a36cb" y="268.984009"/>
     <use style="fill:#1f77b4;stroke:#1f77b4;" x="206.061222" xlink:href="#md9330a36cb" y="266.292852"/>
     <use style="fill:#1f77b4;stroke:#1f77b4;" x="208.927773" xlink:href="#md9330a36cb" y="264.124495"/>
     <use style="fill:#1f77b4;stroke:#1f77b4;" x="211.794323" xlink:href="#md9330a36cb" y="263.357105"/>
     <use style="fill:#1f77b4;stroke:#1f77b4;" x="214.660873" xlink:href="#md9330a36cb" y="260.632609"/>
     <use style="fill:#1f77b4;stroke:#1f77b4;" x="217.527423" xlink:href="#md9330a36cb" y="259.715119"/>
     <use style="fill:#1f77b4;stroke:#1f77b4;" x="220.393974" xlink:href="#md9330a36cb" y="257.187418"/>
     <use style="fill:#1f77b4;stroke:#1f77b4;" x="223.260524" xlink:href="#md9330a36cb" y="255.162713"/>
     <use style="fill:#1f77b4;stroke:#1f77b4;" x="226.127074" xlink:href="#md9330a36cb" y="252.598656"/>
     <use style="fill:#1f77b4;stroke:#1f77b4;" x="228.993624" xlink:href="#md9330a36cb" y="251.901501"/>
     <use style="fill:#1f77b4;stroke:#1f77b4;" x="231.860175" xlink:href="#md9330a36cb" y="249.97779"/>
     <use style="fill:#1f77b4;stroke:#1f77b4;" x="234.726725" xlink:href="#md9330a36cb" y="246.374107"/>
     <use style="fill:#1f77b4;stroke:#1f77b4;" x="237.593275" xlink:href="#md9330a36cb" y="245.061387"/>
     <use style="fill:#1f77b4;stroke:#1f77b4;" x="240.459825" xlink:href="#md9330a36cb" y="243.546401"/>
     <use style="fill:#1f77b4;stroke:#1f77b4;" x="243.326376" xlink:href="#md9330a36cb" y="240.730434"/>
     <use style="fill:#1f77b4;stroke:#1f77b4;" x="246.192926" xlink:href="#md9330a36cb" y="238.308798"/>
     <use style="fill:#1f77b4;stroke:#1f77b4;" x="249.059476" xlink:href="#md9330a36cb" y="236.117999"/>
     <use style="fill:#1f77b4;stroke:#1f77b4;" x="251.926026" xlink:href="#md9330a36cb" y="234.311281"/>
     <use style="fill:#1f77b4;stroke:#1f77b4;" x="254.792577" xlink:href="#md9330a36cb" y="231.782861"/>
     <use style="fill:#1f77b4;stroke:#1f77b4;" x="257.659127" xlink:href="#md9330a36cb" y="228.845934"/>
     <use style="fill:#1f77b4;stroke:#1f77b4;" x="260.525677" xlink:href="#md9330a36cb" y="223.740415"/>
     <use style="fill:#1f77b4;stroke:#1f77b4;" x="263.392227" xlink:href="#md9330a36cb" y="222.515127"/>
     <use style="fill:#1f77b4;stroke:#1f77b4;" x="266.258778" xlink:href="#md9330a36cb" y="221.816896"/>
     <use style="fill:#1f77b4;stroke:#1f77b4;" x="269.125328" xlink:href="#md9330a36cb" y="219.899539"/>
     <use style="fill:#1f77b4;stroke:#1f77b4;" x="271.991878" xlink:href="#md9330a36cb" y="217.331141"/>
     <use style="fill:#1f77b4;stroke:#1f77b4;" x="274.858428" xlink:href="#md9330a36cb" y="213.1744"/>
     <use style="fill:#1f77b4;stroke:#1f77b4;" x="277.724979" xlink:href="#md9330a36cb" y="212.577649"/>
     <use style="fill:#1f77b4;stroke:#1f77b4;" x="280.591529" xlink:href="#md9330a36cb" y="206.770489"/>
     <use style="fill:#1f77b4;stroke:#1f77b4;" x="283.458079" xlink:href="#md9330a36cb" y="200.103347"/>
     <use style="fill:#1f77b4;stroke:#1f77b4;" x="286.324629" xlink:href="#md9330a36cb" y="200.152207"/>
     <use style="fill:#1f77b4;stroke:#1f77b4;" x="289.19118" xlink:href="#md9330a36cb" y="198.560387"/>
     <use style="fill:#1f77b4;stroke:#1f77b4;" x="292.05773" xlink:href="#md9330a36cb" y="195.341479"/>
     <use style="fill:#1f77b4;stroke:#1f77b4;" x="294.92428" xlink:href="#md9330a36cb" y="191.474357"/>
     <use style="fill:#1f77b4;stroke:#1f77b4;" x="297.79083" xlink:href="#md9330a36cb" y="188.513601"/>
     <use style="fill:#1f77b4;stroke:#1f77b4;" x="300.657381" xlink:href="#md9330a36cb" y="185.444038"/>
     <use style="fill:#1f77b4;stroke:#1f77b4;" x="303.523931" xlink:href="#md9330a36cb" y="180.118657"/>
     <use style="fill:#1f77b4;stroke:#1f77b4;" x="306.390481" xlink:href="#md9330a36cb" y="178.435234"/>
     <use style="fill:#1f77b4;stroke:#1f77b4;" x="309.257031" xlink:href="#md9330a36cb" y="170.010798"/>
     <use style="fill:#1f77b4;stroke:#1f77b4;" x="312.123582" xlink:href="#md9330a36cb" y="167.555713"/>
     <use style="fill:#1f77b4;stroke:#1f77b4;" x="314.990132" xlink:href="#md9330a36cb" y="163.877239"/>
     <use style="fill:#1f77b4;stroke:#1f77b4;" x="317.856682" xlink:href="#md9330a36cb" y="161.416382"/>
     <use style="fill:#1f77b4;stroke:#1f77b4;" x="320.723232" xlink:href="#md9330a36cb" y="155.438986"/>
     <use style="fill:#1f77b4;stroke:#1f77b4;" x="323.589783" xlink:href="#md9330a36cb" y="153.35133"/>
     <use style="fill:#1f77b4;stroke:#1f77b4;" x="326.456333" xlink:href="#md9330a36cb" y="149.636383"/>
     <use style="fill:#1f77b4;stroke:#1f77b4;" x="329.322883" xlink:href="#md9330a36cb" y="145.687863"/>
     <use style="fill:#1f77b4;stroke:#1f77b4;" x="332.189433" xlink:href="#md9330a36cb" y="140.046969"/>
     <use style="fill:#1f77b4;stroke:#1f77b4;" x="335.055984" xlink:href="#md9330a36cb" y="139.592574"/>
     <use style="fill:#1f77b4;stroke:#1f77b4;" x="337.922534" xlink:href="#md9330a36cb" y="133.431886"/>
     <use style="fill:#1f77b4;stroke:#1f77b4;" x="340.789084" xlink:href="#md9330a36cb" y="128.658913"/>
     <use style="fill:#1f77b4;stroke:#1f77b4;" x="343.655634" xlink:href="#md9330a36cb" y="121.390084"/>
     <use style="fill:#1f77b4;stroke:#1f77b4;" x="346.522185" xlink:href="#md9330a36cb" y="120.404833"/>
     <use style="fill:#1f77b4;stroke:#1f77b4;" x="349.388735" xlink:href="#md9330a36cb" y="115.713553"/>
     <use style="fill:#1f77b4;stroke:#1f77b4;" x="352.255285" xlink:href="#md9330a36cb" y="116.109946"/>
     <use style="fill:#1f77b4;stroke:#1f77b4;" x="355.121835" xlink:href="#md9330a36cb" y="112.11301"/>
     <use style="fill:#1f77b4;stroke:#1f77b4;" x="357.988386" xlink:href="#md9330a36cb" y="101.099301"/>
     <use style="fill:#1f77b4;stroke:#1f77b4;" x="360.854936" xlink:href="#md9330a36cb" y="105.215065"/>
     <use style="fill:#1f77b4;stroke:#1f77b4;" x="363.721486" xlink:href="#md9330a36cb" y="102.308972"/>
     <use style="fill:#1f77b4;stroke:#1f77b4;" x="366.588036" xlink:href="#md9330a36cb" y="94.005504"/>
     <use style="fill:#1f77b4;stroke:#1f77b4;" x="369.454587" xlink:href="#md9330a36cb" y="92.684302"/>
     <use style="fill:#1f77b4;stroke:#1f77b4;" x="372.321137" xlink:href="#md9330a36cb" y="82.634766"/>
     <use style="fill:#1f77b4;stroke:#1f77b4;" x="375.187687" xlink:href="#md9330a36cb" y="78.054776"/>
     <use style="fill:#1f77b4;stroke:#1f77b4;" x="378.054237" xlink:href="#md9330a36cb" y="72.873849"/>
    </g>
   </g>
   <g id="matplotlib.axis_1">
    <g id="xtick_1">
     <g id="line2d_1">
      <defs>
       <path d="M 0 0 
L 0 3.5 
" id="m9eb896563f" style="stroke:#000000;stroke-width:0.8;"/>
      </defs>
      <g>
       <use style="stroke:#000000;stroke-width:0.8;" x="94.265763" xlink:href="#m9eb896563f" y="307.584"/>
      </g>
     </g>
     <g id="text_1">
      <!-- 0.00 -->
      <defs>
       <path d="M 31.78125 66.40625 
Q 24.171875 66.40625 20.328125 58.90625 
Q 16.5 51.421875 16.5 36.375 
Q 16.5 21.390625 20.328125 13.890625 
Q 24.171875 6.390625 31.78125 6.390625 
Q 39.453125 6.390625 43.28125 13.890625 
Q 47.125 21.390625 47.125 36.375 
Q 47.125 51.421875 43.28125 58.90625 
Q 39.453125 66.40625 31.78125 66.40625 
M 31.78125 74.21875 
Q 44.046875 74.21875 50.515625 64.515625 
Q 56.984375 54.828125 56.984375 36.375 
Q 56.984375 17.96875 50.515625 8.265625 
Q 44.046875 -1.421875 31.78125 -1.421875 
Q 19.53125 -1.421875 13.0625 8.265625 
Q 6.59375 17.96875 6.59375 36.375 
Q 6.59375 54.828125 13.0625 64.515625 
Q 19.53125 74.21875 31.78125 74.21875 
" id="DejaVuSans-30"/>
       <path d="M 10.6875 12.40625 
L 21 12.40625 
L 21 0 
L 10.6875 0 
z
" id="DejaVuSans-2e"/>
      </defs>
      <g transform="translate(83.13295 322.182437)scale(0.1 -0.1)">
       <use xlink:href="#DejaVuSans-30"/>
       <use x="63.623047" xlink:href="#DejaVuSans-2e"/>
       <use x="95.410156" xlink:href="#DejaVuSans-30"/>
       <use x="159.033203" xlink:href="#DejaVuSans-30"/>
      </g>
     </g>
    </g>
    <g id="xtick_2">
     <g id="line2d_2">
      <g>
       <use style="stroke:#000000;stroke-width:0.8;" x="151.596768" xlink:href="#m9eb896563f" y="307.584"/>
      </g>
     </g>
     <g id="text_2">
      <!-- 0.02 -->
      <defs>
       <path d="M 19.1875 8.296875 
L 53.609375 8.296875 
L 53.609375 0 
L 7.328125 0 
L 7.328125 8.296875 
Q 12.9375 14.109375 22.625 23.890625 
Q 32.328125 33.6875 34.8125 36.53125 
Q 39.546875 41.84375 41.421875 45.53125 
Q 43.3125 49.21875 43.3125 52.78125 
Q 43.3125 58.59375 39.234375 62.25 
Q 35.15625 65.921875 28.609375 65.921875 
Q 23.96875 65.921875 18.8125 64.3125 
Q 13.671875 62.703125 7.8125 59.421875 
L 7.8125 69.390625 
Q 13.765625 71.78125 18.9375 73 
Q 24.125 74.21875 28.421875 74.21875 
Q 39.75 74.21875 46.484375 68.546875 
Q 53.21875 62.890625 53.21875 53.421875 
Q 53.21875 48.921875 51.53125 44.890625 
Q 49.859375 40.875 45.40625 35.40625 
Q 44.1875 33.984375 37.640625 27.21875 
Q 31.109375 20.453125 19.1875 8.296875 
" id="DejaVuSans-32"/>
      </defs>
      <g transform="translate(140.463955 322.182437)scale(0.1 -0.1)">
       <use xlink:href="#DejaVuSans-30"/>
       <use x="63.623047" xlink:href="#DejaVuSans-2e"/>
       <use x="95.410156" xlink:href="#DejaVuSans-30"/>
       <use x="159.033203" xlink:href="#DejaVuSans-32"/>
      </g>
     </g>
    </g>
    <g id="xtick_3">
     <g id="line2d_3">
      <g>
       <use style="stroke:#000000;stroke-width:0.8;" x="208.927773" xlink:href="#m9eb896563f" y="307.584"/>
      </g>
     </g>
     <g id="text_3">
      <!-- 0.04 -->
      <defs>
       <path d="M 37.796875 64.3125 
L 12.890625 25.390625 
L 37.796875 25.390625 
z
M 35.203125 72.90625 
L 47.609375 72.90625 
L 47.609375 25.390625 
L 58.015625 25.390625 
L 58.015625 17.1875 
L 47.609375 17.1875 
L 47.609375 0 
L 37.796875 0 
L 37.796875 17.1875 
L 4.890625 17.1875 
L 4.890625 26.703125 
z
" id="DejaVuSans-34"/>
      </defs>
      <g transform="translate(197.79496 322.182437)scale(0.1 -0.1)">
       <use xlink:href="#DejaVuSans-30"/>
       <use x="63.623047" xlink:href="#DejaVuSans-2e"/>
       <use x="95.410156" xlink:href="#DejaVuSans-30"/>
       <use x="159.033203" xlink:href="#DejaVuSans-34"/>
      </g>
     </g>
    </g>
    <g id="xtick_4">
     <g id="line2d_4">
      <g>
       <use style="stroke:#000000;stroke-width:0.8;" x="266.258778" xlink:href="#m9eb896563f" y="307.584"/>
      </g>
     </g>
     <g id="text_4">
      <!-- 0.06 -->
      <defs>
       <path d="M 33.015625 40.375 
Q 26.375 40.375 22.484375 35.828125 
Q 18.609375 31.296875 18.609375 23.390625 
Q 18.609375 15.53125 22.484375 10.953125 
Q 26.375 6.390625 33.015625 6.390625 
Q 39.65625 6.390625 43.53125 10.953125 
Q 47.40625 15.53125 47.40625 23.390625 
Q 47.40625 31.296875 43.53125 35.828125 
Q 39.65625 40.375 33.015625 40.375 
M 52.59375 71.296875 
L 52.59375 62.3125 
Q 48.875 64.0625 45.09375 64.984375 
Q 41.3125 65.921875 37.59375 65.921875 
Q 27.828125 65.921875 22.671875 59.328125 
Q 17.53125 52.734375 16.796875 39.40625 
Q 19.671875 43.65625 24.015625 45.921875 
Q 28.375 48.1875 33.59375 48.1875 
Q 44.578125 48.1875 50.953125 41.515625 
Q 57.328125 34.859375 57.328125 23.390625 
Q 57.328125 12.15625 50.6875 5.359375 
Q 44.046875 -1.421875 33.015625 -1.421875 
Q 20.359375 -1.421875 13.671875 8.265625 
Q 6.984375 17.96875 6.984375 36.375 
Q 6.984375 53.65625 15.1875 63.9375 
Q 23.390625 74.21875 37.203125 74.21875 
Q 40.921875 74.21875 44.703125 73.484375 
Q 48.484375 72.75 52.59375 71.296875 
" id="DejaVuSans-36"/>
      </defs>
      <g transform="translate(255.125965 322.182437)scale(0.1 -0.1)">
       <use xlink:href="#DejaVuSans-30"/>
       <use x="63.623047" xlink:href="#DejaVuSans-2e"/>
       <use x="95.410156" xlink:href="#DejaVuSans-30"/>
       <use x="159.033203" xlink:href="#DejaVuSans-36"/>
      </g>
     </g>
    </g>
    <g id="xtick_5">
     <g id="line2d_5">
      <g>
       <use style="stroke:#000000;stroke-width:0.8;" x="323.589783" xlink:href="#m9eb896563f" y="307.584"/>
      </g>
     </g>
     <g id="text_5">
      <!-- 0.08 -->
      <defs>
       <path d="M 31.78125 34.625 
Q 24.75 34.625 20.71875 30.859375 
Q 16.703125 27.09375 16.703125 20.515625 
Q 16.703125 13.921875 20.71875 10.15625 
Q 24.75 6.390625 31.78125 6.390625 
Q 38.8125 6.390625 42.859375 10.171875 
Q 46.921875 13.96875 46.921875 20.515625 
Q 46.921875 27.09375 42.890625 30.859375 
Q 38.875 34.625 31.78125 34.625 
M 21.921875 38.8125 
Q 15.578125 40.375 12.03125 44.71875 
Q 8.5 49.078125 8.5 55.328125 
Q 8.5 64.0625 14.71875 69.140625 
Q 20.953125 74.21875 31.78125 74.21875 
Q 42.671875 74.21875 48.875 69.140625 
Q 55.078125 64.0625 55.078125 55.328125 
Q 55.078125 49.078125 51.53125 44.71875 
Q 48 40.375 41.703125 38.8125 
Q 48.828125 37.15625 52.796875 32.3125 
Q 56.78125 27.484375 56.78125 20.515625 
Q 56.78125 9.90625 50.3125 4.234375 
Q 43.84375 -1.421875 31.78125 -1.421875 
Q 19.734375 -1.421875 13.25 4.234375 
Q 6.78125 9.90625 6.78125 20.515625 
Q 6.78125 27.484375 10.78125 32.3125 
Q 14.796875 37.15625 21.921875 38.8125 
M 18.3125 54.390625 
Q 18.3125 48.734375 21.84375 45.5625 
Q 25.390625 42.390625 31.78125 42.390625 
Q 38.140625 42.390625 41.71875 45.5625 
Q 45.3125 48.734375 45.3125 54.390625 
Q 45.3125 60.0625 41.71875 63.234375 
Q 38.140625 66.40625 31.78125 66.40625 
Q 25.390625 66.40625 21.84375 63.234375 
Q 18.3125 60.0625 18.3125 54.390625 
" id="DejaVuSans-38"/>
      </defs>
      <g transform="translate(312.45697 322.182437)scale(0.1 -0.1)">
       <use xlink:href="#DejaVuSans-30"/>
       <use x="63.623047" xlink:href="#DejaVuSans-2e"/>
       <use x="95.410156" xlink:href="#DejaVuSans-30"/>
       <use x="159.033203" xlink:href="#DejaVuSans-38"/>
      </g>
     </g>
    </g>
    <g id="xtick_6">
     <g id="line2d_6">
      <g>
       <use style="stroke:#000000;stroke-width:0.8;" x="380.920788" xlink:href="#m9eb896563f" y="307.584"/>
      </g>
     </g>
     <g id="text_6">
      <!-- 0.10 -->
      <defs>
       <path d="M 12.40625 8.296875 
L 28.515625 8.296875 
L 28.515625 63.921875 
L 10.984375 60.40625 
L 10.984375 69.390625 
L 28.421875 72.90625 
L 38.28125 72.90625 
L 38.28125 8.296875 
L 54.390625 8.296875 
L 54.390625 0 
L 12.40625 0 
z
" id="DejaVuSans-31"/>
      </defs>
      <g transform="translate(369.787975 322.182437)scale(0.1 -0.1)">
       <use xlink:href="#DejaVuSans-30"/>
       <use x="63.623047" xlink:href="#DejaVuSans-2e"/>
       <use x="95.410156" xlink:href="#DejaVuSans-31"/>
       <use x="159.033203" xlink:href="#DejaVuSans-30"/>
      </g>
     </g>
    </g>
    <g id="text_7">
     <!-- Wiat Time -->
     <defs>
      <path d="M 3.328125 72.90625 
L 13.28125 72.90625 
L 28.609375 11.28125 
L 43.890625 72.90625 
L 54.984375 72.90625 
L 70.3125 11.28125 
L 85.59375 72.90625 
L 95.609375 72.90625 
L 77.296875 0 
L 64.890625 0 
L 49.515625 63.28125 
L 33.984375 0 
L 21.578125 0 
z
" id="DejaVuSans-57"/>
      <path d="M 9.421875 54.6875 
L 18.40625 54.6875 
L 18.40625 0 
L 9.421875 0 
z
M 9.421875 75.984375 
L 18.40625 75.984375 
L 18.40625 64.59375 
L 9.421875 64.59375 
z
" id="DejaVuSans-69"/>
      <path d="M 34.28125 27.484375 
Q 23.390625 27.484375 19.1875 25 
Q 14.984375 22.515625 14.984375 16.5 
Q 14.984375 11.71875 18.140625 8.90625 
Q 21.296875 6.109375 26.703125 6.109375 
Q 34.1875 6.109375 38.703125 11.40625 
Q 43.21875 16.703125 43.21875 25.484375 
L 43.21875 27.484375 
z
M 52.203125 31.203125 
L 52.203125 0 
L 43.21875 0 
L 43.21875 8.296875 
Q 40.140625 3.328125 35.546875 0.953125 
Q 30.953125 -1.421875 24.3125 -1.421875 
Q 15.921875 -1.421875 10.953125 3.296875 
Q 6 8.015625 6 15.921875 
Q 6 25.140625 12.171875 29.828125 
Q 18.359375 34.515625 30.609375 34.515625 
L 43.21875 34.515625 
L 43.21875 35.40625 
Q 43.21875 41.609375 39.140625 45 
Q 35.0625 48.390625 27.6875 48.390625 
Q 23 48.390625 18.546875 47.265625 
Q 14.109375 46.140625 10.015625 43.890625 
L 10.015625 52.203125 
Q 14.9375 54.109375 19.578125 55.046875 
Q 24.21875 56 28.609375 56 
Q 40.484375 56 46.34375 49.84375 
Q 52.203125 43.703125 52.203125 31.203125 
" id="DejaVuSans-61"/>
      <path d="M 18.3125 70.21875 
L 18.3125 54.6875 
L 36.8125 54.6875 
L 36.8125 47.703125 
L 18.3125 47.703125 
L 18.3125 18.015625 
Q 18.3125 11.328125 20.140625 9.421875 
Q 21.96875 7.515625 27.59375 7.515625 
L 36.8125 7.515625 
L 36.8125 0 
L 27.59375 0 
Q 17.1875 0 13.234375 3.875 
Q 9.28125 7.765625 9.28125 18.015625 
L 9.28125 47.703125 
L 2.6875 47.703125 
L 2.6875 54.6875 
L 9.28125 54.6875 
L 9.28125 70.21875 
z
" id="DejaVuSans-74"/>
      <path id="DejaVuSans-20"/>
      <path d="M -0.296875 72.90625 
L 61.375 72.90625 
L 61.375 64.59375 
L 35.5 64.59375 
L 35.5 0 
L 25.59375 0 
L 25.59375 64.59375 
L -0.296875 64.59375 
z
" id="DejaVuSans-54"/>
      <path d="M 52 44.1875 
Q 55.375 50.25 60.0625 53.125 
Q 64.75 56 71.09375 56 
Q 79.640625 56 84.28125 50.015625 
Q 88.921875 44.046875 88.921875 33.015625 
L 88.921875 0 
L 79.890625 0 
L 79.890625 32.71875 
Q 79.890625 40.578125 77.09375 44.375 
Q 74.3125 48.1875 68.609375 48.1875 
Q 61.625 48.1875 57.5625 43.546875 
Q 53.515625 38.921875 53.515625 30.90625 
L 53.515625 0 
L 44.484375 0 
L 44.484375 32.71875 
Q 44.484375 40.625 41.703125 44.40625 
Q 38.921875 48.1875 33.109375 48.1875 
Q 26.21875 48.1875 22.15625 43.53125 
Q 18.109375 38.875 18.109375 30.90625 
L 18.109375 0 
L 9.078125 0 
L 9.078125 54.6875 
L 18.109375 54.6875 
L 18.109375 46.1875 
Q 21.1875 51.21875 25.484375 53.609375 
Q 29.78125 56 35.6875 56 
Q 41.65625 56 45.828125 52.96875 
Q 50 49.953125 52 44.1875 
" id="DejaVuSans-6d"/>
      <path d="M 56.203125 29.59375 
L 56.203125 25.203125 
L 14.890625 25.203125 
Q 15.484375 15.921875 20.484375 11.0625 
Q 25.484375 6.203125 34.421875 6.203125 
Q 39.59375 6.203125 44.453125 7.46875 
Q 49.3125 8.734375 54.109375 11.28125 
L 54.109375 2.78125 
Q 49.265625 0.734375 44.1875 -0.34375 
Q 39.109375 -1.421875 33.890625 -1.421875 
Q 20.796875 -1.421875 13.15625 6.1875 
Q 5.515625 13.8125 5.515625 26.8125 
Q 5.515625 40.234375 12.765625 48.109375 
Q 20.015625 56 32.328125 56 
Q 43.359375 56 49.78125 48.890625 
Q 56.203125 41.796875 56.203125 29.59375 
M 47.21875 32.234375 
Q 47.125 39.59375 43.09375 43.984375 
Q 39.0625 48.390625 32.421875 48.390625 
Q 24.90625 48.390625 20.390625 44.140625 
Q 15.875 39.890625 15.1875 32.171875 
z
" id="DejaVuSans-65"/>
     </defs>
     <g transform="translate(210.827969 335.860562)scale(0.1 -0.1)">
      <use xlink:href="#DejaVuSans-57"/>
      <use x="98.845703" xlink:href="#DejaVuSans-69"/>
      <use x="126.628906" xlink:href="#DejaVuSans-61"/>
      <use x="187.908203" xlink:href="#DejaVuSans-74"/>
      <use x="227.117188" xlink:href="#DejaVuSans-20"/>
      <use x="258.904297" xlink:href="#DejaVuSans-54"/>
      <use x="319.941406" xlink:href="#DejaVuSans-69"/>
      <use x="347.724609" xlink:href="#DejaVuSans-6d"/>
      <use x="445.136719" xlink:href="#DejaVuSans-65"/>
     </g>
    </g>
   </g>
   <g id="matplotlib.axis_2">
    <g id="ytick_1">
     <g id="line2d_7">
      <defs>
       <path d="M 0 0 
L -3.5 0 
" id="mbb2122552d" style="stroke:#000000;stroke-width:0.8;"/>
      </defs>
      <g>
       <use style="stroke:#000000;stroke-width:0.8;" x="57.6" xlink:href="#mbb2122552d" y="307.584"/>
      </g>
     </g>
     <g id="text_8">
      <!-- 0.000 -->
      <g transform="translate(21.971875 311.383219)scale(0.1 -0.1)">
       <use xlink:href="#DejaVuSans-30"/>
       <use x="63.623047" xlink:href="#DejaVuSans-2e"/>
       <use x="95.410156" xlink:href="#DejaVuSans-30"/>
       <use x="159.033203" xlink:href="#DejaVuSans-30"/>
       <use x="222.65625" xlink:href="#DejaVuSans-30"/>
      </g>
     </g>
    </g>
    <g id="ytick_2">
     <g id="line2d_8">
      <g>
       <use style="stroke:#000000;stroke-width:0.8;" x="57.6" xlink:href="#mbb2122552d" y="272.1024"/>
      </g>
     </g>
     <g id="text_9">
      <!-- 0.002 -->
      <g transform="translate(21.971875 275.901619)scale(0.1 -0.1)">
       <use xlink:href="#DejaVuSans-30"/>
       <use x="63.623047" xlink:href="#DejaVuSans-2e"/>
       <use x="95.410156" xlink:href="#DejaVuSans-30"/>
       <use x="159.033203" xlink:href="#DejaVuSans-30"/>
       <use x="222.65625" xlink:href="#DejaVuSans-32"/>
      </g>
     </g>
    </g>
    <g id="ytick_3">
     <g id="line2d_9">
      <g>
       <use style="stroke:#000000;stroke-width:0.8;" x="57.6" xlink:href="#mbb2122552d" y="236.6208"/>
      </g>
     </g>
     <g id="text_10">
      <!-- 0.004 -->
      <g transform="translate(21.971875 240.420019)scale(0.1 -0.1)">
       <use xlink:href="#DejaVuSans-30"/>
       <use x="63.623047" xlink:href="#DejaVuSans-2e"/>
       <use x="95.410156" xlink:href="#DejaVuSans-30"/>
       <use x="159.033203" xlink:href="#DejaVuSans-30"/>
       <use x="222.65625" xlink:href="#DejaVuSans-34"/>
      </g>
     </g>
    </g>
    <g id="ytick_4">
     <g id="line2d_10">
      <g>
       <use style="stroke:#000000;stroke-width:0.8;" x="57.6" xlink:href="#mbb2122552d" y="201.1392"/>
      </g>
     </g>
     <g id="text_11">
      <!-- 0.006 -->
      <g transform="translate(21.971875 204.938419)scale(0.1 -0.1)">
       <use xlink:href="#DejaVuSans-30"/>
       <use x="63.623047" xlink:href="#DejaVuSans-2e"/>
       <use x="95.410156" xlink:href="#DejaVuSans-30"/>
       <use x="159.033203" xlink:href="#DejaVuSans-30"/>
       <use x="222.65625" xlink:href="#DejaVuSans-36"/>
      </g>
     </g>
    </g>
    <g id="ytick_5">
     <g id="line2d_11">
      <g>
       <use style="stroke:#000000;stroke-width:0.8;" x="57.6" xlink:href="#mbb2122552d" y="165.6576"/>
      </g>
     </g>
     <g id="text_12">
      <!-- 0.008 -->
      <g transform="translate(21.971875 169.456819)scale(0.1 -0.1)">
       <use xlink:href="#DejaVuSans-30"/>
       <use x="63.623047" xlink:href="#DejaVuSans-2e"/>
       <use x="95.410156" xlink:href="#DejaVuSans-30"/>
       <use x="159.033203" xlink:href="#DejaVuSans-30"/>
       <use x="222.65625" xlink:href="#DejaVuSans-38"/>
      </g>
     </g>
    </g>
    <g id="ytick_6">
     <g id="line2d_12">
      <g>
       <use style="stroke:#000000;stroke-width:0.8;" x="57.6" xlink:href="#mbb2122552d" y="130.176"/>
      </g>
     </g>
     <g id="text_13">
      <!-- 0.010 -->
      <g transform="translate(21.971875 133.975219)scale(0.1 -0.1)">
       <use xlink:href="#DejaVuSans-30"/>
       <use x="63.623047" xlink:href="#DejaVuSans-2e"/>
       <use x="95.410156" xlink:href="#DejaVuSans-30"/>
       <use x="159.033203" xlink:href="#DejaVuSans-31"/>
       <use x="222.65625" xlink:href="#DejaVuSans-30"/>
      </g>
     </g>
    </g>
    <g id="ytick_7">
     <g id="line2d_13">
      <g>
       <use style="stroke:#000000;stroke-width:0.8;" x="57.6" xlink:href="#mbb2122552d" y="94.6944"/>
      </g>
     </g>
     <g id="text_14">
      <!-- 0.012 -->
      <g transform="translate(21.971875 98.493619)scale(0.1 -0.1)">
       <use xlink:href="#DejaVuSans-30"/>
       <use x="63.623047" xlink:href="#DejaVuSans-2e"/>
       <use x="95.410156" xlink:href="#DejaVuSans-30"/>
       <use x="159.033203" xlink:href="#DejaVuSans-31"/>
       <use x="222.65625" xlink:href="#DejaVuSans-32"/>
      </g>
     </g>
    </g>
    <g id="ytick_8">
     <g id="line2d_14">
      <g>
       <use style="stroke:#000000;stroke-width:0.8;" x="57.6" xlink:href="#mbb2122552d" y="59.2128"/>
      </g>
     </g>
     <g id="text_15">
      <!-- 0.014 -->
      <g transform="translate(21.971875 63.012019)scale(0.1 -0.1)">
       <use xlink:href="#DejaVuSans-30"/>
       <use x="63.623047" xlink:href="#DejaVuSans-2e"/>
       <use x="95.410156" xlink:href="#DejaVuSans-30"/>
       <use x="159.033203" xlink:href="#DejaVuSans-31"/>
       <use x="222.65625" xlink:href="#DejaVuSans-34"/>
      </g>
     </g>
    </g>
    <g id="text_16">
     <!-- Parity Error -->
     <defs>
      <path d="M 19.671875 64.796875 
L 19.671875 37.40625 
L 32.078125 37.40625 
Q 38.96875 37.40625 42.71875 40.96875 
Q 46.484375 44.53125 46.484375 51.125 
Q 46.484375 57.671875 42.71875 61.234375 
Q 38.96875 64.796875 32.078125 64.796875 
z
M 9.8125 72.90625 
L 32.078125 72.90625 
Q 44.34375 72.90625 50.609375 67.359375 
Q 56.890625 61.8125 56.890625 51.125 
Q 56.890625 40.328125 50.609375 34.8125 
Q 44.34375 29.296875 32.078125 29.296875 
L 19.671875 29.296875 
L 19.671875 0 
L 9.8125 0 
z
" id="DejaVuSans-50"/>
      <path d="M 41.109375 46.296875 
Q 39.59375 47.171875 37.8125 47.578125 
Q 36.03125 48 33.890625 48 
Q 26.265625 48 22.1875 43.046875 
Q 18.109375 38.09375 18.109375 28.8125 
L 18.109375 0 
L 9.078125 0 
L 9.078125 54.6875 
L 18.109375 54.6875 
L 18.109375 46.1875 
Q 20.953125 51.171875 25.484375 53.578125 
Q 30.03125 56 36.53125 56 
Q 37.453125 56 38.578125 55.875 
Q 39.703125 55.765625 41.0625 55.515625 
z
" id="DejaVuSans-72"/>
      <path d="M 32.171875 -5.078125 
Q 28.375 -14.84375 24.75 -17.8125 
Q 21.140625 -20.796875 15.09375 -20.796875 
L 7.90625 -20.796875 
L 7.90625 -13.28125 
L 13.1875 -13.28125 
Q 16.890625 -13.28125 18.9375 -11.515625 
Q 21 -9.765625 23.484375 -3.21875 
L 25.09375 0.875 
L 2.984375 54.6875 
L 12.5 54.6875 
L 29.59375 11.921875 
L 46.6875 54.6875 
L 56.203125 54.6875 
z
" id="DejaVuSans-79"/>
      <path d="M 9.8125 72.90625 
L 55.90625 72.90625 
L 55.90625 64.59375 
L 19.671875 64.59375 
L 19.671875 43.015625 
L 54.390625 43.015625 
L 54.390625 34.71875 
L 19.671875 34.71875 
L 19.671875 8.296875 
L 56.78125 8.296875 
L 56.78125 0 
L 9.8125 0 
z
" id="DejaVuSans-45"/>
      <path d="M 30.609375 48.390625 
Q 23.390625 48.390625 19.1875 42.75 
Q 14.984375 37.109375 14.984375 27.296875 
Q 14.984375 17.484375 19.15625 11.84375 
Q 23.34375 6.203125 30.609375 6.203125 
Q 37.796875 6.203125 41.984375 11.859375 
Q 46.1875 17.53125 46.1875 27.296875 
Q 46.1875 37.015625 41.984375 42.703125 
Q 37.796875 48.390625 30.609375 48.390625 
M 30.609375 56 
Q 42.328125 56 49.015625 48.375 
Q 55.71875 40.765625 55.71875 27.296875 
Q 55.71875 13.875 49.015625 6.21875 
Q 42.328125 -1.421875 30.609375 -1.421875 
Q 18.84375 -1.421875 12.171875 6.21875 
Q 5.515625 13.875 5.515625 27.296875 
Q 5.515625 40.765625 12.171875 48.375 
Q 18.84375 56 30.609375 56 
" id="DejaVuSans-6f"/>
     </defs>
     <g transform="translate(15.892187 202.939719)rotate(-90)scale(0.1 -0.1)">
      <use xlink:href="#DejaVuSans-50"/>
      <use x="60.240234" xlink:href="#DejaVuSans-61"/>
      <use x="121.519531" xlink:href="#DejaVuSans-72"/>
      <use x="162.632812" xlink:href="#DejaVuSans-69"/>
      <use x="190.416016" xlink:href="#DejaVuSans-74"/>
      <use x="229.625" xlink:href="#DejaVuSans-79"/>
      <use x="288.804688" xlink:href="#DejaVuSans-20"/>
      <use x="320.591797" xlink:href="#DejaVuSans-45"/>
      <use x="383.775391" xlink:href="#DejaVuSans-72"/>
      <use x="424.873047" xlink:href="#DejaVuSans-72"/>
      <use x="465.955078" xlink:href="#DejaVuSans-6f"/>
      <use x="527.136719" xlink:href="#DejaVuSans-72"/>
     </g>
    </g>
   </g>
   <g id="patch_3">
    <path d="M 57.6 307.584 
L 57.6 41.472 
" style="fill:none;stroke:#000000;stroke-linecap:square;stroke-linejoin:miter;stroke-width:0.8;"/>
   </g>
   <g id="patch_4">
    <path d="M 414.72 307.584 
L 414.72 41.472 
" style="fill:none;stroke:#000000;stroke-linecap:square;stroke-linejoin:miter;stroke-width:0.8;"/>
   </g>
   <g id="patch_5">
    <path d="M 57.6 307.584 
L 414.72 307.584 
" style="fill:none;stroke:#000000;stroke-linecap:square;stroke-linejoin:miter;stroke-width:0.8;"/>
   </g>
   <g id="patch_6">
    <path d="M 57.6 41.472 
L 414.72 41.472 
" style="fill:none;stroke:#000000;stroke-linecap:square;stroke-linejoin:miter;stroke-width:0.8;"/>
   </g>
  </g>
 </g>
 <defs>
  <clipPath id="p7298824525">
   <rect height="266.112" width="357.12" x="57.6" y="41.472"/>
  </clipPath>
 </defs>
</svg>
