<?xml version="1.0" encoding="utf-8" standalone="no"?>
<!DOCTYPE svg PUBLIC "-//W3C//DTD SVG 1.1//EN"
  "http://www.w3.org/Graphics/SVG/1.1/DTD/svg11.dtd">
<!-- Created with matplotlib (http://matplotlib.org/) -->
<svg height="345pt" version="1.1" viewBox="0 0 460 345" width="460pt" xmlns="http://www.w3.org/2000/svg" xmlns:xlink="http://www.w3.org/1999/xlink">
 <defs>
  <style type="text/css">
*{stroke-linecap:butt;stroke-linejoin:round;}
  </style>
 </defs>
 <g id="figure_1">
  <g id="patch_1">
   <path d="M 0 345.6 
L 460.8 345.6 
L 460.8 0 
L 0 0 
z
" style="fill:#ffffff;"/>
  </g>
  <g id="axes_1">
   <g id="patch_2">
    <path d="M 57.6 307.584 
L 414.72 307.584 
L 414.72 41.472 
L 57.6 41.472 
z
" style="fill:#ffffff;"/>
   </g>
   <g id="PathCollection_1">
    <defs>
     <path d="M 0 3.535534 
C 0.937635 3.535534 1.836992 3.163008 2.5 2.5 
C 3.163008 1.836992 3.535534 0.937635 3.535534 0 
C 3.535534 -0.937635 3.163008 -1.836992 2.5 -2.5 
C 1.836992 -3.163008 0.937635 -3.535534 0 -3.535534 
C -0.937635 -3.535534 -1.836992 -3.163008 -2.5 -2.5 
C -3.163008 -1.836992 -3.535534 -0.937635 -3.535534 0 
C -3.535534 0.937635 -3.163008 1.836992 -2.5 2.5 
C -1.836992 3.163008 -0.937635 3.535534 0 3.535534 
z
" id="md434c94da2" style="stroke:#1f77b4;"/>
    </defs>
    <g clip-path="url(#p5b4183dc16)">
     <use style="fill:#1f77b4;stroke:#1f77b4;" x="76.339021" xlink:href="#md434c94da2" y="54.71946"/>
     <use style="fill:#1f77b4;stroke:#1f77b4;" x="79.567727" xlink:href="#md434c94da2" y="54.719461"/>
     <use style="fill:#1f77b4;stroke:#1f77b4;" x="82.796434" xlink:href="#md434c94da2" y="54.719461"/>
     <use style="fill:#1f77b4;stroke:#1f77b4;" x="86.02514" xlink:href="#md434c94da2" y="54.719462"/>
     <use style="fill:#1f77b4;stroke:#1f77b4;" x="89.253847" xlink:href="#md434c94da2" y="54.719464"/>
     <use style="fill:#1f77b4;stroke:#1f77b4;" x="92.482554" xlink:href="#md434c94da2" y="54.719471"/>
     <use style="fill:#1f77b4;stroke:#1f77b4;" x="95.71126" xlink:href="#md434c94da2" y="54.719483"/>
     <use style="fill:#1f77b4;stroke:#1f77b4;" x="98.939967" xlink:href="#md434c94da2" y="54.719492"/>
     <use style="fill:#1f77b4;stroke:#1f77b4;" x="102.168674" xlink:href="#md434c94da2" y="54.719498"/>
     <use style="fill:#1f77b4;stroke:#1f77b4;" x="105.39738" xlink:href="#md434c94da2" y="54.719511"/>
     <use style="fill:#1f77b4;stroke:#1f77b4;" x="108.626087" xlink:href="#md434c94da2" y="54.719528"/>
     <use style="fill:#1f77b4;stroke:#1f77b4;" x="111.854794" xlink:href="#md434c94da2" y="54.719544"/>
     <use style="fill:#1f77b4;stroke:#1f77b4;" x="115.0835" xlink:href="#md434c94da2" y="54.719569"/>
     <use style="fill:#1f77b4;stroke:#1f77b4;" x="118.312207" xlink:href="#md434c94da2" y="54.719585"/>
     <use style="fill:#1f77b4;stroke:#1f77b4;" x="121.540914" xlink:href="#md434c94da2" y="54.719596"/>
     <use style="fill:#1f77b4;stroke:#1f77b4;" x="124.76962" xlink:href="#md434c94da2" y="54.719605"/>
     <use style="fill:#1f77b4;stroke:#1f77b4;" x="127.998327" xlink:href="#md434c94da2" y="54.719622"/>
     <use style="fill:#1f77b4;stroke:#1f77b4;" x="131.227034" xlink:href="#md434c94da2" y="54.719636"/>
     <use style="fill:#1f77b4;stroke:#1f77b4;" x="134.45574" xlink:href="#md434c94da2" y="54.719644"/>
     <use style="fill:#1f77b4;stroke:#1f77b4;" x="137.684447" xlink:href="#md434c94da2" y="54.719657"/>
     <use style="fill:#1f77b4;stroke:#1f77b4;" x="140.913154" xlink:href="#md434c94da2" y="54.71968"/>
     <use style="fill:#1f77b4;stroke:#1f77b4;" x="144.14186" xlink:href="#md434c94da2" y="54.719693"/>
     <use style="fill:#1f77b4;stroke:#1f77b4;" x="147.370567" xlink:href="#md434c94da2" y="54.719702"/>
     <use style="fill:#1f77b4;stroke:#1f77b4;" x="150.599274" xlink:href="#md434c94da2" y="54.719708"/>
     <use style="fill:#1f77b4;stroke:#1f77b4;" x="153.82798" xlink:href="#md434c94da2" y="54.719724"/>
     <use style="fill:#1f77b4;stroke:#1f77b4;" x="157.056687" xlink:href="#md434c94da2" y="54.719728"/>
     <use style="fill:#1f77b4;stroke:#1f77b4;" x="160.285394" xlink:href="#md434c94da2" y="54.719736"/>
     <use style="fill:#1f77b4;stroke:#1f77b4;" x="163.5141" xlink:href="#md434c94da2" y="54.719746"/>
     <use style="fill:#1f77b4;stroke:#1f77b4;" x="166.742807" xlink:href="#md434c94da2" y="54.719755"/>
     <use style="fill:#1f77b4;stroke:#1f77b4;" x="169.971514" xlink:href="#md434c94da2" y="54.71976"/>
     <use style="fill:#1f77b4;stroke:#1f77b4;" x="173.20022" xlink:href="#md434c94da2" y="54.719773"/>
     <use style="fill:#1f77b4;stroke:#1f77b4;" x="176.428927" xlink:href="#md434c94da2" y="54.719788"/>
     <use style="fill:#1f77b4;stroke:#1f77b4;" x="179.657634" xlink:href="#md434c94da2" y="54.719802"/>
     <use style="fill:#1f77b4;stroke:#1f77b4;" x="182.88634" xlink:href="#md434c94da2" y="54.719814"/>
     <use style="fill:#1f77b4;stroke:#1f77b4;" x="186.115047" xlink:href="#md434c94da2" y="54.719833"/>
     <use style="fill:#1f77b4;stroke:#1f77b4;" x="189.343753" xlink:href="#md434c94da2" y="54.719846"/>
     <use style="fill:#1f77b4;stroke:#1f77b4;" x="192.57246" xlink:href="#md434c94da2" y="54.719862"/>
     <use style="fill:#1f77b4;stroke:#1f77b4;" x="195.801167" xlink:href="#md434c94da2" y="54.719883"/>
     <use style="fill:#1f77b4;stroke:#1f77b4;" x="199.029873" xlink:href="#md434c94da2" y="54.719897"/>
     <use style="fill:#1f77b4;stroke:#1f77b4;" x="202.25858" xlink:href="#md434c94da2" y="54.719908"/>
     <use style="fill:#1f77b4;stroke:#1f77b4;" x="205.487287" xlink:href="#md434c94da2" y="54.719924"/>
     <use style="fill:#1f77b4;stroke:#1f77b4;" x="208.715993" xlink:href="#md434c94da2" y="54.719943"/>
     <use style="fill:#1f77b4;stroke:#1f77b4;" x="211.9447" xlink:href="#md434c94da2" y="54.719956"/>
     <use style="fill:#1f77b4;stroke:#1f77b4;" x="215.173407" xlink:href="#md434c94da2" y="54.719966"/>
     <use style="fill:#1f77b4;stroke:#1f77b4;" x="218.402113" xlink:href="#md434c94da2" y="54.719985"/>
     <use style="fill:#1f77b4;stroke:#1f77b4;" x="221.63082" xlink:href="#md434c94da2" y="54.72001"/>
     <use style="fill:#1f77b4;stroke:#1f77b4;" x="224.859527" xlink:href="#md434c94da2" y="54.720039"/>
     <use style="fill:#1f77b4;stroke:#1f77b4;" x="228.088233" xlink:href="#md434c94da2" y="54.72006"/>
     <use style="fill:#1f77b4;stroke:#1f77b4;" x="231.31694" xlink:href="#md434c94da2" y="54.720072"/>
     <use style="fill:#1f77b4;stroke:#1f77b4;" x="234.545647" xlink:href="#md434c94da2" y="54.720086"/>
     <use style="fill:#1f77b4;stroke:#1f77b4;" x="237.774353" xlink:href="#md434c94da2" y="54.720104"/>
     <use style="fill:#1f77b4;stroke:#1f77b4;" x="241.00306" xlink:href="#md434c94da2" y="54.720122"/>
     <use style="fill:#1f77b4;stroke:#1f77b4;" x="244.231767" xlink:href="#md434c94da2" y="54.72014"/>
     <use style="fill:#1f77b4;stroke:#1f77b4;" x="247.460473" xlink:href="#md434c94da2" y="54.720155"/>
     <use style="fill:#1f77b4;stroke:#1f77b4;" x="250.68918" xlink:href="#md434c94da2" y="54.720169"/>
     <use style="fill:#1f77b4;stroke:#1f77b4;" x="253.917887" xlink:href="#md434c94da2" y="54.720181"/>
     <use style="fill:#1f77b4;stroke:#1f77b4;" x="257.146593" xlink:href="#md434c94da2" y="54.720198"/>
     <use style="fill:#1f77b4;stroke:#1f77b4;" x="260.3753" xlink:href="#md434c94da2" y="54.720212"/>
     <use style="fill:#1f77b4;stroke:#1f77b4;" x="263.604007" xlink:href="#md434c94da2" y="54.720224"/>
     <use style="fill:#1f77b4;stroke:#1f77b4;" x="266.832713" xlink:href="#md434c94da2" y="54.720238"/>
     <use style="fill:#1f77b4;stroke:#1f77b4;" x="270.06142" xlink:href="#md434c94da2" y="54.720261"/>
     <use style="fill:#1f77b4;stroke:#1f77b4;" x="273.290127" xlink:href="#md434c94da2" y="54.720279"/>
     <use style="fill:#1f77b4;stroke:#1f77b4;" x="276.518833" xlink:href="#md434c94da2" y="54.720295"/>
     <use style="fill:#1f77b4;stroke:#1f77b4;" x="279.74754" xlink:href="#md434c94da2" y="54.720307"/>
     <use style="fill:#1f77b4;stroke:#1f77b4;" x="282.976247" xlink:href="#md434c94da2" y="54.72033"/>
     <use style="fill:#1f77b4;stroke:#1f77b4;" x="286.204953" xlink:href="#md434c94da2" y="54.720347"/>
     <use style="fill:#1f77b4;stroke:#1f77b4;" x="289.43366" xlink:href="#md434c94da2" y="54.720362"/>
     <use style="fill:#1f77b4;stroke:#1f77b4;" x="292.662366" xlink:href="#md434c94da2" y="54.720382"/>
     <use style="fill:#1f77b4;stroke:#1f77b4;" x="295.891073" xlink:href="#md434c94da2" y="54.720406"/>
     <use style="fill:#1f77b4;stroke:#1f77b4;" x="299.11978" xlink:href="#md434c94da2" y="54.720426"/>
     <use style="fill:#1f77b4;stroke:#1f77b4;" x="302.348486" xlink:href="#md434c94da2" y="54.720451"/>
     <use style="fill:#1f77b4;stroke:#1f77b4;" x="305.577193" xlink:href="#md434c94da2" y="54.720473"/>
     <use style="fill:#1f77b4;stroke:#1f77b4;" x="308.8059" xlink:href="#md434c94da2" y="54.720495"/>
     <use style="fill:#1f77b4;stroke:#1f77b4;" x="312.034606" xlink:href="#md434c94da2" y="54.720515"/>
     <use style="fill:#1f77b4;stroke:#1f77b4;" x="315.263313" xlink:href="#md434c94da2" y="54.720537"/>
     <use style="fill:#1f77b4;stroke:#1f77b4;" x="318.49202" xlink:href="#md434c94da2" y="54.720565"/>
     <use style="fill:#1f77b4;stroke:#1f77b4;" x="321.720726" xlink:href="#md434c94da2" y="54.720602"/>
     <use style="fill:#1f77b4;stroke:#1f77b4;" x="324.949433" xlink:href="#md434c94da2" y="54.720628"/>
     <use style="fill:#1f77b4;stroke:#1f77b4;" x="328.17814" xlink:href="#md434c94da2" y="54.720658"/>
     <use style="fill:#1f77b4;stroke:#1f77b4;" x="331.406846" xlink:href="#md434c94da2" y="54.720691"/>
     <use style="fill:#1f77b4;stroke:#1f77b4;" x="334.635553" xlink:href="#md434c94da2" y="54.720715"/>
     <use style="fill:#1f77b4;stroke:#1f77b4;" x="337.86426" xlink:href="#md434c94da2" y="54.720754"/>
     <use style="fill:#1f77b4;stroke:#1f77b4;" x="341.092966" xlink:href="#md434c94da2" y="54.720785"/>
     <use style="fill:#1f77b4;stroke:#1f77b4;" x="344.321673" xlink:href="#md434c94da2" y="54.720813"/>
     <use style="fill:#1f77b4;stroke:#1f77b4;" x="347.55038" xlink:href="#md434c94da2" y="54.720844"/>
     <use style="fill:#1f77b4;stroke:#1f77b4;" x="350.779086" xlink:href="#md434c94da2" y="54.720898"/>
     <use style="fill:#1f77b4;stroke:#1f77b4;" x="354.007793" xlink:href="#md434c94da2" y="54.720929"/>
     <use style="fill:#1f77b4;stroke:#1f77b4;" x="357.2365" xlink:href="#md434c94da2" y="54.720953"/>
     <use style="fill:#1f77b4;stroke:#1f77b4;" x="360.465206" xlink:href="#md434c94da2" y="54.720979"/>
     <use style="fill:#1f77b4;stroke:#1f77b4;" x="363.693913" xlink:href="#md434c94da2" y="54.721019"/>
     <use style="fill:#1f77b4;stroke:#1f77b4;" x="366.92262" xlink:href="#md434c94da2" y="54.721054"/>
     <use style="fill:#1f77b4;stroke:#1f77b4;" x="370.151326" xlink:href="#md434c94da2" y="54.72109"/>
     <use style="fill:#1f77b4;stroke:#1f77b4;" x="373.380033" xlink:href="#md434c94da2" y="54.721121"/>
     <use style="fill:#1f77b4;stroke:#1f77b4;" x="376.60874" xlink:href="#md434c94da2" y="54.721151"/>
     <use style="fill:#1f77b4;stroke:#1f77b4;" x="379.837446" xlink:href="#md434c94da2" y="54.721189"/>
     <use style="fill:#1f77b4;stroke:#1f77b4;" x="383.066153" xlink:href="#md434c94da2" y="54.721216"/>
     <use style="fill:#1f77b4;stroke:#1f77b4;" x="386.29486" xlink:href="#md434c94da2" y="54.721252"/>
     <use style="fill:#1f77b4;stroke:#1f77b4;" x="389.523566" xlink:href="#md434c94da2" y="54.721285"/>
     <use style="fill:#1f77b4;stroke:#1f77b4;" x="392.752273" xlink:href="#md434c94da2" y="54.721323"/>
     <use style="fill:#1f77b4;stroke:#1f77b4;" x="395.980979" xlink:href="#md434c94da2" y="54.721349"/>
    </g>
   </g>
   <g id="PathCollection_2">
    <defs>
     <path d="M 0 3.535534 
C 0.937635 3.535534 1.836992 3.163008 2.5 2.5 
C 3.163008 1.836992 3.535534 0.937635 3.535534 0 
C 3.535534 -0.937635 3.163008 -1.836992 2.5 -2.5 
C 1.836992 -3.163008 0.937635 -3.535534 0 -3.535534 
C -0.937635 -3.535534 -1.836992 -3.163008 -2.5 -2.5 
C -3.163008 -1.836992 -3.535534 -0.937635 -3.535534 0 
C -3.535534 0.937635 -3.163008 1.836992 -2.5 2.5 
C -1.836992 3.163008 -0.937635 3.535534 0 3.535534 
z
" id="mb2cadda6dd" style="stroke:#ff7f0e;"/>
    </defs>
    <g clip-path="url(#p5b4183dc16)">
     <use style="fill:#ff7f0e;stroke:#ff7f0e;" x="76.339021" xlink:href="#mb2cadda6dd" y="295.463748"/>
     <use style="fill:#ff7f0e;stroke:#ff7f0e;" x="79.567727" xlink:href="#mb2cadda6dd" y="295.463748"/>
     <use style="fill:#ff7f0e;stroke:#ff7f0e;" x="82.796434" xlink:href="#mb2cadda6dd" y="295.463747"/>
     <use style="fill:#ff7f0e;stroke:#ff7f0e;" x="86.02514" xlink:href="#mb2cadda6dd" y="295.463746"/>
     <use style="fill:#ff7f0e;stroke:#ff7f0e;" x="89.253847" xlink:href="#mb2cadda6dd" y="295.463744"/>
     <use style="fill:#ff7f0e;stroke:#ff7f0e;" x="92.482554" xlink:href="#mb2cadda6dd" y="295.463738"/>
     <use style="fill:#ff7f0e;stroke:#ff7f0e;" x="95.71126" xlink:href="#mb2cadda6dd" y="295.463726"/>
     <use style="fill:#ff7f0e;stroke:#ff7f0e;" x="98.939967" xlink:href="#mb2cadda6dd" y="295.463716"/>
     <use style="fill:#ff7f0e;stroke:#ff7f0e;" x="102.168674" xlink:href="#mb2cadda6dd" y="295.463709"/>
     <use style="fill:#ff7f0e;stroke:#ff7f0e;" x="105.39738" xlink:href="#mb2cadda6dd" y="295.463694"/>
     <use style="fill:#ff7f0e;stroke:#ff7f0e;" x="108.626087" xlink:href="#mb2cadda6dd" y="295.463678"/>
     <use style="fill:#ff7f0e;stroke:#ff7f0e;" x="111.854794" xlink:href="#mb2cadda6dd" y="295.463664"/>
     <use style="fill:#ff7f0e;stroke:#ff7f0e;" x="115.0835" xlink:href="#mb2cadda6dd" y="295.463639"/>
     <use style="fill:#ff7f0e;stroke:#ff7f0e;" x="118.312207" xlink:href="#mb2cadda6dd" y="295.463629"/>
     <use style="fill:#ff7f0e;stroke:#ff7f0e;" x="121.540914" xlink:href="#mb2cadda6dd" y="295.463618"/>
     <use style="fill:#ff7f0e;stroke:#ff7f0e;" x="124.76962" xlink:href="#mb2cadda6dd" y="295.463603"/>
     <use style="fill:#ff7f0e;stroke:#ff7f0e;" x="127.998327" xlink:href="#mb2cadda6dd" y="295.46358"/>
     <use style="fill:#ff7f0e;stroke:#ff7f0e;" x="131.227034" xlink:href="#mb2cadda6dd" y="295.463555"/>
     <use style="fill:#ff7f0e;stroke:#ff7f0e;" x="134.45574" xlink:href="#mb2cadda6dd" y="295.463546"/>
     <use style="fill:#ff7f0e;stroke:#ff7f0e;" x="137.684447" xlink:href="#mb2cadda6dd" y="295.463533"/>
     <use style="fill:#ff7f0e;stroke:#ff7f0e;" x="140.913154" xlink:href="#mb2cadda6dd" y="295.463519"/>
     <use style="fill:#ff7f0e;stroke:#ff7f0e;" x="144.14186" xlink:href="#mb2cadda6dd" y="295.463512"/>
     <use style="fill:#ff7f0e;stroke:#ff7f0e;" x="147.370567" xlink:href="#mb2cadda6dd" y="295.463491"/>
     <use style="fill:#ff7f0e;stroke:#ff7f0e;" x="150.599274" xlink:href="#mb2cadda6dd" y="295.463481"/>
     <use style="fill:#ff7f0e;stroke:#ff7f0e;" x="153.82798" xlink:href="#mb2cadda6dd" y="295.463464"/>
     <use style="fill:#ff7f0e;stroke:#ff7f0e;" x="157.056687" xlink:href="#mb2cadda6dd" y="295.463451"/>
     <use style="fill:#ff7f0e;stroke:#ff7f0e;" x="160.285394" xlink:href="#mb2cadda6dd" y="295.463436"/>
     <use style="fill:#ff7f0e;stroke:#ff7f0e;" x="163.5141" xlink:href="#mb2cadda6dd" y="295.463421"/>
     <use style="fill:#ff7f0e;stroke:#ff7f0e;" x="166.742807" xlink:href="#mb2cadda6dd" y="295.463404"/>
     <use style="fill:#ff7f0e;stroke:#ff7f0e;" x="169.971514" xlink:href="#mb2cadda6dd" y="295.463392"/>
     <use style="fill:#ff7f0e;stroke:#ff7f0e;" x="173.20022" xlink:href="#mb2cadda6dd" y="295.463375"/>
     <use style="fill:#ff7f0e;stroke:#ff7f0e;" x="176.428927" xlink:href="#mb2cadda6dd" y="295.463355"/>
     <use style="fill:#ff7f0e;stroke:#ff7f0e;" x="179.657634" xlink:href="#mb2cadda6dd" y="295.463342"/>
     <use style="fill:#ff7f0e;stroke:#ff7f0e;" x="182.88634" xlink:href="#mb2cadda6dd" y="295.463329"/>
     <use style="fill:#ff7f0e;stroke:#ff7f0e;" x="186.115047" xlink:href="#mb2cadda6dd" y="295.463311"/>
     <use style="fill:#ff7f0e;stroke:#ff7f0e;" x="189.343753" xlink:href="#mb2cadda6dd" y="295.463273"/>
     <use style="fill:#ff7f0e;stroke:#ff7f0e;" x="192.57246" xlink:href="#mb2cadda6dd" y="295.463249"/>
     <use style="fill:#ff7f0e;stroke:#ff7f0e;" x="195.801167" xlink:href="#mb2cadda6dd" y="295.463232"/>
     <use style="fill:#ff7f0e;stroke:#ff7f0e;" x="199.029873" xlink:href="#mb2cadda6dd" y="295.463212"/>
     <use style="fill:#ff7f0e;stroke:#ff7f0e;" x="202.25858" xlink:href="#mb2cadda6dd" y="295.463198"/>
     <use style="fill:#ff7f0e;stroke:#ff7f0e;" x="205.487287" xlink:href="#mb2cadda6dd" y="295.463172"/>
     <use style="fill:#ff7f0e;stroke:#ff7f0e;" x="208.715993" xlink:href="#mb2cadda6dd" y="295.463133"/>
     <use style="fill:#ff7f0e;stroke:#ff7f0e;" x="211.9447" xlink:href="#mb2cadda6dd" y="295.463108"/>
     <use style="fill:#ff7f0e;stroke:#ff7f0e;" x="215.173407" xlink:href="#mb2cadda6dd" y="295.463092"/>
     <use style="fill:#ff7f0e;stroke:#ff7f0e;" x="218.402113" xlink:href="#mb2cadda6dd" y="295.463072"/>
     <use style="fill:#ff7f0e;stroke:#ff7f0e;" x="221.63082" xlink:href="#mb2cadda6dd" y="295.463049"/>
     <use style="fill:#ff7f0e;stroke:#ff7f0e;" x="224.859527" xlink:href="#mb2cadda6dd" y="295.46302"/>
     <use style="fill:#ff7f0e;stroke:#ff7f0e;" x="228.088233" xlink:href="#mb2cadda6dd" y="295.462998"/>
     <use style="fill:#ff7f0e;stroke:#ff7f0e;" x="231.31694" xlink:href="#mb2cadda6dd" y="295.462979"/>
     <use style="fill:#ff7f0e;stroke:#ff7f0e;" x="234.545647" xlink:href="#mb2cadda6dd" y="295.462957"/>
     <use style="fill:#ff7f0e;stroke:#ff7f0e;" x="237.774353" xlink:href="#mb2cadda6dd" y="295.462935"/>
     <use style="fill:#ff7f0e;stroke:#ff7f0e;" x="241.00306" xlink:href="#mb2cadda6dd" y="295.462916"/>
     <use style="fill:#ff7f0e;stroke:#ff7f0e;" x="244.231767" xlink:href="#mb2cadda6dd" y="295.462894"/>
     <use style="fill:#ff7f0e;stroke:#ff7f0e;" x="247.460473" xlink:href="#mb2cadda6dd" y="295.462871"/>
     <use style="fill:#ff7f0e;stroke:#ff7f0e;" x="250.68918" xlink:href="#mb2cadda6dd" y="295.462851"/>
     <use style="fill:#ff7f0e;stroke:#ff7f0e;" x="253.917887" xlink:href="#mb2cadda6dd" y="295.462836"/>
     <use style="fill:#ff7f0e;stroke:#ff7f0e;" x="257.146593" xlink:href="#mb2cadda6dd" y="295.462824"/>
     <use style="fill:#ff7f0e;stroke:#ff7f0e;" x="260.3753" xlink:href="#mb2cadda6dd" y="295.462801"/>
     <use style="fill:#ff7f0e;stroke:#ff7f0e;" x="263.604007" xlink:href="#mb2cadda6dd" y="295.462775"/>
     <use style="fill:#ff7f0e;stroke:#ff7f0e;" x="266.832713" xlink:href="#mb2cadda6dd" y="295.462755"/>
     <use style="fill:#ff7f0e;stroke:#ff7f0e;" x="270.06142" xlink:href="#mb2cadda6dd" y="295.462733"/>
     <use style="fill:#ff7f0e;stroke:#ff7f0e;" x="273.290127" xlink:href="#mb2cadda6dd" y="295.462707"/>
     <use style="fill:#ff7f0e;stroke:#ff7f0e;" x="276.518833" xlink:href="#mb2cadda6dd" y="295.462684"/>
     <use style="fill:#ff7f0e;stroke:#ff7f0e;" x="279.74754" xlink:href="#mb2cadda6dd" y="295.462665"/>
     <use style="fill:#ff7f0e;stroke:#ff7f0e;" x="282.976247" xlink:href="#mb2cadda6dd" y="295.462643"/>
     <use style="fill:#ff7f0e;stroke:#ff7f0e;" x="286.204953" xlink:href="#mb2cadda6dd" y="295.462619"/>
     <use style="fill:#ff7f0e;stroke:#ff7f0e;" x="289.43366" xlink:href="#mb2cadda6dd" y="295.46259"/>
     <use style="fill:#ff7f0e;stroke:#ff7f0e;" x="292.662366" xlink:href="#mb2cadda6dd" y="295.462569"/>
     <use style="fill:#ff7f0e;stroke:#ff7f0e;" x="295.891073" xlink:href="#mb2cadda6dd" y="295.462544"/>
     <use style="fill:#ff7f0e;stroke:#ff7f0e;" x="299.11978" xlink:href="#mb2cadda6dd" y="295.462525"/>
     <use style="fill:#ff7f0e;stroke:#ff7f0e;" x="302.348486" xlink:href="#mb2cadda6dd" y="295.4625"/>
     <use style="fill:#ff7f0e;stroke:#ff7f0e;" x="305.577193" xlink:href="#mb2cadda6dd" y="295.462474"/>
     <use style="fill:#ff7f0e;stroke:#ff7f0e;" x="308.8059" xlink:href="#mb2cadda6dd" y="295.462453"/>
     <use style="fill:#ff7f0e;stroke:#ff7f0e;" x="312.034606" xlink:href="#mb2cadda6dd" y="295.462427"/>
     <use style="fill:#ff7f0e;stroke:#ff7f0e;" x="315.263313" xlink:href="#mb2cadda6dd" y="295.462401"/>
     <use style="fill:#ff7f0e;stroke:#ff7f0e;" x="318.49202" xlink:href="#mb2cadda6dd" y="295.462365"/>
     <use style="fill:#ff7f0e;stroke:#ff7f0e;" x="321.720726" xlink:href="#mb2cadda6dd" y="295.462324"/>
     <use style="fill:#ff7f0e;stroke:#ff7f0e;" x="324.949433" xlink:href="#mb2cadda6dd" y="295.462302"/>
     <use style="fill:#ff7f0e;stroke:#ff7f0e;" x="328.17814" xlink:href="#mb2cadda6dd" y="295.462273"/>
     <use style="fill:#ff7f0e;stroke:#ff7f0e;" x="331.406846" xlink:href="#mb2cadda6dd" y="295.462241"/>
     <use style="fill:#ff7f0e;stroke:#ff7f0e;" x="334.635553" xlink:href="#mb2cadda6dd" y="295.462216"/>
     <use style="fill:#ff7f0e;stroke:#ff7f0e;" x="337.86426" xlink:href="#mb2cadda6dd" y="295.462166"/>
     <use style="fill:#ff7f0e;stroke:#ff7f0e;" x="341.092966" xlink:href="#mb2cadda6dd" y="295.462132"/>
     <use style="fill:#ff7f0e;stroke:#ff7f0e;" x="344.321673" xlink:href="#mb2cadda6dd" y="295.462104"/>
     <use style="fill:#ff7f0e;stroke:#ff7f0e;" x="347.55038" xlink:href="#mb2cadda6dd" y="295.462073"/>
     <use style="fill:#ff7f0e;stroke:#ff7f0e;" x="350.779086" xlink:href="#mb2cadda6dd" y="295.462035"/>
     <use style="fill:#ff7f0e;stroke:#ff7f0e;" x="354.007793" xlink:href="#mb2cadda6dd" y="295.461992"/>
     <use style="fill:#ff7f0e;stroke:#ff7f0e;" x="357.2365" xlink:href="#mb2cadda6dd" y="295.461961"/>
     <use style="fill:#ff7f0e;stroke:#ff7f0e;" x="360.465206" xlink:href="#mb2cadda6dd" y="295.461929"/>
     <use style="fill:#ff7f0e;stroke:#ff7f0e;" x="363.693913" xlink:href="#mb2cadda6dd" y="295.461892"/>
     <use style="fill:#ff7f0e;stroke:#ff7f0e;" x="366.92262" xlink:href="#mb2cadda6dd" y="295.461857"/>
     <use style="fill:#ff7f0e;stroke:#ff7f0e;" x="370.151326" xlink:href="#mb2cadda6dd" y="295.461827"/>
     <use style="fill:#ff7f0e;stroke:#ff7f0e;" x="373.380033" xlink:href="#mb2cadda6dd" y="295.461785"/>
     <use style="fill:#ff7f0e;stroke:#ff7f0e;" x="376.60874" xlink:href="#mb2cadda6dd" y="295.461754"/>
     <use style="fill:#ff7f0e;stroke:#ff7f0e;" x="379.837446" xlink:href="#mb2cadda6dd" y="295.461717"/>
     <use style="fill:#ff7f0e;stroke:#ff7f0e;" x="383.066153" xlink:href="#mb2cadda6dd" y="295.461687"/>
     <use style="fill:#ff7f0e;stroke:#ff7f0e;" x="386.29486" xlink:href="#mb2cadda6dd" y="295.461648"/>
     <use style="fill:#ff7f0e;stroke:#ff7f0e;" x="389.523566" xlink:href="#mb2cadda6dd" y="295.46162"/>
     <use style="fill:#ff7f0e;stroke:#ff7f0e;" x="392.752273" xlink:href="#mb2cadda6dd" y="295.461589"/>
     <use style="fill:#ff7f0e;stroke:#ff7f0e;" x="395.980979" xlink:href="#mb2cadda6dd" y="295.461558"/>
    </g>
   </g>
   <g id="matplotlib.axis_1">
    <g id="xtick_1">
     <g id="line2d_1">
      <defs>
       <path d="M 0 0 
L 0 3.5 
" id="ma674d197a9" style="stroke:#000000;stroke-width:0.8;"/>
      </defs>
      <g>
       <use style="stroke:#000000;stroke-width:0.8;" x="76.339021" xlink:href="#ma674d197a9" y="307.584"/>
      </g>
     </g>
     <g id="text_1">
      <!-- 0 -->
      <defs>
       <path d="M 31.78125 66.40625 
Q 24.171875 66.40625 20.328125 58.90625 
Q 16.5 51.421875 16.5 36.375 
Q 16.5 21.390625 20.328125 13.890625 
Q 24.171875 6.390625 31.78125 6.390625 
Q 39.453125 6.390625 43.28125 13.890625 
Q 47.125 21.390625 47.125 36.375 
Q 47.125 51.421875 43.28125 58.90625 
Q 39.453125 66.40625 31.78125 66.40625 
M 31.78125 74.21875 
Q 44.046875 74.21875 50.515625 64.515625 
Q 56.984375 54.828125 56.984375 36.375 
Q 56.984375 17.96875 50.515625 8.265625 
Q 44.046875 -1.421875 31.78125 -1.421875 
Q 19.53125 -1.421875 13.0625 8.265625 
Q 6.59375 17.96875 6.59375 36.375 
Q 6.59375 54.828125 13.0625 64.515625 
Q 19.53125 74.21875 31.78125 74.21875 
" id="DejaVuSans-30"/>
      </defs>
      <g transform="translate(73.157771 322.182437)scale(0.1 -0.1)">
       <use xlink:href="#DejaVuSans-30"/>
      </g>
     </g>
    </g>
    <g id="xtick_2">
     <g id="line2d_2">
      <g>
       <use style="stroke:#000000;stroke-width:0.8;" x="130.150798" xlink:href="#ma674d197a9" y="307.584"/>
      </g>
     </g>
     <g id="text_2">
      <!-- 500 -->
      <defs>
       <path d="M 10.796875 72.90625 
L 49.515625 72.90625 
L 49.515625 64.59375 
L 19.828125 64.59375 
L 19.828125 46.734375 
Q 21.96875 47.46875 24.109375 47.828125 
Q 26.265625 48.1875 28.421875 48.1875 
Q 40.625 48.1875 47.75 41.5 
Q 54.890625 34.8125 54.890625 23.390625 
Q 54.890625 11.625 47.5625 5.09375 
Q 40.234375 -1.421875 26.90625 -1.421875 
Q 22.3125 -1.421875 17.546875 -0.640625 
Q 12.796875 0.140625 7.71875 1.703125 
L 7.71875 11.625 
Q 12.109375 9.234375 16.796875 8.0625 
Q 21.484375 6.890625 26.703125 6.890625 
Q 35.15625 6.890625 40.078125 11.328125 
Q 45.015625 15.765625 45.015625 23.390625 
Q 45.015625 31 40.078125 35.4375 
Q 35.15625 39.890625 26.703125 39.890625 
Q 22.75 39.890625 18.8125 39.015625 
Q 14.890625 38.140625 10.796875 36.28125 
z
" id="DejaVuSans-35"/>
      </defs>
      <g transform="translate(120.607048 322.182437)scale(0.1 -0.1)">
       <use xlink:href="#DejaVuSans-35"/>
       <use x="63.623047" xlink:href="#DejaVuSans-30"/>
       <use x="127.246094" xlink:href="#DejaVuSans-30"/>
      </g>
     </g>
    </g>
    <g id="xtick_3">
     <g id="line2d_3">
      <g>
       <use style="stroke:#000000;stroke-width:0.8;" x="183.962576" xlink:href="#ma674d197a9" y="307.584"/>
      </g>
     </g>
     <g id="text_3">
      <!-- 1000 -->
      <defs>
       <path d="M 12.40625 8.296875 
L 28.515625 8.296875 
L 28.515625 63.921875 
L 10.984375 60.40625 
L 10.984375 69.390625 
L 28.421875 72.90625 
L 38.28125 72.90625 
L 38.28125 8.296875 
L 54.390625 8.296875 
L 54.390625 0 
L 12.40625 0 
z
" id="DejaVuSans-31"/>
      </defs>
      <g transform="translate(171.237576 322.182437)scale(0.1 -0.1)">
       <use xlink:href="#DejaVuSans-31"/>
       <use x="63.623047" xlink:href="#DejaVuSans-30"/>
       <use x="127.246094" xlink:href="#DejaVuSans-30"/>
       <use x="190.869141" xlink:href="#DejaVuSans-30"/>
      </g>
     </g>
    </g>
    <g id="xtick_4">
     <g id="line2d_4">
      <g>
       <use style="stroke:#000000;stroke-width:0.8;" x="237.774353" xlink:href="#ma674d197a9" y="307.584"/>
      </g>
     </g>
     <g id="text_4">
      <!-- 1500 -->
      <g transform="translate(225.049353 322.182437)scale(0.1 -0.1)">
       <use xlink:href="#DejaVuSans-31"/>
       <use x="63.623047" xlink:href="#DejaVuSans-35"/>
       <use x="127.246094" xlink:href="#DejaVuSans-30"/>
       <use x="190.869141" xlink:href="#DejaVuSans-30"/>
      </g>
     </g>
    </g>
    <g id="xtick_5">
     <g id="line2d_5">
      <g>
       <use style="stroke:#000000;stroke-width:0.8;" x="291.586131" xlink:href="#ma674d197a9" y="307.584"/>
      </g>
     </g>
     <g id="text_5">
      <!-- 2000 -->
      <defs>
       <path d="M 19.1875 8.296875 
L 53.609375 8.296875 
L 53.609375 0 
L 7.328125 0 
L 7.328125 8.296875 
Q 12.9375 14.109375 22.625 23.890625 
Q 32.328125 33.6875 34.8125 36.53125 
Q 39.546875 41.84375 41.421875 45.53125 
Q 43.3125 49.21875 43.3125 52.78125 
Q 43.3125 58.59375 39.234375 62.25 
Q 35.15625 65.921875 28.609375 65.921875 
Q 23.96875 65.921875 18.8125 64.3125 
Q 13.671875 62.703125 7.8125 59.421875 
L 7.8125 69.390625 
Q 13.765625 71.78125 18.9375 73 
Q 24.125 74.21875 28.421875 74.21875 
Q 39.75 74.21875 46.484375 68.546875 
Q 53.21875 62.890625 53.21875 53.421875 
Q 53.21875 48.921875 51.53125 44.890625 
Q 49.859375 40.875 45.40625 35.40625 
Q 44.1875 33.984375 37.640625 27.21875 
Q 31.109375 20.453125 19.1875 8.296875 
" id="DejaVuSans-32"/>
      </defs>
      <g transform="translate(278.861131 322.182437)scale(0.1 -0.1)">
       <use xlink:href="#DejaVuSans-32"/>
       <use x="63.623047" xlink:href="#DejaVuSans-30"/>
       <use x="127.246094" xlink:href="#DejaVuSans-30"/>
       <use x="190.869141" xlink:href="#DejaVuSans-30"/>
      </g>
     </g>
    </g>
    <g id="xtick_6">
     <g id="line2d_6">
      <g>
       <use style="stroke:#000000;stroke-width:0.8;" x="345.397909" xlink:href="#ma674d197a9" y="307.584"/>
      </g>
     </g>
     <g id="text_6">
      <!-- 2500 -->
      <g transform="translate(332.672909 322.182437)scale(0.1 -0.1)">
       <use xlink:href="#DejaVuSans-32"/>
       <use x="63.623047" xlink:href="#DejaVuSans-35"/>
       <use x="127.246094" xlink:href="#DejaVuSans-30"/>
       <use x="190.869141" xlink:href="#DejaVuSans-30"/>
      </g>
     </g>
    </g>
    <g id="xtick_7">
     <g id="line2d_7">
      <g>
       <use style="stroke:#000000;stroke-width:0.8;" x="399.209686" xlink:href="#ma674d197a9" y="307.584"/>
      </g>
     </g>
     <g id="text_7">
      <!-- 3000 -->
      <defs>
       <path d="M 40.578125 39.3125 
Q 47.65625 37.796875 51.625 33 
Q 55.609375 28.21875 55.609375 21.1875 
Q 55.609375 10.40625 48.1875 4.484375 
Q 40.765625 -1.421875 27.09375 -1.421875 
Q 22.515625 -1.421875 17.65625 -0.515625 
Q 12.796875 0.390625 7.625 2.203125 
L 7.625 11.71875 
Q 11.71875 9.328125 16.59375 8.109375 
Q 21.484375 6.890625 26.8125 6.890625 
Q 36.078125 6.890625 40.9375 10.546875 
Q 45.796875 14.203125 45.796875 21.1875 
Q 45.796875 27.640625 41.28125 31.265625 
Q 36.765625 34.90625 28.71875 34.90625 
L 20.21875 34.90625 
L 20.21875 43.015625 
L 29.109375 43.015625 
Q 36.375 43.015625 40.234375 45.921875 
Q 44.09375 48.828125 44.09375 54.296875 
Q 44.09375 59.90625 40.109375 62.90625 
Q 36.140625 65.921875 28.71875 65.921875 
Q 24.65625 65.921875 20.015625 65.03125 
Q 15.375 64.15625 9.8125 62.3125 
L 9.8125 71.09375 
Q 15.4375 72.65625 20.34375 73.4375 
Q 25.25 74.21875 29.59375 74.21875 
Q 40.828125 74.21875 47.359375 69.109375 
Q 53.90625 64.015625 53.90625 55.328125 
Q 53.90625 49.265625 50.4375 45.09375 
Q 46.96875 40.921875 40.578125 39.3125 
" id="DejaVuSans-33"/>
      </defs>
      <g transform="translate(386.484686 322.182437)scale(0.1 -0.1)">
       <use xlink:href="#DejaVuSans-33"/>
       <use x="63.623047" xlink:href="#DejaVuSans-30"/>
       <use x="127.246094" xlink:href="#DejaVuSans-30"/>
       <use x="190.869141" xlink:href="#DejaVuSans-30"/>
      </g>
     </g>
    </g>
    <g id="text_8">
     <!-- Wiat Time -->
     <defs>
      <path d="M 3.328125 72.90625 
L 13.28125 72.90625 
L 28.609375 11.28125 
L 43.890625 72.90625 
L 54.984375 72.90625 
L 70.3125 11.28125 
L 85.59375 72.90625 
L 95.609375 72.90625 
L 77.296875 0 
L 64.890625 0 
L 49.515625 63.28125 
L 33.984375 0 
L 21.578125 0 
z
" id="DejaVuSans-57"/>
      <path d="M 9.421875 54.6875 
L 18.40625 54.6875 
L 18.40625 0 
L 9.421875 0 
z
M 9.421875 75.984375 
L 18.40625 75.984375 
L 18.40625 64.59375 
L 9.421875 64.59375 
z
" id="DejaVuSans-69"/>
      <path d="M 34.28125 27.484375 
Q 23.390625 27.484375 19.1875 25 
Q 14.984375 22.515625 14.984375 16.5 
Q 14.984375 11.71875 18.140625 8.90625 
Q 21.296875 6.109375 26.703125 6.109375 
Q 34.1875 6.109375 38.703125 11.40625 
Q 43.21875 16.703125 43.21875 25.484375 
L 43.21875 27.484375 
z
M 52.203125 31.203125 
L 52.203125 0 
L 43.21875 0 
L 43.21875 8.296875 
Q 40.140625 3.328125 35.546875 0.953125 
Q 30.953125 -1.421875 24.3125 -1.421875 
Q 15.921875 -1.421875 10.953125 3.296875 
Q 6 8.015625 6 15.921875 
Q 6 25.140625 12.171875 29.828125 
Q 18.359375 34.515625 30.609375 34.515625 
L 43.21875 34.515625 
L 43.21875 35.40625 
Q 43.21875 41.609375 39.140625 45 
Q 35.0625 48.390625 27.6875 48.390625 
Q 23 48.390625 18.546875 47.265625 
Q 14.109375 46.140625 10.015625 43.890625 
L 10.015625 52.203125 
Q 14.9375 54.109375 19.578125 55.046875 
Q 24.21875 56 28.609375 56 
Q 40.484375 56 46.34375 49.84375 
Q 52.203125 43.703125 52.203125 31.203125 
" id="DejaVuSans-61"/>
      <path d="M 18.3125 70.21875 
L 18.3125 54.6875 
L 36.8125 54.6875 
L 36.8125 47.703125 
L 18.3125 47.703125 
L 18.3125 18.015625 
Q 18.3125 11.328125 20.140625 9.421875 
Q 21.96875 7.515625 27.59375 7.515625 
L 36.8125 7.515625 
L 36.8125 0 
L 27.59375 0 
Q 17.1875 0 13.234375 3.875 
Q 9.28125 7.765625 9.28125 18.015625 
L 9.28125 47.703125 
L 2.6875 47.703125 
L 2.6875 54.6875 
L 9.28125 54.6875 
L 9.28125 70.21875 
z
" id="DejaVuSans-74"/>
      <path id="DejaVuSans-20"/>
      <path d="M -0.296875 72.90625 
L 61.375 72.90625 
L 61.375 64.59375 
L 35.5 64.59375 
L 35.5 0 
L 25.59375 0 
L 25.59375 64.59375 
L -0.296875 64.59375 
z
" id="DejaVuSans-54"/>
      <path d="M 52 44.1875 
Q 55.375 50.25 60.0625 53.125 
Q 64.75 56 71.09375 56 
Q 79.640625 56 84.28125 50.015625 
Q 88.921875 44.046875 88.921875 33.015625 
L 88.921875 0 
L 79.890625 0 
L 79.890625 32.71875 
Q 79.890625 40.578125 77.09375 44.375 
Q 74.3125 48.1875 68.609375 48.1875 
Q 61.625 48.1875 57.5625 43.546875 
Q 53.515625 38.921875 53.515625 30.90625 
L 53.515625 0 
L 44.484375 0 
L 44.484375 32.71875 
Q 44.484375 40.625 41.703125 44.40625 
Q 38.921875 48.1875 33.109375 48.1875 
Q 26.21875 48.1875 22.15625 43.53125 
Q 18.109375 38.875 18.109375 30.90625 
L 18.109375 0 
L 9.078125 0 
L 9.078125 54.6875 
L 18.109375 54.6875 
L 18.109375 46.1875 
Q 21.1875 51.21875 25.484375 53.609375 
Q 29.78125 56 35.6875 56 
Q 41.65625 56 45.828125 52.96875 
Q 50 49.953125 52 44.1875 
" id="DejaVuSans-6d"/>
      <path d="M 56.203125 29.59375 
L 56.203125 25.203125 
L 14.890625 25.203125 
Q 15.484375 15.921875 20.484375 11.0625 
Q 25.484375 6.203125 34.421875 6.203125 
Q 39.59375 6.203125 44.453125 7.46875 
Q 49.3125 8.734375 54.109375 11.28125 
L 54.109375 2.78125 
Q 49.265625 0.734375 44.1875 -0.34375 
Q 39.109375 -1.421875 33.890625 -1.421875 
Q 20.796875 -1.421875 13.15625 6.1875 
Q 5.515625 13.8125 5.515625 26.8125 
Q 5.515625 40.234375 12.765625 48.109375 
Q 20.015625 56 32.328125 56 
Q 43.359375 56 49.78125 48.890625 
Q 56.203125 41.796875 56.203125 29.59375 
M 47.21875 32.234375 
Q 47.125 39.59375 43.09375 43.984375 
Q 39.0625 48.390625 32.421875 48.390625 
Q 24.90625 48.390625 20.390625 44.140625 
Q 15.875 39.890625 15.1875 32.171875 
z
" id="DejaVuSans-65"/>
     </defs>
     <g transform="translate(210.827969 335.860562)scale(0.1 -0.1)">
      <use xlink:href="#DejaVuSans-57"/>
      <use x="98.845703" xlink:href="#DejaVuSans-69"/>
      <use x="126.628906" xlink:href="#DejaVuSans-61"/>
      <use x="187.908203" xlink:href="#DejaVuSans-74"/>
      <use x="227.117188" xlink:href="#DejaVuSans-20"/>
      <use x="258.904297" xlink:href="#DejaVuSans-54"/>
      <use x="319.941406" xlink:href="#DejaVuSans-69"/>
      <use x="347.724609" xlink:href="#DejaVuSans-6d"/>
      <use x="445.136719" xlink:href="#DejaVuSans-65"/>
     </g>
    </g>
   </g>
   <g id="matplotlib.axis_2">
    <g id="ytick_1">
     <g id="line2d_8">
      <defs>
       <path d="M 0 0 
L -3.5 0 
" id="m8cd6628242" style="stroke:#000000;stroke-width:0.8;"/>
      </defs>
      <g>
       <use style="stroke:#000000;stroke-width:0.8;" x="57.6" xlink:href="#m8cd6628242" y="295.463748"/>
      </g>
     </g>
     <g id="text_9">
      <!-- −1.00 -->
      <defs>
       <path d="M 10.59375 35.5 
L 73.1875 35.5 
L 73.1875 27.203125 
L 10.59375 27.203125 
z
" id="DejaVuSans-2212"/>
       <path d="M 10.6875 12.40625 
L 21 12.40625 
L 21 0 
L 10.6875 0 
z
" id="DejaVuSans-2e"/>
      </defs>
      <g transform="translate(19.954687 299.262967)scale(0.1 -0.1)">
       <use xlink:href="#DejaVuSans-2212"/>
       <use x="83.789062" xlink:href="#DejaVuSans-31"/>
       <use x="147.412109" xlink:href="#DejaVuSans-2e"/>
       <use x="179.199219" xlink:href="#DejaVuSans-30"/>
       <use x="242.822266" xlink:href="#DejaVuSans-30"/>
      </g>
     </g>
    </g>
    <g id="ytick_2">
     <g id="line2d_9">
      <g>
       <use style="stroke:#000000;stroke-width:0.8;" x="57.6" xlink:href="#m8cd6628242" y="265.370712"/>
      </g>
     </g>
     <g id="text_10">
      <!-- −0.75 -->
      <defs>
       <path d="M 8.203125 72.90625 
L 55.078125 72.90625 
L 55.078125 68.703125 
L 28.609375 0 
L 18.3125 0 
L 43.21875 64.59375 
L 8.203125 64.59375 
z
" id="DejaVuSans-37"/>
      </defs>
      <g transform="translate(19.954687 269.169931)scale(0.1 -0.1)">
       <use xlink:href="#DejaVuSans-2212"/>
       <use x="83.789062" xlink:href="#DejaVuSans-30"/>
       <use x="147.412109" xlink:href="#DejaVuSans-2e"/>
       <use x="179.199219" xlink:href="#DejaVuSans-37"/>
       <use x="242.822266" xlink:href="#DejaVuSans-35"/>
      </g>
     </g>
    </g>
    <g id="ytick_3">
     <g id="line2d_10">
      <g>
       <use style="stroke:#000000;stroke-width:0.8;" x="57.6" xlink:href="#m8cd6628242" y="235.277676"/>
      </g>
     </g>
     <g id="text_11">
      <!-- −0.50 -->
      <g transform="translate(19.954687 239.076895)scale(0.1 -0.1)">
       <use xlink:href="#DejaVuSans-2212"/>
       <use x="83.789062" xlink:href="#DejaVuSans-30"/>
       <use x="147.412109" xlink:href="#DejaVuSans-2e"/>
       <use x="179.199219" xlink:href="#DejaVuSans-35"/>
       <use x="242.822266" xlink:href="#DejaVuSans-30"/>
      </g>
     </g>
    </g>
    <g id="ytick_4">
     <g id="line2d_11">
      <g>
       <use style="stroke:#000000;stroke-width:0.8;" x="57.6" xlink:href="#m8cd6628242" y="205.18464"/>
      </g>
     </g>
     <g id="text_12">
      <!-- −0.25 -->
      <g transform="translate(19.954687 208.983859)scale(0.1 -0.1)">
       <use xlink:href="#DejaVuSans-2212"/>
       <use x="83.789062" xlink:href="#DejaVuSans-30"/>
       <use x="147.412109" xlink:href="#DejaVuSans-2e"/>
       <use x="179.199219" xlink:href="#DejaVuSans-32"/>
       <use x="242.822266" xlink:href="#DejaVuSans-35"/>
      </g>
     </g>
    </g>
    <g id="ytick_5">
     <g id="line2d_12">
      <g>
       <use style="stroke:#000000;stroke-width:0.8;" x="57.6" xlink:href="#m8cd6628242" y="175.091604"/>
      </g>
     </g>
     <g id="text_13">
      <!-- 0.00 -->
      <g transform="translate(28.334375 178.890823)scale(0.1 -0.1)">
       <use xlink:href="#DejaVuSans-30"/>
       <use x="63.623047" xlink:href="#DejaVuSans-2e"/>
       <use x="95.410156" xlink:href="#DejaVuSans-30"/>
       <use x="159.033203" xlink:href="#DejaVuSans-30"/>
      </g>
     </g>
    </g>
    <g id="ytick_6">
     <g id="line2d_13">
      <g>
       <use style="stroke:#000000;stroke-width:0.8;" x="57.6" xlink:href="#m8cd6628242" y="144.998568"/>
      </g>
     </g>
     <g id="text_14">
      <!-- 0.25 -->
      <g transform="translate(28.334375 148.797787)scale(0.1 -0.1)">
       <use xlink:href="#DejaVuSans-30"/>
       <use x="63.623047" xlink:href="#DejaVuSans-2e"/>
       <use x="95.410156" xlink:href="#DejaVuSans-32"/>
       <use x="159.033203" xlink:href="#DejaVuSans-35"/>
      </g>
     </g>
    </g>
    <g id="ytick_7">
     <g id="line2d_14">
      <g>
       <use style="stroke:#000000;stroke-width:0.8;" x="57.6" xlink:href="#m8cd6628242" y="114.905532"/>
      </g>
     </g>
     <g id="text_15">
      <!-- 0.50 -->
      <g transform="translate(28.334375 118.704751)scale(0.1 -0.1)">
       <use xlink:href="#DejaVuSans-30"/>
       <use x="63.623047" xlink:href="#DejaVuSans-2e"/>
       <use x="95.410156" xlink:href="#DejaVuSans-35"/>
       <use x="159.033203" xlink:href="#DejaVuSans-30"/>
      </g>
     </g>
    </g>
    <g id="ytick_8">
     <g id="line2d_15">
      <g>
       <use style="stroke:#000000;stroke-width:0.8;" x="57.6" xlink:href="#m8cd6628242" y="84.812496"/>
      </g>
     </g>
     <g id="text_16">
      <!-- 0.75 -->
      <g transform="translate(28.334375 88.611715)scale(0.1 -0.1)">
       <use xlink:href="#DejaVuSans-30"/>
       <use x="63.623047" xlink:href="#DejaVuSans-2e"/>
       <use x="95.410156" xlink:href="#DejaVuSans-37"/>
       <use x="159.033203" xlink:href="#DejaVuSans-35"/>
      </g>
     </g>
    </g>
    <g id="ytick_9">
     <g id="line2d_16">
      <g>
       <use style="stroke:#000000;stroke-width:0.8;" x="57.6" xlink:href="#m8cd6628242" y="54.71946"/>
      </g>
     </g>
     <g id="text_17">
      <!-- 1.00 -->
      <g transform="translate(28.334375 58.518679)scale(0.1 -0.1)">
       <use xlink:href="#DejaVuSans-31"/>
       <use x="63.623047" xlink:href="#DejaVuSans-2e"/>
       <use x="95.410156" xlink:href="#DejaVuSans-30"/>
       <use x="159.033203" xlink:href="#DejaVuSans-30"/>
      </g>
     </g>
    </g>
    <g id="text_18">
     <!-- Total Parity -->
     <defs>
      <path d="M 30.609375 48.390625 
Q 23.390625 48.390625 19.1875 42.75 
Q 14.984375 37.109375 14.984375 27.296875 
Q 14.984375 17.484375 19.15625 11.84375 
Q 23.34375 6.203125 30.609375 6.203125 
Q 37.796875 6.203125 41.984375 11.859375 
Q 46.1875 17.53125 46.1875 27.296875 
Q 46.1875 37.015625 41.984375 42.703125 
Q 37.796875 48.390625 30.609375 48.390625 
M 30.609375 56 
Q 42.328125 56 49.015625 48.375 
Q 55.71875 40.765625 55.71875 27.296875 
Q 55.71875 13.875 49.015625 6.21875 
Q 42.328125 -1.421875 30.609375 -1.421875 
Q 18.84375 -1.421875 12.171875 6.21875 
Q 5.515625 13.875 5.515625 27.296875 
Q 5.515625 40.765625 12.171875 48.375 
Q 18.84375 56 30.609375 56 
" id="DejaVuSans-6f"/>
      <path d="M 9.421875 75.984375 
L 18.40625 75.984375 
L 18.40625 0 
L 9.421875 0 
z
" id="DejaVuSans-6c"/>
      <path d="M 19.671875 64.796875 
L 19.671875 37.40625 
L 32.078125 37.40625 
Q 38.96875 37.40625 42.71875 40.96875 
Q 46.484375 44.53125 46.484375 51.125 
Q 46.484375 57.671875 42.71875 61.234375 
Q 38.96875 64.796875 32.078125 64.796875 
z
M 9.8125 72.90625 
L 32.078125 72.90625 
Q 44.34375 72.90625 50.609375 67.359375 
Q 56.890625 61.8125 56.890625 51.125 
Q 56.890625 40.328125 50.609375 34.8125 
Q 44.34375 29.296875 32.078125 29.296875 
L 19.671875 29.296875 
L 19.671875 0 
L 9.8125 0 
z
" id="DejaVuSans-50"/>
      <path d="M 41.109375 46.296875 
Q 39.59375 47.171875 37.8125 47.578125 
Q 36.03125 48 33.890625 48 
Q 26.265625 48 22.1875 43.046875 
Q 18.109375 38.09375 18.109375 28.8125 
L 18.109375 0 
L 9.078125 0 
L 9.078125 54.6875 
L 18.109375 54.6875 
L 18.109375 46.1875 
Q 20.953125 51.171875 25.484375 53.578125 
Q 30.03125 56 36.53125 56 
Q 37.453125 56 38.578125 55.875 
Q 39.703125 55.765625 41.0625 55.515625 
z
" id="DejaVuSans-72"/>
      <path d="M 32.171875 -5.078125 
Q 28.375 -14.84375 24.75 -17.8125 
Q 21.140625 -20.796875 15.09375 -20.796875 
L 7.90625 -20.796875 
L 7.90625 -13.28125 
L 13.1875 -13.28125 
Q 16.890625 -13.28125 18.9375 -11.515625 
Q 21 -9.765625 23.484375 -3.21875 
L 25.09375 0.875 
L 2.984375 54.6875 
L 12.5 54.6875 
L 29.59375 11.921875 
L 46.6875 54.6875 
L 56.203125 54.6875 
z
" id="DejaVuSans-79"/>
     </defs>
     <g transform="translate(13.875 203.070188)rotate(-90)scale(0.1 -0.1)">
      <use xlink:href="#DejaVuSans-54"/>
      <use x="60.818359" xlink:href="#DejaVuSans-6f"/>
      <use x="122" xlink:href="#DejaVuSans-74"/>
      <use x="161.208984" xlink:href="#DejaVuSans-61"/>
      <use x="222.488281" xlink:href="#DejaVuSans-6c"/>
      <use x="250.271484" xlink:href="#DejaVuSans-20"/>
      <use x="282.058594" xlink:href="#DejaVuSans-50"/>
      <use x="342.298828" xlink:href="#DejaVuSans-61"/>
      <use x="403.578125" xlink:href="#DejaVuSans-72"/>
      <use x="444.691406" xlink:href="#DejaVuSans-69"/>
      <use x="472.474609" xlink:href="#DejaVuSans-74"/>
      <use x="511.683594" xlink:href="#DejaVuSans-79"/>
     </g>
    </g>
   </g>
   <g id="patch_3">
    <path d="M 57.6 307.584 
L 57.6 41.472 
" style="fill:none;stroke:#000000;stroke-linecap:square;stroke-linejoin:miter;stroke-width:0.8;"/>
   </g>
   <g id="patch_4">
    <path d="M 414.72 307.584 
L 414.72 41.472 
" style="fill:none;stroke:#000000;stroke-linecap:square;stroke-linejoin:miter;stroke-width:0.8;"/>
   </g>
   <g id="patch_5">
    <path d="M 57.6 307.584 
L 414.72 307.584 
" style="fill:none;stroke:#000000;stroke-linecap:square;stroke-linejoin:miter;stroke-width:0.8;"/>
   </g>
   <g id="patch_6">
    <path d="M 57.6 41.472 
L 414.72 41.472 
" style="fill:none;stroke:#000000;stroke-linecap:square;stroke-linejoin:miter;stroke-width:0.8;"/>
   </g>
  </g>
 </g>
 <defs>
  <clipPath id="p5b4183dc16">
   <rect height="266.112" width="357.12" x="57.6" y="41.472"/>
  </clipPath>
 </defs>
</svg>
