<?xml version="1.0" encoding="utf-8" standalone="no"?>
<!DOCTYPE svg PUBLIC "-//W3C//DTD SVG 1.1//EN"
  "http://www.w3.org/Graphics/SVG/1.1/DTD/svg11.dtd">
<!-- Created with matplotlib (http://matplotlib.org/) -->
<svg height="345pt" version="1.1" viewBox="0 0 460 345" width="460pt" xmlns="http://www.w3.org/2000/svg" xmlns:xlink="http://www.w3.org/1999/xlink">
 <defs>
  <style type="text/css">
*{stroke-linecap:butt;stroke-linejoin:round;}
  </style>
 </defs>
 <g id="figure_1">
  <g id="patch_1">
   <path d="M 0 345.6 
L 460.8 345.6 
L 460.8 0 
L 0 0 
z
" style="fill:#ffffff;"/>
  </g>
  <g id="axes_1">
   <g id="patch_2">
    <path d="M 57.6 307.584 
L 414.72 307.584 
L 414.72 41.472 
L 57.6 41.472 
z
" style="fill:#ffffff;"/>
   </g>
   <g id="PathCollection_1">
    <defs>
     <path d="M 0 3.535534 
C 0.937635 3.535534 1.836992 3.163008 2.5 2.5 
C 3.163008 1.836992 3.535534 0.937635 3.535534 0 
C 3.535534 -0.937635 3.163008 -1.836992 2.5 -2.5 
C 1.836992 -3.163008 0.937635 -3.535534 0 -3.535534 
C -0.937635 -3.535534 -1.836992 -3.163008 -2.5 -2.5 
C -3.163008 -1.836992 -3.535534 -0.937635 -3.535534 0 
C -3.535534 0.937635 -3.163008 1.836992 -2.5 2.5 
C -1.836992 3.163008 -0.937635 3.535534 0 3.535534 
z
" id="mcfe69926b8" style="stroke:#1f77b4;"/>
    </defs>
    <g clip-path="url(#p735b748cc1)">
     <use style="fill:#1f77b4;stroke:#1f77b4;" x="57.6" xlink:href="#mcfe69926b8" y="306.126779"/>
     <use style="fill:#1f77b4;stroke:#1f77b4;" x="69.504" xlink:href="#mcfe69926b8" y="306.409372"/>
     <use style="fill:#1f77b4;stroke:#1f77b4;" x="81.408" xlink:href="#mcfe69926b8" y="307.212602"/>
     <use style="fill:#1f77b4;stroke:#1f77b4;" x="93.312" xlink:href="#mcfe69926b8" y="306.66099"/>
     <use style="fill:#1f77b4;stroke:#1f77b4;" x="105.216" xlink:href="#mcfe69926b8" y="305.149127"/>
     <use style="fill:#1f77b4;stroke:#1f77b4;" x="117.12" xlink:href="#mcfe69926b8" y="303.373603"/>
     <use style="fill:#1f77b4;stroke:#1f77b4;" x="129.024" xlink:href="#mcfe69926b8" y="300.847762"/>
     <use style="fill:#1f77b4;stroke:#1f77b4;" x="140.928" xlink:href="#mcfe69926b8" y="305.668059"/>
     <use style="fill:#1f77b4;stroke:#1f77b4;" x="152.832" xlink:href="#mcfe69926b8" y="287.260098"/>
     <use style="fill:#1f77b4;stroke:#1f77b4;" x="164.736" xlink:href="#mcfe69926b8" y="285.262278"/>
     <use style="fill:#1f77b4;stroke:#1f77b4;" x="176.64" xlink:href="#mcfe69926b8" y="285.684025"/>
     <use style="fill:#1f77b4;stroke:#1f77b4;" x="188.544" xlink:href="#mcfe69926b8" y="284.518936"/>
     <use style="fill:#1f77b4;stroke:#1f77b4;" x="200.448" xlink:href="#mcfe69926b8" y="265.835043"/>
     <use style="fill:#1f77b4;stroke:#1f77b4;" x="212.352" xlink:href="#mcfe69926b8" y="258.217999"/>
     <use style="fill:#1f77b4;stroke:#1f77b4;" x="224.256" xlink:href="#mcfe69926b8" y="256.37353"/>
     <use style="fill:#1f77b4;stroke:#1f77b4;" x="236.16" xlink:href="#mcfe69926b8" y="237.431311"/>
     <use style="fill:#1f77b4;stroke:#1f77b4;" x="248.064" xlink:href="#mcfe69926b8" y="239.548546"/>
     <use style="fill:#1f77b4;stroke:#1f77b4;" x="259.968" xlink:href="#mcfe69926b8" y="246.398775"/>
     <use style="fill:#1f77b4;stroke:#1f77b4;" x="271.872" xlink:href="#mcfe69926b8" y="219.236365"/>
     <use style="fill:#1f77b4;stroke:#1f77b4;" x="283.776" xlink:href="#mcfe69926b8" y="208.030808"/>
     <use style="fill:#1f77b4;stroke:#1f77b4;" x="295.68" xlink:href="#mcfe69926b8" y="213.912131"/>
     <use style="fill:#1f77b4;stroke:#1f77b4;" x="307.584" xlink:href="#mcfe69926b8" y="240.04901"/>
     <use style="fill:#1f77b4;stroke:#1f77b4;" x="319.488" xlink:href="#mcfe69926b8" y="163.855194"/>
     <use style="fill:#1f77b4;stroke:#1f77b4;" x="331.392" xlink:href="#mcfe69926b8" y="162.778037"/>
     <use style="fill:#1f77b4;stroke:#1f77b4;" x="343.296" xlink:href="#mcfe69926b8" y="146.79774"/>
     <use style="fill:#1f77b4;stroke:#1f77b4;" x="355.2" xlink:href="#mcfe69926b8" y="133.429592"/>
     <use style="fill:#1f77b4;stroke:#1f77b4;" x="367.104" xlink:href="#mcfe69926b8" y="108.034075"/>
     <use style="fill:#1f77b4;stroke:#1f77b4;" x="379.008" xlink:href="#mcfe69926b8" y="143.89372"/>
     <use style="fill:#1f77b4;stroke:#1f77b4;" x="390.912" xlink:href="#mcfe69926b8" y="127.061704"/>
     <use style="fill:#1f77b4;stroke:#1f77b4;" x="402.816" xlink:href="#mcfe69926b8" y="105.395168"/>
     <use style="fill:#1f77b4;stroke:#1f77b4;" x="414.72" xlink:href="#mcfe69926b8" y="123.728963"/>
     <use style="fill:#1f77b4;stroke:#1f77b4;" x="426.624" xlink:href="#mcfe69926b8" y="88.429999"/>
     <use style="fill:#1f77b4;stroke:#1f77b4;" x="438.528" xlink:href="#mcfe69926b8" y="134.314987"/>
     <use style="fill:#1f77b4;stroke:#1f77b4;" x="450.432" xlink:href="#mcfe69926b8" y="149.046459"/>
     <use style="fill:#1f77b4;stroke:#1f77b4;" x="462.336" xlink:href="#mcfe69926b8" y="211.826901"/>
     <use style="fill:#1f77b4;stroke:#1f77b4;" x="474.24" xlink:href="#mcfe69926b8" y="201.086714"/>
     <use style="fill:#1f77b4;stroke:#1f77b4;" x="486.144" xlink:href="#mcfe69926b8" y="100.414602"/>
     <use style="fill:#1f77b4;stroke:#1f77b4;" x="498.048" xlink:href="#mcfe69926b8" y="156.731344"/>
     <use style="fill:#1f77b4;stroke:#1f77b4;" x="509.952" xlink:href="#mcfe69926b8" y="82.229833"/>
     <use style="fill:#1f77b4;stroke:#1f77b4;" x="521.856" xlink:href="#mcfe69926b8" y="78.704296"/>
     <use style="fill:#1f77b4;stroke:#1f77b4;" x="533.76" xlink:href="#mcfe69926b8" y="195.371425"/>
     <use style="fill:#1f77b4;stroke:#1f77b4;" x="545.664" xlink:href="#mcfe69926b8" y="210.225047"/>
     <use style="fill:#1f77b4;stroke:#1f77b4;" x="557.568" xlink:href="#mcfe69926b8" y="213.671703"/>
     <use style="fill:#1f77b4;stroke:#1f77b4;" x="569.472" xlink:href="#mcfe69926b8" y="276.277724"/>
     <use style="fill:#1f77b4;stroke:#1f77b4;" x="581.376" xlink:href="#mcfe69926b8" y="282.320345"/>
     <use style="fill:#1f77b4;stroke:#1f77b4;" x="593.28" xlink:href="#mcfe69926b8" y="170.479673"/>
     <use style="fill:#1f77b4;stroke:#1f77b4;" x="605.184" xlink:href="#mcfe69926b8" y="266.202503"/>
     <use style="fill:#1f77b4;stroke:#1f77b4;" x="617.088" xlink:href="#mcfe69926b8" y="168.462624"/>
     <use style="fill:#1f77b4;stroke:#1f77b4;" x="628.305091" xlink:href="#mcfe69926b8" y="-1"/>
     <use style="fill:#1f77b4;stroke:#1f77b4;" x="630.389081" xlink:href="#mcfe69926b8" y="-1"/>
     <use style="fill:#1f77b4;stroke:#1f77b4;" x="640.896" xlink:href="#mcfe69926b8" y="77.045318"/>
     <use style="fill:#1f77b4;stroke:#1f77b4;" x="652.8" xlink:href="#mcfe69926b8" y="105.927915"/>
     <use style="fill:#1f77b4;stroke:#1f77b4;" x="657.497689" xlink:href="#mcfe69926b8" y="-1"/>
    </g>
   </g>
   <g id="matplotlib.axis_1">
    <g id="xtick_1">
     <g id="line2d_1">
      <defs>
       <path d="M 0 0 
L 0 3.5 
" id="m4403d2a24c" style="stroke:#000000;stroke-width:0.8;"/>
      </defs>
      <g>
       <use style="stroke:#000000;stroke-width:0.8;" x="57.6" xlink:href="#m4403d2a24c" y="307.584"/>
      </g>
     </g>
     <g id="text_1">
      <!-- 0.000 -->
      <defs>
       <path d="M 31.78125 66.40625 
Q 24.171875 66.40625 20.328125 58.90625 
Q 16.5 51.421875 16.5 36.375 
Q 16.5 21.390625 20.328125 13.890625 
Q 24.171875 6.390625 31.78125 6.390625 
Q 39.453125 6.390625 43.28125 13.890625 
Q 47.125 21.390625 47.125 36.375 
Q 47.125 51.421875 43.28125 58.90625 
Q 39.453125 66.40625 31.78125 66.40625 
M 31.78125 74.21875 
Q 44.046875 74.21875 50.515625 64.515625 
Q 56.984375 54.828125 56.984375 36.375 
Q 56.984375 17.96875 50.515625 8.265625 
Q 44.046875 -1.421875 31.78125 -1.421875 
Q 19.53125 -1.421875 13.0625 8.265625 
Q 6.59375 17.96875 6.59375 36.375 
Q 6.59375 54.828125 13.0625 64.515625 
Q 19.53125 74.21875 31.78125 74.21875 
" id="DejaVuSans-30"/>
       <path d="M 10.6875 12.40625 
L 21 12.40625 
L 21 0 
L 10.6875 0 
z
" id="DejaVuSans-2e"/>
      </defs>
      <g transform="translate(43.285938 322.182437)scale(0.1 -0.1)">
       <use xlink:href="#DejaVuSans-30"/>
       <use x="63.623047" xlink:href="#DejaVuSans-2e"/>
       <use x="95.410156" xlink:href="#DejaVuSans-30"/>
       <use x="159.033203" xlink:href="#DejaVuSans-30"/>
       <use x="222.65625" xlink:href="#DejaVuSans-30"/>
      </g>
     </g>
    </g>
    <g id="xtick_2">
     <g id="line2d_2">
      <g>
       <use style="stroke:#000000;stroke-width:0.8;" x="117.12" xlink:href="#m4403d2a24c" y="307.584"/>
      </g>
     </g>
     <g id="text_2">
      <!-- 0.005 -->
      <defs>
       <path d="M 10.796875 72.90625 
L 49.515625 72.90625 
L 49.515625 64.59375 
L 19.828125 64.59375 
L 19.828125 46.734375 
Q 21.96875 47.46875 24.109375 47.828125 
Q 26.265625 48.1875 28.421875 48.1875 
Q 40.625 48.1875 47.75 41.5 
Q 54.890625 34.8125 54.890625 23.390625 
Q 54.890625 11.625 47.5625 5.09375 
Q 40.234375 -1.421875 26.90625 -1.421875 
Q 22.3125 -1.421875 17.546875 -0.640625 
Q 12.796875 0.140625 7.71875 1.703125 
L 7.71875 11.625 
Q 12.109375 9.234375 16.796875 8.0625 
Q 21.484375 6.890625 26.703125 6.890625 
Q 35.15625 6.890625 40.078125 11.328125 
Q 45.015625 15.765625 45.015625 23.390625 
Q 45.015625 31 40.078125 35.4375 
Q 35.15625 39.890625 26.703125 39.890625 
Q 22.75 39.890625 18.8125 39.015625 
Q 14.890625 38.140625 10.796875 36.28125 
z
" id="DejaVuSans-35"/>
      </defs>
      <g transform="translate(102.805937 322.182437)scale(0.1 -0.1)">
       <use xlink:href="#DejaVuSans-30"/>
       <use x="63.623047" xlink:href="#DejaVuSans-2e"/>
       <use x="95.410156" xlink:href="#DejaVuSans-30"/>
       <use x="159.033203" xlink:href="#DejaVuSans-30"/>
       <use x="222.65625" xlink:href="#DejaVuSans-35"/>
      </g>
     </g>
    </g>
    <g id="xtick_3">
     <g id="line2d_3">
      <g>
       <use style="stroke:#000000;stroke-width:0.8;" x="176.64" xlink:href="#m4403d2a24c" y="307.584"/>
      </g>
     </g>
     <g id="text_3">
      <!-- 0.010 -->
      <defs>
       <path d="M 12.40625 8.296875 
L 28.515625 8.296875 
L 28.515625 63.921875 
L 10.984375 60.40625 
L 10.984375 69.390625 
L 28.421875 72.90625 
L 38.28125 72.90625 
L 38.28125 8.296875 
L 54.390625 8.296875 
L 54.390625 0 
L 12.40625 0 
z
" id="DejaVuSans-31"/>
      </defs>
      <g transform="translate(162.325938 322.182437)scale(0.1 -0.1)">
       <use xlink:href="#DejaVuSans-30"/>
       <use x="63.623047" xlink:href="#DejaVuSans-2e"/>
       <use x="95.410156" xlink:href="#DejaVuSans-30"/>
       <use x="159.033203" xlink:href="#DejaVuSans-31"/>
       <use x="222.65625" xlink:href="#DejaVuSans-30"/>
      </g>
     </g>
    </g>
    <g id="xtick_4">
     <g id="line2d_4">
      <g>
       <use style="stroke:#000000;stroke-width:0.8;" x="236.16" xlink:href="#m4403d2a24c" y="307.584"/>
      </g>
     </g>
     <g id="text_4">
      <!-- 0.015 -->
      <g transform="translate(221.845938 322.182437)scale(0.1 -0.1)">
       <use xlink:href="#DejaVuSans-30"/>
       <use x="63.623047" xlink:href="#DejaVuSans-2e"/>
       <use x="95.410156" xlink:href="#DejaVuSans-30"/>
       <use x="159.033203" xlink:href="#DejaVuSans-31"/>
       <use x="222.65625" xlink:href="#DejaVuSans-35"/>
      </g>
     </g>
    </g>
    <g id="xtick_5">
     <g id="line2d_5">
      <g>
       <use style="stroke:#000000;stroke-width:0.8;" x="295.68" xlink:href="#m4403d2a24c" y="307.584"/>
      </g>
     </g>
     <g id="text_5">
      <!-- 0.020 -->
      <defs>
       <path d="M 19.1875 8.296875 
L 53.609375 8.296875 
L 53.609375 0 
L 7.328125 0 
L 7.328125 8.296875 
Q 12.9375 14.109375 22.625 23.890625 
Q 32.328125 33.6875 34.8125 36.53125 
Q 39.546875 41.84375 41.421875 45.53125 
Q 43.3125 49.21875 43.3125 52.78125 
Q 43.3125 58.59375 39.234375 62.25 
Q 35.15625 65.921875 28.609375 65.921875 
Q 23.96875 65.921875 18.8125 64.3125 
Q 13.671875 62.703125 7.8125 59.421875 
L 7.8125 69.390625 
Q 13.765625 71.78125 18.9375 73 
Q 24.125 74.21875 28.421875 74.21875 
Q 39.75 74.21875 46.484375 68.546875 
Q 53.21875 62.890625 53.21875 53.421875 
Q 53.21875 48.921875 51.53125 44.890625 
Q 49.859375 40.875 45.40625 35.40625 
Q 44.1875 33.984375 37.640625 27.21875 
Q 31.109375 20.453125 19.1875 8.296875 
" id="DejaVuSans-32"/>
      </defs>
      <g transform="translate(281.365938 322.182437)scale(0.1 -0.1)">
       <use xlink:href="#DejaVuSans-30"/>
       <use x="63.623047" xlink:href="#DejaVuSans-2e"/>
       <use x="95.410156" xlink:href="#DejaVuSans-30"/>
       <use x="159.033203" xlink:href="#DejaVuSans-32"/>
       <use x="222.65625" xlink:href="#DejaVuSans-30"/>
      </g>
     </g>
    </g>
    <g id="xtick_6">
     <g id="line2d_6">
      <g>
       <use style="stroke:#000000;stroke-width:0.8;" x="355.2" xlink:href="#m4403d2a24c" y="307.584"/>
      </g>
     </g>
     <g id="text_6">
      <!-- 0.025 -->
      <g transform="translate(340.885938 322.182437)scale(0.1 -0.1)">
       <use xlink:href="#DejaVuSans-30"/>
       <use x="63.623047" xlink:href="#DejaVuSans-2e"/>
       <use x="95.410156" xlink:href="#DejaVuSans-30"/>
       <use x="159.033203" xlink:href="#DejaVuSans-32"/>
       <use x="222.65625" xlink:href="#DejaVuSans-35"/>
      </g>
     </g>
    </g>
    <g id="xtick_7">
     <g id="line2d_7">
      <g>
       <use style="stroke:#000000;stroke-width:0.8;" x="414.72" xlink:href="#m4403d2a24c" y="307.584"/>
      </g>
     </g>
     <g id="text_7">
      <!-- 0.030 -->
      <defs>
       <path d="M 40.578125 39.3125 
Q 47.65625 37.796875 51.625 33 
Q 55.609375 28.21875 55.609375 21.1875 
Q 55.609375 10.40625 48.1875 4.484375 
Q 40.765625 -1.421875 27.09375 -1.421875 
Q 22.515625 -1.421875 17.65625 -0.515625 
Q 12.796875 0.390625 7.625 2.203125 
L 7.625 11.71875 
Q 11.71875 9.328125 16.59375 8.109375 
Q 21.484375 6.890625 26.8125 6.890625 
Q 36.078125 6.890625 40.9375 10.546875 
Q 45.796875 14.203125 45.796875 21.1875 
Q 45.796875 27.640625 41.28125 31.265625 
Q 36.765625 34.90625 28.71875 34.90625 
L 20.21875 34.90625 
L 20.21875 43.015625 
L 29.109375 43.015625 
Q 36.375 43.015625 40.234375 45.921875 
Q 44.09375 48.828125 44.09375 54.296875 
Q 44.09375 59.90625 40.109375 62.90625 
Q 36.140625 65.921875 28.71875 65.921875 
Q 24.65625 65.921875 20.015625 65.03125 
Q 15.375 64.15625 9.8125 62.3125 
L 9.8125 71.09375 
Q 15.4375 72.65625 20.34375 73.4375 
Q 25.25 74.21875 29.59375 74.21875 
Q 40.828125 74.21875 47.359375 69.109375 
Q 53.90625 64.015625 53.90625 55.328125 
Q 53.90625 49.265625 50.4375 45.09375 
Q 46.96875 40.921875 40.578125 39.3125 
" id="DejaVuSans-33"/>
      </defs>
      <g transform="translate(400.405938 322.182437)scale(0.1 -0.1)">
       <use xlink:href="#DejaVuSans-30"/>
       <use x="63.623047" xlink:href="#DejaVuSans-2e"/>
       <use x="95.410156" xlink:href="#DejaVuSans-30"/>
       <use x="159.033203" xlink:href="#DejaVuSans-33"/>
       <use x="222.65625" xlink:href="#DejaVuSans-30"/>
      </g>
     </g>
    </g>
   </g>
   <g id="matplotlib.axis_2">
    <g id="ytick_1">
     <g id="line2d_8">
      <defs>
       <path d="M 0 0 
L -3.5 0 
" id="mc63c03d995" style="stroke:#000000;stroke-width:0.8;"/>
      </defs>
      <g>
       <use style="stroke:#000000;stroke-width:0.8;" x="57.6" xlink:href="#mc63c03d995" y="307.584"/>
      </g>
     </g>
     <g id="text_8">
      <!-- 0.00000 -->
      <g transform="translate(9.246875 311.383219)scale(0.1 -0.1)">
       <use xlink:href="#DejaVuSans-30"/>
       <use x="63.623047" xlink:href="#DejaVuSans-2e"/>
       <use x="95.410156" xlink:href="#DejaVuSans-30"/>
       <use x="159.033203" xlink:href="#DejaVuSans-30"/>
       <use x="222.65625" xlink:href="#DejaVuSans-30"/>
       <use x="286.279297" xlink:href="#DejaVuSans-30"/>
       <use x="349.902344" xlink:href="#DejaVuSans-30"/>
      </g>
     </g>
    </g>
    <g id="ytick_2">
     <g id="line2d_9">
      <g>
       <use style="stroke:#000000;stroke-width:0.8;" x="57.6" xlink:href="#mc63c03d995" y="263.232"/>
      </g>
     </g>
     <g id="text_9">
      <!-- 0.00005 -->
      <g transform="translate(9.246875 267.031219)scale(0.1 -0.1)">
       <use xlink:href="#DejaVuSans-30"/>
       <use x="63.623047" xlink:href="#DejaVuSans-2e"/>
       <use x="95.410156" xlink:href="#DejaVuSans-30"/>
       <use x="159.033203" xlink:href="#DejaVuSans-30"/>
       <use x="222.65625" xlink:href="#DejaVuSans-30"/>
       <use x="286.279297" xlink:href="#DejaVuSans-30"/>
       <use x="349.902344" xlink:href="#DejaVuSans-35"/>
      </g>
     </g>
    </g>
    <g id="ytick_3">
     <g id="line2d_10">
      <g>
       <use style="stroke:#000000;stroke-width:0.8;" x="57.6" xlink:href="#mc63c03d995" y="218.88"/>
      </g>
     </g>
     <g id="text_10">
      <!-- 0.00010 -->
      <g transform="translate(9.246875 222.679219)scale(0.1 -0.1)">
       <use xlink:href="#DejaVuSans-30"/>
       <use x="63.623047" xlink:href="#DejaVuSans-2e"/>
       <use x="95.410156" xlink:href="#DejaVuSans-30"/>
       <use x="159.033203" xlink:href="#DejaVuSans-30"/>
       <use x="222.65625" xlink:href="#DejaVuSans-30"/>
       <use x="286.279297" xlink:href="#DejaVuSans-31"/>
       <use x="349.902344" xlink:href="#DejaVuSans-30"/>
      </g>
     </g>
    </g>
    <g id="ytick_4">
     <g id="line2d_11">
      <g>
       <use style="stroke:#000000;stroke-width:0.8;" x="57.6" xlink:href="#mc63c03d995" y="174.528"/>
      </g>
     </g>
     <g id="text_11">
      <!-- 0.00015 -->
      <g transform="translate(9.246875 178.327219)scale(0.1 -0.1)">
       <use xlink:href="#DejaVuSans-30"/>
       <use x="63.623047" xlink:href="#DejaVuSans-2e"/>
       <use x="95.410156" xlink:href="#DejaVuSans-30"/>
       <use x="159.033203" xlink:href="#DejaVuSans-30"/>
       <use x="222.65625" xlink:href="#DejaVuSans-30"/>
       <use x="286.279297" xlink:href="#DejaVuSans-31"/>
       <use x="349.902344" xlink:href="#DejaVuSans-35"/>
      </g>
     </g>
    </g>
    <g id="ytick_5">
     <g id="line2d_12">
      <g>
       <use style="stroke:#000000;stroke-width:0.8;" x="57.6" xlink:href="#mc63c03d995" y="130.176"/>
      </g>
     </g>
     <g id="text_12">
      <!-- 0.00020 -->
      <g transform="translate(9.246875 133.975219)scale(0.1 -0.1)">
       <use xlink:href="#DejaVuSans-30"/>
       <use x="63.623047" xlink:href="#DejaVuSans-2e"/>
       <use x="95.410156" xlink:href="#DejaVuSans-30"/>
       <use x="159.033203" xlink:href="#DejaVuSans-30"/>
       <use x="222.65625" xlink:href="#DejaVuSans-30"/>
       <use x="286.279297" xlink:href="#DejaVuSans-32"/>
       <use x="349.902344" xlink:href="#DejaVuSans-30"/>
      </g>
     </g>
    </g>
    <g id="ytick_6">
     <g id="line2d_13">
      <g>
       <use style="stroke:#000000;stroke-width:0.8;" x="57.6" xlink:href="#mc63c03d995" y="85.824"/>
      </g>
     </g>
     <g id="text_13">
      <!-- 0.00025 -->
      <g transform="translate(9.246875 89.623219)scale(0.1 -0.1)">
       <use xlink:href="#DejaVuSans-30"/>
       <use x="63.623047" xlink:href="#DejaVuSans-2e"/>
       <use x="95.410156" xlink:href="#DejaVuSans-30"/>
       <use x="159.033203" xlink:href="#DejaVuSans-30"/>
       <use x="222.65625" xlink:href="#DejaVuSans-30"/>
       <use x="286.279297" xlink:href="#DejaVuSans-32"/>
       <use x="349.902344" xlink:href="#DejaVuSans-35"/>
      </g>
     </g>
    </g>
    <g id="ytick_7">
     <g id="line2d_14">
      <g>
       <use style="stroke:#000000;stroke-width:0.8;" x="57.6" xlink:href="#mc63c03d995" y="41.472"/>
      </g>
     </g>
     <g id="text_14">
      <!-- 0.00030 -->
      <g transform="translate(9.246875 45.271219)scale(0.1 -0.1)">
       <use xlink:href="#DejaVuSans-30"/>
       <use x="63.623047" xlink:href="#DejaVuSans-2e"/>
       <use x="95.410156" xlink:href="#DejaVuSans-30"/>
       <use x="159.033203" xlink:href="#DejaVuSans-30"/>
       <use x="222.65625" xlink:href="#DejaVuSans-30"/>
       <use x="286.279297" xlink:href="#DejaVuSans-33"/>
       <use x="349.902344" xlink:href="#DejaVuSans-30"/>
      </g>
     </g>
    </g>
   </g>
   <g id="patch_3">
    <path d="M 57.6 307.584 
L 57.6 41.472 
" style="fill:none;stroke:#000000;stroke-linecap:square;stroke-linejoin:miter;stroke-width:0.8;"/>
   </g>
   <g id="patch_4">
    <path d="M 414.72 307.584 
L 414.72 41.472 
" style="fill:none;stroke:#000000;stroke-linecap:square;stroke-linejoin:miter;stroke-width:0.8;"/>
   </g>
   <g id="patch_5">
    <path d="M 57.6 307.584 
L 414.72 307.584 
" style="fill:none;stroke:#000000;stroke-linecap:square;stroke-linejoin:miter;stroke-width:0.8;"/>
   </g>
   <g id="patch_6">
    <path d="M 57.6 41.472 
L 414.72 41.472 
" style="fill:none;stroke:#000000;stroke-linecap:square;stroke-linejoin:miter;stroke-width:0.8;"/>
   </g>
  </g>
 </g>
 <defs>
  <clipPath id="p735b748cc1">
   <rect height="266.112" width="357.12" x="57.6" y="41.472"/>
  </clipPath>
 </defs>
</svg>
