<?xml version="1.0" encoding="utf-8" standalone="no"?>
<!DOCTYPE svg PUBLIC "-//W3C//DTD SVG 1.1//EN"
  "http://www.w3.org/Graphics/SVG/1.1/DTD/svg11.dtd">
<!-- Created with matplotlib (http://matplotlib.org/) -->
<svg height="345pt" version="1.1" viewBox="0 0 460 345" width="460pt" xmlns="http://www.w3.org/2000/svg" xmlns:xlink="http://www.w3.org/1999/xlink">
 <defs>
  <style type="text/css">
*{stroke-linecap:butt;stroke-linejoin:round;}
  </style>
 </defs>
 <g id="figure_1">
  <g id="patch_1">
   <path d="M 0 345.6 
L 460.8 345.6 
L 460.8 0 
L 0 0 
z
" style="fill:#ffffff;"/>
  </g>
  <g id="axes_1">
   <g id="patch_2">
    <path d="M 57.6 307.584 
L 414.72 307.584 
L 414.72 41.472 
L 57.6 41.472 
z
" style="fill:#ffffff;"/>
   </g>
   <g id="PathCollection_1">
    <defs>
     <path d="M 0 3.535534 
C 0.937635 3.535534 1.836992 3.163008 2.5 2.5 
C 3.163008 1.836992 3.535534 0.937635 3.535534 0 
C 3.535534 -0.937635 3.163008 -1.836992 2.5 -2.5 
C 1.836992 -3.163008 0.937635 -3.535534 0 -3.535534 
C -0.937635 -3.535534 -1.836992 -3.163008 -2.5 -2.5 
C -3.163008 -1.836992 -3.535534 -0.937635 -3.535534 0 
C -3.535534 0.937635 -3.163008 1.836992 -2.5 2.5 
C -1.836992 3.163008 -0.937635 3.535534 0 3.535534 
z
" id="ma51c8ad539" style="stroke:#1f77b4;"/>
    </defs>
    <g clip-path="url(#p832fc0c436)">
     <use style="fill:#1f77b4;stroke:#1f77b4;" x="76.137087" xlink:href="#ma51c8ad539" y="293.203607"/>
     <use style="fill:#1f77b4;stroke:#1f77b4;" x="79.369873" xlink:href="#ma51c8ad539" y="293.1032"/>
     <use style="fill:#1f77b4;stroke:#1f77b4;" x="82.602659" xlink:href="#ma51c8ad539" y="292.852851"/>
     <use style="fill:#1f77b4;stroke:#1f77b4;" x="85.835445" xlink:href="#ma51c8ad539" y="292.49656"/>
     <use style="fill:#1f77b4;stroke:#1f77b4;" x="89.068232" xlink:href="#ma51c8ad539" y="292.143597"/>
     <use style="fill:#1f77b4;stroke:#1f77b4;" x="92.301018" xlink:href="#ma51c8ad539" y="291.9008"/>
     <use style="fill:#1f77b4;stroke:#1f77b4;" x="95.533804" xlink:href="#ma51c8ad539" y="291.822702"/>
     <use style="fill:#1f77b4;stroke:#1f77b4;" x="98.76659" xlink:href="#ma51c8ad539" y="291.822731"/>
     <use style="fill:#1f77b4;stroke:#1f77b4;" x="101.999376" xlink:href="#ma51c8ad539" y="291.740761"/>
     <use style="fill:#1f77b4;stroke:#1f77b4;" x="105.232162" xlink:href="#ma51c8ad539" y="291.313684"/>
     <use style="fill:#1f77b4;stroke:#1f77b4;" x="108.464948" xlink:href="#ma51c8ad539" y="290.183567"/>
     <use style="fill:#1f77b4;stroke:#1f77b4;" x="111.697734" xlink:href="#ma51c8ad539" y="288.038543"/>
     <use style="fill:#1f77b4;stroke:#1f77b4;" x="114.930521" xlink:href="#ma51c8ad539" y="284.857906"/>
     <use style="fill:#1f77b4;stroke:#1f77b4;" x="118.163307" xlink:href="#ma51c8ad539" y="280.958824"/>
     <use style="fill:#1f77b4;stroke:#1f77b4;" x="121.396093" xlink:href="#ma51c8ad539" y="276.945"/>
     <use style="fill:#1f77b4;stroke:#1f77b4;" x="124.628879" xlink:href="#ma51c8ad539" y="273.524567"/>
     <use style="fill:#1f77b4;stroke:#1f77b4;" x="127.861665" xlink:href="#ma51c8ad539" y="271.479839"/>
     <use style="fill:#1f77b4;stroke:#1f77b4;" x="131.094451" xlink:href="#ma51c8ad539" y="270.693397"/>
     <use style="fill:#1f77b4;stroke:#1f77b4;" x="134.327237" xlink:href="#ma51c8ad539" y="271.21374"/>
     <use style="fill:#1f77b4;stroke:#1f77b4;" x="137.560023" xlink:href="#ma51c8ad539" y="272.32114"/>
     <use style="fill:#1f77b4;stroke:#1f77b4;" x="140.79281" xlink:href="#ma51c8ad539" y="273.504088"/>
     <use style="fill:#1f77b4;stroke:#1f77b4;" x="144.025596" xlink:href="#ma51c8ad539" y="274.217125"/>
     <use style="fill:#1f77b4;stroke:#1f77b4;" x="147.258382" xlink:href="#ma51c8ad539" y="274.086805"/>
     <use style="fill:#1f77b4;stroke:#1f77b4;" x="150.491168" xlink:href="#ma51c8ad539" y="272.344085"/>
     <use style="fill:#1f77b4;stroke:#1f77b4;" x="153.723954" xlink:href="#ma51c8ad539" y="269.651247"/>
     <use style="fill:#1f77b4;stroke:#1f77b4;" x="156.95674" xlink:href="#ma51c8ad539" y="266.618227"/>
     <use style="fill:#1f77b4;stroke:#1f77b4;" x="160.189526" xlink:href="#ma51c8ad539" y="261.578204"/>
     <use style="fill:#1f77b4;stroke:#1f77b4;" x="163.422312" xlink:href="#ma51c8ad539" y="254.111939"/>
     <use style="fill:#1f77b4;stroke:#1f77b4;" x="166.655098" xlink:href="#ma51c8ad539" y="244.452786"/>
     <use style="fill:#1f77b4;stroke:#1f77b4;" x="169.887885" xlink:href="#ma51c8ad539" y="235.893689"/>
     <use style="fill:#1f77b4;stroke:#1f77b4;" x="173.120671" xlink:href="#ma51c8ad539" y="224.310482"/>
     <use style="fill:#1f77b4;stroke:#1f77b4;" x="176.353457" xlink:href="#ma51c8ad539" y="216.727755"/>
     <use style="fill:#1f77b4;stroke:#1f77b4;" x="179.586243" xlink:href="#ma51c8ad539" y="209.702296"/>
     <use style="fill:#1f77b4;stroke:#1f77b4;" x="182.819029" xlink:href="#ma51c8ad539" y="209.247609"/>
     <use style="fill:#1f77b4;stroke:#1f77b4;" x="186.051815" xlink:href="#ma51c8ad539" y="208.268685"/>
     <use style="fill:#1f77b4;stroke:#1f77b4;" x="189.284601" xlink:href="#ma51c8ad539" y="209.724841"/>
     <use style="fill:#1f77b4;stroke:#1f77b4;" x="192.517387" xlink:href="#ma51c8ad539" y="211.276537"/>
     <use style="fill:#1f77b4;stroke:#1f77b4;" x="195.750174" xlink:href="#ma51c8ad539" y="210.307156"/>
     <use style="fill:#1f77b4;stroke:#1f77b4;" x="198.98296" xlink:href="#ma51c8ad539" y="210.663087"/>
     <use style="fill:#1f77b4;stroke:#1f77b4;" x="202.215746" xlink:href="#ma51c8ad539" y="206.490541"/>
     <use style="fill:#1f77b4;stroke:#1f77b4;" x="205.448532" xlink:href="#ma51c8ad539" y="196.969696"/>
     <use style="fill:#1f77b4;stroke:#1f77b4;" x="208.681318" xlink:href="#ma51c8ad539" y="189.603429"/>
     <use style="fill:#1f77b4;stroke:#1f77b4;" x="211.914104" xlink:href="#ma51c8ad539" y="176.961648"/>
     <use style="fill:#1f77b4;stroke:#1f77b4;" x="215.14689" xlink:href="#ma51c8ad539" y="166.861448"/>
     <use style="fill:#1f77b4;stroke:#1f77b4;" x="218.379676" xlink:href="#ma51c8ad539" y="169.994575"/>
     <use style="fill:#1f77b4;stroke:#1f77b4;" x="221.612462" xlink:href="#ma51c8ad539" y="166.065501"/>
     <use style="fill:#1f77b4;stroke:#1f77b4;" x="224.845249" xlink:href="#ma51c8ad539" y="167.9232"/>
     <use style="fill:#1f77b4;stroke:#1f77b4;" x="228.078035" xlink:href="#ma51c8ad539" y="170.566375"/>
     <use style="fill:#1f77b4;stroke:#1f77b4;" x="231.310821" xlink:href="#ma51c8ad539" y="178.978236"/>
     <use style="fill:#1f77b4;stroke:#1f77b4;" x="234.543607" xlink:href="#ma51c8ad539" y="181.008626"/>
     <use style="fill:#1f77b4;stroke:#1f77b4;" x="237.776393" xlink:href="#ma51c8ad539" y="187.711267"/>
     <use style="fill:#1f77b4;stroke:#1f77b4;" x="241.009179" xlink:href="#ma51c8ad539" y="183.420723"/>
     <use style="fill:#1f77b4;stroke:#1f77b4;" x="244.241965" xlink:href="#ma51c8ad539" y="186.444394"/>
     <use style="fill:#1f77b4;stroke:#1f77b4;" x="247.474751" xlink:href="#ma51c8ad539" y="175.493036"/>
     <use style="fill:#1f77b4;stroke:#1f77b4;" x="250.707538" xlink:href="#ma51c8ad539" y="178.816373"/>
     <use style="fill:#1f77b4;stroke:#1f77b4;" x="253.940324" xlink:href="#ma51c8ad539" y="174.086908"/>
     <use style="fill:#1f77b4;stroke:#1f77b4;" x="257.17311" xlink:href="#ma51c8ad539" y="180.25339"/>
     <use style="fill:#1f77b4;stroke:#1f77b4;" x="260.405896" xlink:href="#ma51c8ad539" y="184.254781"/>
     <use style="fill:#1f77b4;stroke:#1f77b4;" x="263.638682" xlink:href="#ma51c8ad539" y="170.290105"/>
     <use style="fill:#1f77b4;stroke:#1f77b4;" x="266.871468" xlink:href="#ma51c8ad539" y="171.303834"/>
     <use style="fill:#1f77b4;stroke:#1f77b4;" x="270.104254" xlink:href="#ma51c8ad539" y="166.963158"/>
     <use style="fill:#1f77b4;stroke:#1f77b4;" x="273.33704" xlink:href="#ma51c8ad539" y="161.874735"/>
     <use style="fill:#1f77b4;stroke:#1f77b4;" x="276.569826" xlink:href="#ma51c8ad539" y="160.831193"/>
     <use style="fill:#1f77b4;stroke:#1f77b4;" x="279.802613" xlink:href="#ma51c8ad539" y="141.221086"/>
     <use style="fill:#1f77b4;stroke:#1f77b4;" x="283.035399" xlink:href="#ma51c8ad539" y="115.876915"/>
     <use style="fill:#1f77b4;stroke:#1f77b4;" x="286.268185" xlink:href="#ma51c8ad539" y="106.24286"/>
     <use style="fill:#1f77b4;stroke:#1f77b4;" x="289.500971" xlink:href="#ma51c8ad539" y="87.209234"/>
     <use style="fill:#1f77b4;stroke:#1f77b4;" x="292.733757" xlink:href="#ma51c8ad539" y="81.957985"/>
     <use style="fill:#1f77b4;stroke:#1f77b4;" x="295.966543" xlink:href="#ma51c8ad539" y="67.642854"/>
     <use style="fill:#1f77b4;stroke:#1f77b4;" x="299.199329" xlink:href="#ma51c8ad539" y="68.263387"/>
     <use style="fill:#1f77b4;stroke:#1f77b4;" x="302.432115" xlink:href="#ma51c8ad539" y="70.095781"/>
     <use style="fill:#1f77b4;stroke:#1f77b4;" x="305.664902" xlink:href="#ma51c8ad539" y="70.056112"/>
     <use style="fill:#1f77b4;stroke:#1f77b4;" x="308.897688" xlink:href="#ma51c8ad539" y="71.304914"/>
     <use style="fill:#1f77b4;stroke:#1f77b4;" x="312.130474" xlink:href="#ma51c8ad539" y="57.809393"/>
     <use style="fill:#1f77b4;stroke:#1f77b4;" x="315.36326" xlink:href="#ma51c8ad539" y="61.847024"/>
     <use style="fill:#1f77b4;stroke:#1f77b4;" x="318.596046" xlink:href="#ma51c8ad539" y="72.202722"/>
     <use style="fill:#1f77b4;stroke:#1f77b4;" x="321.828832" xlink:href="#ma51c8ad539" y="89.792601"/>
     <use style="fill:#1f77b4;stroke:#1f77b4;" x="325.061618" xlink:href="#ma51c8ad539" y="101.621371"/>
     <use style="fill:#1f77b4;stroke:#1f77b4;" x="328.294404" xlink:href="#ma51c8ad539" y="84.349282"/>
     <use style="fill:#1f77b4;stroke:#1f77b4;" x="331.52719" xlink:href="#ma51c8ad539" y="81.714504"/>
     <use style="fill:#1f77b4;stroke:#1f77b4;" x="334.759977" xlink:href="#ma51c8ad539" y="77.667779"/>
     <use style="fill:#1f77b4;stroke:#1f77b4;" x="337.992763" xlink:href="#ma51c8ad539" y="69.501416"/>
     <use style="fill:#1f77b4;stroke:#1f77b4;" x="341.225549" xlink:href="#ma51c8ad539" y="67.440673"/>
     <use style="fill:#1f77b4;stroke:#1f77b4;" x="344.458335" xlink:href="#ma51c8ad539" y="56.385387"/>
     <use style="fill:#1f77b4;stroke:#1f77b4;" x="347.691121" xlink:href="#ma51c8ad539" y="55.852393"/>
     <use style="fill:#1f77b4;stroke:#1f77b4;" x="350.923907" xlink:href="#ma51c8ad539" y="65.807062"/>
     <use style="fill:#1f77b4;stroke:#1f77b4;" x="354.156693" xlink:href="#ma51c8ad539" y="59.530446"/>
     <use style="fill:#1f77b4;stroke:#1f77b4;" x="357.389479" xlink:href="#ma51c8ad539" y="58.537342"/>
     <use style="fill:#1f77b4;stroke:#1f77b4;" x="360.622266" xlink:href="#ma51c8ad539" y="57.030456"/>
     <use style="fill:#1f77b4;stroke:#1f77b4;" x="363.855052" xlink:href="#ma51c8ad539" y="58.184387"/>
     <use style="fill:#1f77b4;stroke:#1f77b4;" x="367.087838" xlink:href="#ma51c8ad539" y="72.74593"/>
     <use style="fill:#1f77b4;stroke:#1f77b4;" x="370.320624" xlink:href="#ma51c8ad539" y="69.211306"/>
     <use style="fill:#1f77b4;stroke:#1f77b4;" x="373.55341" xlink:href="#ma51c8ad539" y="65.199506"/>
     <use style="fill:#1f77b4;stroke:#1f77b4;" x="376.786196" xlink:href="#ma51c8ad539" y="60.202091"/>
     <use style="fill:#1f77b4;stroke:#1f77b4;" x="380.018982" xlink:href="#ma51c8ad539" y="64.31155"/>
     <use style="fill:#1f77b4;stroke:#1f77b4;" x="383.251768" xlink:href="#ma51c8ad539" y="74.054417"/>
     <use style="fill:#1f77b4;stroke:#1f77b4;" x="386.484555" xlink:href="#ma51c8ad539" y="75.119707"/>
     <use style="fill:#1f77b4;stroke:#1f77b4;" x="389.717341" xlink:href="#ma51c8ad539" y="70.358701"/>
     <use style="fill:#1f77b4;stroke:#1f77b4;" x="392.950127" xlink:href="#ma51c8ad539" y="65.155868"/>
     <use style="fill:#1f77b4;stroke:#1f77b4;" x="396.182913" xlink:href="#ma51c8ad539" y="63.579275"/>
    </g>
   </g>
   <g id="matplotlib.axis_1">
    <g id="xtick_1">
     <g id="line2d_1">
      <defs>
       <path d="M 0 0 
L 0 3.5 
" id="m8e8505e34e" style="stroke:#000000;stroke-width:0.8;"/>
      </defs>
      <g>
       <use style="stroke:#000000;stroke-width:0.8;" x="76.137087" xlink:href="#m8e8505e34e" y="307.584"/>
      </g>
     </g>
     <g id="text_1">
      <!-- 0.0 -->
      <defs>
       <path d="M 31.78125 66.40625 
Q 24.171875 66.40625 20.328125 58.90625 
Q 16.5 51.421875 16.5 36.375 
Q 16.5 21.390625 20.328125 13.890625 
Q 24.171875 6.390625 31.78125 6.390625 
Q 39.453125 6.390625 43.28125 13.890625 
Q 47.125 21.390625 47.125 36.375 
Q 47.125 51.421875 43.28125 58.90625 
Q 39.453125 66.40625 31.78125 66.40625 
M 31.78125 74.21875 
Q 44.046875 74.21875 50.515625 64.515625 
Q 56.984375 54.828125 56.984375 36.375 
Q 56.984375 17.96875 50.515625 8.265625 
Q 44.046875 -1.421875 31.78125 -1.421875 
Q 19.53125 -1.421875 13.0625 8.265625 
Q 6.59375 17.96875 6.59375 36.375 
Q 6.59375 54.828125 13.0625 64.515625 
Q 19.53125 74.21875 31.78125 74.21875 
" id="DejaVuSans-30"/>
       <path d="M 10.6875 12.40625 
L 21 12.40625 
L 21 0 
L 10.6875 0 
z
" id="DejaVuSans-2e"/>
      </defs>
      <g transform="translate(68.185525 322.182437)scale(0.1 -0.1)">
       <use xlink:href="#DejaVuSans-30"/>
       <use x="63.623047" xlink:href="#DejaVuSans-2e"/>
       <use x="95.410156" xlink:href="#DejaVuSans-30"/>
      </g>
     </g>
    </g>
    <g id="xtick_2">
     <g id="line2d_2">
      <g>
       <use style="stroke:#000000;stroke-width:0.8;" x="140.79281" xlink:href="#m8e8505e34e" y="307.584"/>
      </g>
     </g>
     <g id="text_2">
      <!-- 0.2 -->
      <defs>
       <path d="M 19.1875 8.296875 
L 53.609375 8.296875 
L 53.609375 0 
L 7.328125 0 
L 7.328125 8.296875 
Q 12.9375 14.109375 22.625 23.890625 
Q 32.328125 33.6875 34.8125 36.53125 
Q 39.546875 41.84375 41.421875 45.53125 
Q 43.3125 49.21875 43.3125 52.78125 
Q 43.3125 58.59375 39.234375 62.25 
Q 35.15625 65.921875 28.609375 65.921875 
Q 23.96875 65.921875 18.8125 64.3125 
Q 13.671875 62.703125 7.8125 59.421875 
L 7.8125 69.390625 
Q 13.765625 71.78125 18.9375 73 
Q 24.125 74.21875 28.421875 74.21875 
Q 39.75 74.21875 46.484375 68.546875 
Q 53.21875 62.890625 53.21875 53.421875 
Q 53.21875 48.921875 51.53125 44.890625 
Q 49.859375 40.875 45.40625 35.40625 
Q 44.1875 33.984375 37.640625 27.21875 
Q 31.109375 20.453125 19.1875 8.296875 
" id="DejaVuSans-32"/>
      </defs>
      <g transform="translate(132.841247 322.182437)scale(0.1 -0.1)">
       <use xlink:href="#DejaVuSans-30"/>
       <use x="63.623047" xlink:href="#DejaVuSans-2e"/>
       <use x="95.410156" xlink:href="#DejaVuSans-32"/>
      </g>
     </g>
    </g>
    <g id="xtick_3">
     <g id="line2d_3">
      <g>
       <use style="stroke:#000000;stroke-width:0.8;" x="205.448532" xlink:href="#m8e8505e34e" y="307.584"/>
      </g>
     </g>
     <g id="text_3">
      <!-- 0.4 -->
      <defs>
       <path d="M 37.796875 64.3125 
L 12.890625 25.390625 
L 37.796875 25.390625 
z
M 35.203125 72.90625 
L 47.609375 72.90625 
L 47.609375 25.390625 
L 58.015625 25.390625 
L 58.015625 17.1875 
L 47.609375 17.1875 
L 47.609375 0 
L 37.796875 0 
L 37.796875 17.1875 
L 4.890625 17.1875 
L 4.890625 26.703125 
z
" id="DejaVuSans-34"/>
      </defs>
      <g transform="translate(197.496969 322.182437)scale(0.1 -0.1)">
       <use xlink:href="#DejaVuSans-30"/>
       <use x="63.623047" xlink:href="#DejaVuSans-2e"/>
       <use x="95.410156" xlink:href="#DejaVuSans-34"/>
      </g>
     </g>
    </g>
    <g id="xtick_4">
     <g id="line2d_4">
      <g>
       <use style="stroke:#000000;stroke-width:0.8;" x="270.104254" xlink:href="#m8e8505e34e" y="307.584"/>
      </g>
     </g>
     <g id="text_4">
      <!-- 0.6 -->
      <defs>
       <path d="M 33.015625 40.375 
Q 26.375 40.375 22.484375 35.828125 
Q 18.609375 31.296875 18.609375 23.390625 
Q 18.609375 15.53125 22.484375 10.953125 
Q 26.375 6.390625 33.015625 6.390625 
Q 39.65625 6.390625 43.53125 10.953125 
Q 47.40625 15.53125 47.40625 23.390625 
Q 47.40625 31.296875 43.53125 35.828125 
Q 39.65625 40.375 33.015625 40.375 
M 52.59375 71.296875 
L 52.59375 62.3125 
Q 48.875 64.0625 45.09375 64.984375 
Q 41.3125 65.921875 37.59375 65.921875 
Q 27.828125 65.921875 22.671875 59.328125 
Q 17.53125 52.734375 16.796875 39.40625 
Q 19.671875 43.65625 24.015625 45.921875 
Q 28.375 48.1875 33.59375 48.1875 
Q 44.578125 48.1875 50.953125 41.515625 
Q 57.328125 34.859375 57.328125 23.390625 
Q 57.328125 12.15625 50.6875 5.359375 
Q 44.046875 -1.421875 33.015625 -1.421875 
Q 20.359375 -1.421875 13.671875 8.265625 
Q 6.984375 17.96875 6.984375 36.375 
Q 6.984375 53.65625 15.1875 63.9375 
Q 23.390625 74.21875 37.203125 74.21875 
Q 40.921875 74.21875 44.703125 73.484375 
Q 48.484375 72.75 52.59375 71.296875 
" id="DejaVuSans-36"/>
      </defs>
      <g transform="translate(262.152692 322.182437)scale(0.1 -0.1)">
       <use xlink:href="#DejaVuSans-30"/>
       <use x="63.623047" xlink:href="#DejaVuSans-2e"/>
       <use x="95.410156" xlink:href="#DejaVuSans-36"/>
      </g>
     </g>
    </g>
    <g id="xtick_5">
     <g id="line2d_5">
      <g>
       <use style="stroke:#000000;stroke-width:0.8;" x="334.759977" xlink:href="#m8e8505e34e" y="307.584"/>
      </g>
     </g>
     <g id="text_5">
      <!-- 0.8 -->
      <defs>
       <path d="M 31.78125 34.625 
Q 24.75 34.625 20.71875 30.859375 
Q 16.703125 27.09375 16.703125 20.515625 
Q 16.703125 13.921875 20.71875 10.15625 
Q 24.75 6.390625 31.78125 6.390625 
Q 38.8125 6.390625 42.859375 10.171875 
Q 46.921875 13.96875 46.921875 20.515625 
Q 46.921875 27.09375 42.890625 30.859375 
Q 38.875 34.625 31.78125 34.625 
M 21.921875 38.8125 
Q 15.578125 40.375 12.03125 44.71875 
Q 8.5 49.078125 8.5 55.328125 
Q 8.5 64.0625 14.71875 69.140625 
Q 20.953125 74.21875 31.78125 74.21875 
Q 42.671875 74.21875 48.875 69.140625 
Q 55.078125 64.0625 55.078125 55.328125 
Q 55.078125 49.078125 51.53125 44.71875 
Q 48 40.375 41.703125 38.8125 
Q 48.828125 37.15625 52.796875 32.3125 
Q 56.78125 27.484375 56.78125 20.515625 
Q 56.78125 9.90625 50.3125 4.234375 
Q 43.84375 -1.421875 31.78125 -1.421875 
Q 19.734375 -1.421875 13.25 4.234375 
Q 6.78125 9.90625 6.78125 20.515625 
Q 6.78125 27.484375 10.78125 32.3125 
Q 14.796875 37.15625 21.921875 38.8125 
M 18.3125 54.390625 
Q 18.3125 48.734375 21.84375 45.5625 
Q 25.390625 42.390625 31.78125 42.390625 
Q 38.140625 42.390625 41.71875 45.5625 
Q 45.3125 48.734375 45.3125 54.390625 
Q 45.3125 60.0625 41.71875 63.234375 
Q 38.140625 66.40625 31.78125 66.40625 
Q 25.390625 66.40625 21.84375 63.234375 
Q 18.3125 60.0625 18.3125 54.390625 
" id="DejaVuSans-38"/>
      </defs>
      <g transform="translate(326.808414 322.182437)scale(0.1 -0.1)">
       <use xlink:href="#DejaVuSans-30"/>
       <use x="63.623047" xlink:href="#DejaVuSans-2e"/>
       <use x="95.410156" xlink:href="#DejaVuSans-38"/>
      </g>
     </g>
    </g>
    <g id="xtick_6">
     <g id="line2d_6">
      <g>
       <use style="stroke:#000000;stroke-width:0.8;" x="399.415699" xlink:href="#m8e8505e34e" y="307.584"/>
      </g>
     </g>
     <g id="text_6">
      <!-- 1.0 -->
      <defs>
       <path d="M 12.40625 8.296875 
L 28.515625 8.296875 
L 28.515625 63.921875 
L 10.984375 60.40625 
L 10.984375 69.390625 
L 28.421875 72.90625 
L 38.28125 72.90625 
L 38.28125 8.296875 
L 54.390625 8.296875 
L 54.390625 0 
L 12.40625 0 
z
" id="DejaVuSans-31"/>
      </defs>
      <g transform="translate(391.464136 322.182437)scale(0.1 -0.1)">
       <use xlink:href="#DejaVuSans-31"/>
       <use x="63.623047" xlink:href="#DejaVuSans-2e"/>
       <use x="95.410156" xlink:href="#DejaVuSans-30"/>
      </g>
     </g>
    </g>
    <g id="text_7">
     <!-- Wiat Time -->
     <defs>
      <path d="M 3.328125 72.90625 
L 13.28125 72.90625 
L 28.609375 11.28125 
L 43.890625 72.90625 
L 54.984375 72.90625 
L 70.3125 11.28125 
L 85.59375 72.90625 
L 95.609375 72.90625 
L 77.296875 0 
L 64.890625 0 
L 49.515625 63.28125 
L 33.984375 0 
L 21.578125 0 
z
" id="DejaVuSans-57"/>
      <path d="M 9.421875 54.6875 
L 18.40625 54.6875 
L 18.40625 0 
L 9.421875 0 
z
M 9.421875 75.984375 
L 18.40625 75.984375 
L 18.40625 64.59375 
L 9.421875 64.59375 
z
" id="DejaVuSans-69"/>
      <path d="M 34.28125 27.484375 
Q 23.390625 27.484375 19.1875 25 
Q 14.984375 22.515625 14.984375 16.5 
Q 14.984375 11.71875 18.140625 8.90625 
Q 21.296875 6.109375 26.703125 6.109375 
Q 34.1875 6.109375 38.703125 11.40625 
Q 43.21875 16.703125 43.21875 25.484375 
L 43.21875 27.484375 
z
M 52.203125 31.203125 
L 52.203125 0 
L 43.21875 0 
L 43.21875 8.296875 
Q 40.140625 3.328125 35.546875 0.953125 
Q 30.953125 -1.421875 24.3125 -1.421875 
Q 15.921875 -1.421875 10.953125 3.296875 
Q 6 8.015625 6 15.921875 
Q 6 25.140625 12.171875 29.828125 
Q 18.359375 34.515625 30.609375 34.515625 
L 43.21875 34.515625 
L 43.21875 35.40625 
Q 43.21875 41.609375 39.140625 45 
Q 35.0625 48.390625 27.6875 48.390625 
Q 23 48.390625 18.546875 47.265625 
Q 14.109375 46.140625 10.015625 43.890625 
L 10.015625 52.203125 
Q 14.9375 54.109375 19.578125 55.046875 
Q 24.21875 56 28.609375 56 
Q 40.484375 56 46.34375 49.84375 
Q 52.203125 43.703125 52.203125 31.203125 
" id="DejaVuSans-61"/>
      <path d="M 18.3125 70.21875 
L 18.3125 54.6875 
L 36.8125 54.6875 
L 36.8125 47.703125 
L 18.3125 47.703125 
L 18.3125 18.015625 
Q 18.3125 11.328125 20.140625 9.421875 
Q 21.96875 7.515625 27.59375 7.515625 
L 36.8125 7.515625 
L 36.8125 0 
L 27.59375 0 
Q 17.1875 0 13.234375 3.875 
Q 9.28125 7.765625 9.28125 18.015625 
L 9.28125 47.703125 
L 2.6875 47.703125 
L 2.6875 54.6875 
L 9.28125 54.6875 
L 9.28125 70.21875 
z
" id="DejaVuSans-74"/>
      <path id="DejaVuSans-20"/>
      <path d="M -0.296875 72.90625 
L 61.375 72.90625 
L 61.375 64.59375 
L 35.5 64.59375 
L 35.5 0 
L 25.59375 0 
L 25.59375 64.59375 
L -0.296875 64.59375 
z
" id="DejaVuSans-54"/>
      <path d="M 52 44.1875 
Q 55.375 50.25 60.0625 53.125 
Q 64.75 56 71.09375 56 
Q 79.640625 56 84.28125 50.015625 
Q 88.921875 44.046875 88.921875 33.015625 
L 88.921875 0 
L 79.890625 0 
L 79.890625 32.71875 
Q 79.890625 40.578125 77.09375 44.375 
Q 74.3125 48.1875 68.609375 48.1875 
Q 61.625 48.1875 57.5625 43.546875 
Q 53.515625 38.921875 53.515625 30.90625 
L 53.515625 0 
L 44.484375 0 
L 44.484375 32.71875 
Q 44.484375 40.625 41.703125 44.40625 
Q 38.921875 48.1875 33.109375 48.1875 
Q 26.21875 48.1875 22.15625 43.53125 
Q 18.109375 38.875 18.109375 30.90625 
L 18.109375 0 
L 9.078125 0 
L 9.078125 54.6875 
L 18.109375 54.6875 
L 18.109375 46.1875 
Q 21.1875 51.21875 25.484375 53.609375 
Q 29.78125 56 35.6875 56 
Q 41.65625 56 45.828125 52.96875 
Q 50 49.953125 52 44.1875 
" id="DejaVuSans-6d"/>
      <path d="M 56.203125 29.59375 
L 56.203125 25.203125 
L 14.890625 25.203125 
Q 15.484375 15.921875 20.484375 11.0625 
Q 25.484375 6.203125 34.421875 6.203125 
Q 39.59375 6.203125 44.453125 7.46875 
Q 49.3125 8.734375 54.109375 11.28125 
L 54.109375 2.78125 
Q 49.265625 0.734375 44.1875 -0.34375 
Q 39.109375 -1.421875 33.890625 -1.421875 
Q 20.796875 -1.421875 13.15625 6.1875 
Q 5.515625 13.8125 5.515625 26.8125 
Q 5.515625 40.234375 12.765625 48.109375 
Q 20.015625 56 32.328125 56 
Q 43.359375 56 49.78125 48.890625 
Q 56.203125 41.796875 56.203125 29.59375 
M 47.21875 32.234375 
Q 47.125 39.59375 43.09375 43.984375 
Q 39.0625 48.390625 32.421875 48.390625 
Q 24.90625 48.390625 20.390625 44.140625 
Q 15.875 39.890625 15.1875 32.171875 
z
" id="DejaVuSans-65"/>
     </defs>
     <g transform="translate(210.827969 335.860562)scale(0.1 -0.1)">
      <use xlink:href="#DejaVuSans-57"/>
      <use x="98.845703" xlink:href="#DejaVuSans-69"/>
      <use x="126.628906" xlink:href="#DejaVuSans-61"/>
      <use x="187.908203" xlink:href="#DejaVuSans-74"/>
      <use x="227.117188" xlink:href="#DejaVuSans-20"/>
      <use x="258.904297" xlink:href="#DejaVuSans-54"/>
      <use x="319.941406" xlink:href="#DejaVuSans-69"/>
      <use x="347.724609" xlink:href="#DejaVuSans-6d"/>
      <use x="445.136719" xlink:href="#DejaVuSans-65"/>
     </g>
    </g>
   </g>
   <g id="matplotlib.axis_2">
    <g id="ytick_1">
     <g id="line2d_7">
      <defs>
       <path d="M 0 0 
L -3.5 0 
" id="mf4552b5383" style="stroke:#000000;stroke-width:0.8;"/>
      </defs>
      <g>
       <use style="stroke:#000000;stroke-width:0.8;" x="57.6" xlink:href="#mf4552b5383" y="293.30148"/>
      </g>
     </g>
     <g id="text_8">
      <!-- 0.0 -->
      <g transform="translate(34.696875 297.100699)scale(0.1 -0.1)">
       <use xlink:href="#DejaVuSans-30"/>
       <use x="63.623047" xlink:href="#DejaVuSans-2e"/>
       <use x="95.410156" xlink:href="#DejaVuSans-30"/>
      </g>
     </g>
    </g>
    <g id="ytick_2">
     <g id="line2d_8">
      <g>
       <use style="stroke:#000000;stroke-width:0.8;" x="57.6" xlink:href="#mf4552b5383" y="245.540007"/>
      </g>
     </g>
     <g id="text_9">
      <!-- 0.2 -->
      <g transform="translate(34.696875 249.339226)scale(0.1 -0.1)">
       <use xlink:href="#DejaVuSans-30"/>
       <use x="63.623047" xlink:href="#DejaVuSans-2e"/>
       <use x="95.410156" xlink:href="#DejaVuSans-32"/>
      </g>
     </g>
    </g>
    <g id="ytick_3">
     <g id="line2d_9">
      <g>
       <use style="stroke:#000000;stroke-width:0.8;" x="57.6" xlink:href="#mf4552b5383" y="197.778534"/>
      </g>
     </g>
     <g id="text_10">
      <!-- 0.4 -->
      <g transform="translate(34.696875 201.577753)scale(0.1 -0.1)">
       <use xlink:href="#DejaVuSans-30"/>
       <use x="63.623047" xlink:href="#DejaVuSans-2e"/>
       <use x="95.410156" xlink:href="#DejaVuSans-34"/>
      </g>
     </g>
    </g>
    <g id="ytick_4">
     <g id="line2d_10">
      <g>
       <use style="stroke:#000000;stroke-width:0.8;" x="57.6" xlink:href="#mf4552b5383" y="150.017061"/>
      </g>
     </g>
     <g id="text_11">
      <!-- 0.6 -->
      <g transform="translate(34.696875 153.81628)scale(0.1 -0.1)">
       <use xlink:href="#DejaVuSans-30"/>
       <use x="63.623047" xlink:href="#DejaVuSans-2e"/>
       <use x="95.410156" xlink:href="#DejaVuSans-36"/>
      </g>
     </g>
    </g>
    <g id="ytick_5">
     <g id="line2d_11">
      <g>
       <use style="stroke:#000000;stroke-width:0.8;" x="57.6" xlink:href="#mf4552b5383" y="102.255588"/>
      </g>
     </g>
     <g id="text_12">
      <!-- 0.8 -->
      <g transform="translate(34.696875 106.054806)scale(0.1 -0.1)">
       <use xlink:href="#DejaVuSans-30"/>
       <use x="63.623047" xlink:href="#DejaVuSans-2e"/>
       <use x="95.410156" xlink:href="#DejaVuSans-38"/>
      </g>
     </g>
    </g>
    <g id="ytick_6">
     <g id="line2d_12">
      <g>
       <use style="stroke:#000000;stroke-width:0.8;" x="57.6" xlink:href="#mf4552b5383" y="54.494115"/>
      </g>
     </g>
     <g id="text_13">
      <!-- 1.0 -->
      <g transform="translate(34.696875 58.293333)scale(0.1 -0.1)">
       <use xlink:href="#DejaVuSans-31"/>
       <use x="63.623047" xlink:href="#DejaVuSans-2e"/>
       <use x="95.410156" xlink:href="#DejaVuSans-30"/>
      </g>
     </g>
    </g>
    <g id="text_14">
     <!-- Parity Error -->
     <defs>
      <path d="M 19.671875 64.796875 
L 19.671875 37.40625 
L 32.078125 37.40625 
Q 38.96875 37.40625 42.71875 40.96875 
Q 46.484375 44.53125 46.484375 51.125 
Q 46.484375 57.671875 42.71875 61.234375 
Q 38.96875 64.796875 32.078125 64.796875 
z
M 9.8125 72.90625 
L 32.078125 72.90625 
Q 44.34375 72.90625 50.609375 67.359375 
Q 56.890625 61.8125 56.890625 51.125 
Q 56.890625 40.328125 50.609375 34.8125 
Q 44.34375 29.296875 32.078125 29.296875 
L 19.671875 29.296875 
L 19.671875 0 
L 9.8125 0 
z
" id="DejaVuSans-50"/>
      <path d="M 41.109375 46.296875 
Q 39.59375 47.171875 37.8125 47.578125 
Q 36.03125 48 33.890625 48 
Q 26.265625 48 22.1875 43.046875 
Q 18.109375 38.09375 18.109375 28.8125 
L 18.109375 0 
L 9.078125 0 
L 9.078125 54.6875 
L 18.109375 54.6875 
L 18.109375 46.1875 
Q 20.953125 51.171875 25.484375 53.578125 
Q 30.03125 56 36.53125 56 
Q 37.453125 56 38.578125 55.875 
Q 39.703125 55.765625 41.0625 55.515625 
z
" id="DejaVuSans-72"/>
      <path d="M 32.171875 -5.078125 
Q 28.375 -14.84375 24.75 -17.8125 
Q 21.140625 -20.796875 15.09375 -20.796875 
L 7.90625 -20.796875 
L 7.90625 -13.28125 
L 13.1875 -13.28125 
Q 16.890625 -13.28125 18.9375 -11.515625 
Q 21 -9.765625 23.484375 -3.21875 
L 25.09375 0.875 
L 2.984375 54.6875 
L 12.5 54.6875 
L 29.59375 11.921875 
L 46.6875 54.6875 
L 56.203125 54.6875 
z
" id="DejaVuSans-79"/>
      <path d="M 9.8125 72.90625 
L 55.90625 72.90625 
L 55.90625 64.59375 
L 19.671875 64.59375 
L 19.671875 43.015625 
L 54.390625 43.015625 
L 54.390625 34.71875 
L 19.671875 34.71875 
L 19.671875 8.296875 
L 56.78125 8.296875 
L 56.78125 0 
L 9.8125 0 
z
" id="DejaVuSans-45"/>
      <path d="M 30.609375 48.390625 
Q 23.390625 48.390625 19.1875 42.75 
Q 14.984375 37.109375 14.984375 27.296875 
Q 14.984375 17.484375 19.15625 11.84375 
Q 23.34375 6.203125 30.609375 6.203125 
Q 37.796875 6.203125 41.984375 11.859375 
Q 46.1875 17.53125 46.1875 27.296875 
Q 46.1875 37.015625 41.984375 42.703125 
Q 37.796875 48.390625 30.609375 48.390625 
M 30.609375 56 
Q 42.328125 56 49.015625 48.375 
Q 55.71875 40.765625 55.71875 27.296875 
Q 55.71875 13.875 49.015625 6.21875 
Q 42.328125 -1.421875 30.609375 -1.421875 
Q 18.84375 -1.421875 12.171875 6.21875 
Q 5.515625 13.875 5.515625 27.296875 
Q 5.515625 40.765625 12.171875 48.375 
Q 18.84375 56 30.609375 56 
" id="DejaVuSans-6f"/>
     </defs>
     <g transform="translate(28.617187 202.939719)rotate(-90)scale(0.1 -0.1)">
      <use xlink:href="#DejaVuSans-50"/>
      <use x="60.240234" xlink:href="#DejaVuSans-61"/>
      <use x="121.519531" xlink:href="#DejaVuSans-72"/>
      <use x="162.632812" xlink:href="#DejaVuSans-69"/>
      <use x="190.416016" xlink:href="#DejaVuSans-74"/>
      <use x="229.625" xlink:href="#DejaVuSans-79"/>
      <use x="288.804688" xlink:href="#DejaVuSans-20"/>
      <use x="320.591797" xlink:href="#DejaVuSans-45"/>
      <use x="383.775391" xlink:href="#DejaVuSans-72"/>
      <use x="424.873047" xlink:href="#DejaVuSans-72"/>
      <use x="465.955078" xlink:href="#DejaVuSans-6f"/>
      <use x="527.136719" xlink:href="#DejaVuSans-72"/>
     </g>
    </g>
   </g>
   <g id="patch_3">
    <path d="M 57.6 307.584 
L 57.6 41.472 
" style="fill:none;stroke:#000000;stroke-linecap:square;stroke-linejoin:miter;stroke-width:0.8;"/>
   </g>
   <g id="patch_4">
    <path d="M 414.72 307.584 
L 414.72 41.472 
" style="fill:none;stroke:#000000;stroke-linecap:square;stroke-linejoin:miter;stroke-width:0.8;"/>
   </g>
   <g id="patch_5">
    <path d="M 57.6 307.584 
L 414.72 307.584 
" style="fill:none;stroke:#000000;stroke-linecap:square;stroke-linejoin:miter;stroke-width:0.8;"/>
   </g>
   <g id="patch_6">
    <path d="M 57.6 41.472 
L 414.72 41.472 
" style="fill:none;stroke:#000000;stroke-linecap:square;stroke-linejoin:miter;stroke-width:0.8;"/>
   </g>
  </g>
 </g>
 <defs>
  <clipPath id="p832fc0c436">
   <rect height="266.112" width="357.12" x="57.6" y="41.472"/>
  </clipPath>
 </defs>
</svg>
