<?xml version="1.0" encoding="utf-8" standalone="no"?>
<!DOCTYPE svg PUBLIC "-//W3C//DTD SVG 1.1//EN"
  "http://www.w3.org/Graphics/SVG/1.1/DTD/svg11.dtd">
<!-- Created with matplotlib (http://matplotlib.org/) -->
<svg height="345pt" version="1.1" viewBox="0 0 460 345" width="460pt" xmlns="http://www.w3.org/2000/svg" xmlns:xlink="http://www.w3.org/1999/xlink">
 <defs>
  <style type="text/css">
*{stroke-linecap:butt;stroke-linejoin:round;}
  </style>
 </defs>
 <g id="figure_1">
  <g id="patch_1">
   <path d="M 0 345.6 
L 460.8 345.6 
L 460.8 0 
L 0 0 
z
" style="fill:#ffffff;"/>
  </g>
  <g id="axes_1">
   <g id="patch_2">
    <path d="M 57.6 307.584 
L 414.72 307.584 
L 414.72 41.472 
L 57.6 41.472 
z
" style="fill:#ffffff;"/>
   </g>
   <g id="PathCollection_1">
    <defs>
     <path d="M 0 3.535534 
C 0.937635 3.535534 1.836992 3.163008 2.5 2.5 
C 3.163008 1.836992 3.535534 0.937635 3.535534 0 
C 3.535534 -0.937635 3.163008 -1.836992 2.5 -2.5 
C 1.836992 -3.163008 0.937635 -3.535534 0 -3.535534 
C -0.937635 -3.535534 -1.836992 -3.163008 -2.5 -2.5 
C -3.163008 -1.836992 -3.535534 -0.937635 -3.535534 0 
C -3.535534 0.937635 -3.163008 1.836992 -2.5 2.5 
C -1.836992 3.163008 -0.937635 3.535534 0 3.535534 
z
" id="m8324551dcf" style="stroke:#1f77b4;"/>
    </defs>
    <g clip-path="url(#pe315e22021)">
     <use style="fill:#1f77b4;stroke:#1f77b4;" x="73.833506" xlink:href="#m8324551dcf" y="174.345685"/>
     <use style="fill:#1f77b4;stroke:#1f77b4;" x="77.11283" xlink:href="#m8324551dcf" y="174.344771"/>
     <use style="fill:#1f77b4;stroke:#1f77b4;" x="80.392153" xlink:href="#m8324551dcf" y="174.344165"/>
     <use style="fill:#1f77b4;stroke:#1f77b4;" x="83.671476" xlink:href="#m8324551dcf" y="174.343815"/>
     <use style="fill:#1f77b4;stroke:#1f77b4;" x="86.950799" xlink:href="#m8324551dcf" y="174.343398"/>
     <use style="fill:#1f77b4;stroke:#1f77b4;" x="90.230122" xlink:href="#m8324551dcf" y="174.343312"/>
     <use style="fill:#1f77b4;stroke:#1f77b4;" x="93.509445" xlink:href="#m8324551dcf" y="174.343258"/>
     <use style="fill:#1f77b4;stroke:#1f77b4;" x="96.788768" xlink:href="#m8324551dcf" y="174.343292"/>
     <use style="fill:#1f77b4;stroke:#1f77b4;" x="100.068091" xlink:href="#m8324551dcf" y="174.343353"/>
     <use style="fill:#1f77b4;stroke:#1f77b4;" x="103.347414" xlink:href="#m8324551dcf" y="174.343511"/>
     <use style="fill:#1f77b4;stroke:#1f77b4;" x="106.626737" xlink:href="#m8324551dcf" y="174.343591"/>
     <use style="fill:#1f77b4;stroke:#1f77b4;" x="109.906061" xlink:href="#m8324551dcf" y="174.343902"/>
     <use style="fill:#1f77b4;stroke:#1f77b4;" x="113.185384" xlink:href="#m8324551dcf" y="174.344026"/>
     <use style="fill:#1f77b4;stroke:#1f77b4;" x="116.464707" xlink:href="#m8324551dcf" y="174.344306"/>
     <use style="fill:#1f77b4;stroke:#1f77b4;" x="119.74403" xlink:href="#m8324551dcf" y="174.344904"/>
     <use style="fill:#1f77b4;stroke:#1f77b4;" x="123.023353" xlink:href="#m8324551dcf" y="174.345337"/>
     <use style="fill:#1f77b4;stroke:#1f77b4;" x="126.302676" xlink:href="#m8324551dcf" y="174.345878"/>
     <use style="fill:#1f77b4;stroke:#1f77b4;" x="129.581999" xlink:href="#m8324551dcf" y="174.347014"/>
     <use style="fill:#1f77b4;stroke:#1f77b4;" x="132.861322" xlink:href="#m8324551dcf" y="174.347955"/>
     <use style="fill:#1f77b4;stroke:#1f77b4;" x="136.140645" xlink:href="#m8324551dcf" y="174.348852"/>
     <use style="fill:#1f77b4;stroke:#1f77b4;" x="139.419968" xlink:href="#m8324551dcf" y="174.350298"/>
     <use style="fill:#1f77b4;stroke:#1f77b4;" x="142.699292" xlink:href="#m8324551dcf" y="174.351945"/>
     <use style="fill:#1f77b4;stroke:#1f77b4;" x="145.978615" xlink:href="#m8324551dcf" y="174.353673"/>
     <use style="fill:#1f77b4;stroke:#1f77b4;" x="149.257938" xlink:href="#m8324551dcf" y="174.355779"/>
     <use style="fill:#1f77b4;stroke:#1f77b4;" x="152.537261" xlink:href="#m8324551dcf" y="174.357858"/>
     <use style="fill:#1f77b4;stroke:#1f77b4;" x="155.816584" xlink:href="#m8324551dcf" y="174.359547"/>
     <use style="fill:#1f77b4;stroke:#1f77b4;" x="159.095907" xlink:href="#m8324551dcf" y="174.361228"/>
     <use style="fill:#1f77b4;stroke:#1f77b4;" x="162.37523" xlink:href="#m8324551dcf" y="174.363191"/>
     <use style="fill:#1f77b4;stroke:#1f77b4;" x="165.654553" xlink:href="#m8324551dcf" y="174.36513"/>
     <use style="fill:#1f77b4;stroke:#1f77b4;" x="168.933876" xlink:href="#m8324551dcf" y="174.368059"/>
     <use style="fill:#1f77b4;stroke:#1f77b4;" x="172.2132" xlink:href="#m8324551dcf" y="174.370622"/>
     <use style="fill:#1f77b4;stroke:#1f77b4;" x="175.492523" xlink:href="#m8324551dcf" y="174.373449"/>
     <use style="fill:#1f77b4;stroke:#1f77b4;" x="178.771846" xlink:href="#m8324551dcf" y="174.376179"/>
     <use style="fill:#1f77b4;stroke:#1f77b4;" x="182.051169" xlink:href="#m8324551dcf" y="174.378526"/>
     <use style="fill:#1f77b4;stroke:#1f77b4;" x="185.330492" xlink:href="#m8324551dcf" y="174.382344"/>
     <use style="fill:#1f77b4;stroke:#1f77b4;" x="188.609815" xlink:href="#m8324551dcf" y="174.385494"/>
     <use style="fill:#1f77b4;stroke:#1f77b4;" x="191.889138" xlink:href="#m8324551dcf" y="174.388991"/>
     <use style="fill:#1f77b4;stroke:#1f77b4;" x="195.168461" xlink:href="#m8324551dcf" y="174.392184"/>
     <use style="fill:#1f77b4;stroke:#1f77b4;" x="198.447784" xlink:href="#m8324551dcf" y="174.396083"/>
     <use style="fill:#1f77b4;stroke:#1f77b4;" x="201.727107" xlink:href="#m8324551dcf" y="174.399628"/>
     <use style="fill:#1f77b4;stroke:#1f77b4;" x="205.006431" xlink:href="#m8324551dcf" y="174.402921"/>
     <use style="fill:#1f77b4;stroke:#1f77b4;" x="208.285754" xlink:href="#m8324551dcf" y="174.406151"/>
     <use style="fill:#1f77b4;stroke:#1f77b4;" x="211.565077" xlink:href="#m8324551dcf" y="174.409225"/>
     <use style="fill:#1f77b4;stroke:#1f77b4;" x="214.8444" xlink:href="#m8324551dcf" y="174.412915"/>
     <use style="fill:#1f77b4;stroke:#1f77b4;" x="218.123723" xlink:href="#m8324551dcf" y="174.415778"/>
     <use style="fill:#1f77b4;stroke:#1f77b4;" x="221.403046" xlink:href="#m8324551dcf" y="174.42045"/>
     <use style="fill:#1f77b4;stroke:#1f77b4;" x="224.682369" xlink:href="#m8324551dcf" y="174.426598"/>
     <use style="fill:#1f77b4;stroke:#1f77b4;" x="227.961692" xlink:href="#m8324551dcf" y="174.431575"/>
     <use style="fill:#1f77b4;stroke:#1f77b4;" x="231.241015" xlink:href="#m8324551dcf" y="174.435684"/>
     <use style="fill:#1f77b4;stroke:#1f77b4;" x="234.520338" xlink:href="#m8324551dcf" y="174.439276"/>
     <use style="fill:#1f77b4;stroke:#1f77b4;" x="237.799662" xlink:href="#m8324551dcf" y="174.442113"/>
     <use style="fill:#1f77b4;stroke:#1f77b4;" x="241.078985" xlink:href="#m8324551dcf" y="174.446781"/>
     <use style="fill:#1f77b4;stroke:#1f77b4;" x="244.358308" xlink:href="#m8324551dcf" y="174.450883"/>
     <use style="fill:#1f77b4;stroke:#1f77b4;" x="247.637631" xlink:href="#m8324551dcf" y="174.453859"/>
     <use style="fill:#1f77b4;stroke:#1f77b4;" x="250.916954" xlink:href="#m8324551dcf" y="174.457802"/>
     <use style="fill:#1f77b4;stroke:#1f77b4;" x="254.196277" xlink:href="#m8324551dcf" y="174.46219"/>
     <use style="fill:#1f77b4;stroke:#1f77b4;" x="257.4756" xlink:href="#m8324551dcf" y="174.467418"/>
     <use style="fill:#1f77b4;stroke:#1f77b4;" x="260.754923" xlink:href="#m8324551dcf" y="174.473342"/>
     <use style="fill:#1f77b4;stroke:#1f77b4;" x="264.034246" xlink:href="#m8324551dcf" y="174.478428"/>
     <use style="fill:#1f77b4;stroke:#1f77b4;" x="267.313569" xlink:href="#m8324551dcf" y="174.483357"/>
     <use style="fill:#1f77b4;stroke:#1f77b4;" x="270.592893" xlink:href="#m8324551dcf" y="174.489606"/>
     <use style="fill:#1f77b4;stroke:#1f77b4;" x="273.872216" xlink:href="#m8324551dcf" y="174.494535"/>
     <use style="fill:#1f77b4;stroke:#1f77b4;" x="277.151539" xlink:href="#m8324551dcf" y="174.497055"/>
     <use style="fill:#1f77b4;stroke:#1f77b4;" x="280.430862" xlink:href="#m8324551dcf" y="174.499633"/>
     <use style="fill:#1f77b4;stroke:#1f77b4;" x="283.710185" xlink:href="#m8324551dcf" y="174.501855"/>
     <use style="fill:#1f77b4;stroke:#1f77b4;" x="286.989508" xlink:href="#m8324551dcf" y="174.507551"/>
     <use style="fill:#1f77b4;stroke:#1f77b4;" x="290.268831" xlink:href="#m8324551dcf" y="174.512608"/>
     <use style="fill:#1f77b4;stroke:#1f77b4;" x="293.548154" xlink:href="#m8324551dcf" y="174.51634"/>
     <use style="fill:#1f77b4;stroke:#1f77b4;" x="296.827477" xlink:href="#m8324551dcf" y="174.520971"/>
     <use style="fill:#1f77b4;stroke:#1f77b4;" x="300.1068" xlink:href="#m8324551dcf" y="174.526107"/>
     <use style="fill:#1f77b4;stroke:#1f77b4;" x="303.386124" xlink:href="#m8324551dcf" y="174.531221"/>
     <use style="fill:#1f77b4;stroke:#1f77b4;" x="306.665447" xlink:href="#m8324551dcf" y="174.538599"/>
     <use style="fill:#1f77b4;stroke:#1f77b4;" x="309.94477" xlink:href="#m8324551dcf" y="174.543971"/>
     <use style="fill:#1f77b4;stroke:#1f77b4;" x="313.224093" xlink:href="#m8324551dcf" y="174.548501"/>
     <use style="fill:#1f77b4;stroke:#1f77b4;" x="316.503416" xlink:href="#m8324551dcf" y="174.557288"/>
     <use style="fill:#1f77b4;stroke:#1f77b4;" x="319.782739" xlink:href="#m8324551dcf" y="174.564526"/>
     <use style="fill:#1f77b4;stroke:#1f77b4;" x="323.062062" xlink:href="#m8324551dcf" y="174.570257"/>
     <use style="fill:#1f77b4;stroke:#1f77b4;" x="326.341385" xlink:href="#m8324551dcf" y="174.577569"/>
     <use style="fill:#1f77b4;stroke:#1f77b4;" x="329.620708" xlink:href="#m8324551dcf" y="174.583025"/>
     <use style="fill:#1f77b4;stroke:#1f77b4;" x="332.900032" xlink:href="#m8324551dcf" y="174.588011"/>
     <use style="fill:#1f77b4;stroke:#1f77b4;" x="336.179355" xlink:href="#m8324551dcf" y="174.595867"/>
     <use style="fill:#1f77b4;stroke:#1f77b4;" x="339.458678" xlink:href="#m8324551dcf" y="174.599558"/>
     <use style="fill:#1f77b4;stroke:#1f77b4;" x="342.738001" xlink:href="#m8324551dcf" y="174.603904"/>
     <use style="fill:#1f77b4;stroke:#1f77b4;" x="346.017324" xlink:href="#m8324551dcf" y="174.609792"/>
     <use style="fill:#1f77b4;stroke:#1f77b4;" x="349.296647" xlink:href="#m8324551dcf" y="174.616695"/>
     <use style="fill:#1f77b4;stroke:#1f77b4;" x="352.57597" xlink:href="#m8324551dcf" y="174.625361"/>
     <use style="fill:#1f77b4;stroke:#1f77b4;" x="355.855293" xlink:href="#m8324551dcf" y="174.6286"/>
     <use style="fill:#1f77b4;stroke:#1f77b4;" x="359.134616" xlink:href="#m8324551dcf" y="174.633746"/>
     <use style="fill:#1f77b4;stroke:#1f77b4;" x="362.413939" xlink:href="#m8324551dcf" y="174.63885"/>
     <use style="fill:#1f77b4;stroke:#1f77b4;" x="365.693263" xlink:href="#m8324551dcf" y="174.645447"/>
     <use style="fill:#1f77b4;stroke:#1f77b4;" x="368.972586" xlink:href="#m8324551dcf" y="174.65312"/>
     <use style="fill:#1f77b4;stroke:#1f77b4;" x="372.251909" xlink:href="#m8324551dcf" y="174.656751"/>
     <use style="fill:#1f77b4;stroke:#1f77b4;" x="375.531232" xlink:href="#m8324551dcf" y="174.663864"/>
     <use style="fill:#1f77b4;stroke:#1f77b4;" x="378.810555" xlink:href="#m8324551dcf" y="174.672217"/>
     <use style="fill:#1f77b4;stroke:#1f77b4;" x="382.089878" xlink:href="#m8324551dcf" y="174.679122"/>
     <use style="fill:#1f77b4;stroke:#1f77b4;" x="385.369201" xlink:href="#m8324551dcf" y="174.686662"/>
     <use style="fill:#1f77b4;stroke:#1f77b4;" x="388.648524" xlink:href="#m8324551dcf" y="174.694605"/>
     <use style="fill:#1f77b4;stroke:#1f77b4;" x="391.927847" xlink:href="#m8324551dcf" y="174.699832"/>
     <use style="fill:#1f77b4;stroke:#1f77b4;" x="395.20717" xlink:href="#m8324551dcf" y="174.70634"/>
     <use style="fill:#1f77b4;stroke:#1f77b4;" x="398.486494" xlink:href="#m8324551dcf" y="174.712742"/>
    </g>
   </g>
   <g id="matplotlib.axis_1">
    <g id="xtick_1">
     <g id="line2d_1">
      <defs>
       <path d="M 0 0 
L 0 3.5 
" id="mad6150bdba" style="stroke:#000000;stroke-width:0.8;"/>
      </defs>
      <g>
       <use style="stroke:#000000;stroke-width:0.8;" x="73.833506" xlink:href="#mad6150bdba" y="307.584"/>
      </g>
     </g>
     <g id="text_1">
      <!-- 0 -->
      <defs>
       <path d="M 31.78125 66.40625 
Q 24.171875 66.40625 20.328125 58.90625 
Q 16.5 51.421875 16.5 36.375 
Q 16.5 21.390625 20.328125 13.890625 
Q 24.171875 6.390625 31.78125 6.390625 
Q 39.453125 6.390625 43.28125 13.890625 
Q 47.125 21.390625 47.125 36.375 
Q 47.125 51.421875 43.28125 58.90625 
Q 39.453125 66.40625 31.78125 66.40625 
M 31.78125 74.21875 
Q 44.046875 74.21875 50.515625 64.515625 
Q 56.984375 54.828125 56.984375 36.375 
Q 56.984375 17.96875 50.515625 8.265625 
Q 44.046875 -1.421875 31.78125 -1.421875 
Q 19.53125 -1.421875 13.0625 8.265625 
Q 6.59375 17.96875 6.59375 36.375 
Q 6.59375 54.828125 13.0625 64.515625 
Q 19.53125 74.21875 31.78125 74.21875 
" id="DejaVuSans-30"/>
      </defs>
      <g transform="translate(70.652256 322.182437)scale(0.1 -0.1)">
       <use xlink:href="#DejaVuSans-30"/>
      </g>
     </g>
    </g>
    <g id="xtick_2">
     <g id="line2d_2">
      <g>
       <use style="stroke:#000000;stroke-width:0.8;" x="128.488891" xlink:href="#mad6150bdba" y="307.584"/>
      </g>
     </g>
     <g id="text_2">
      <!-- 500 -->
      <defs>
       <path d="M 10.796875 72.90625 
L 49.515625 72.90625 
L 49.515625 64.59375 
L 19.828125 64.59375 
L 19.828125 46.734375 
Q 21.96875 47.46875 24.109375 47.828125 
Q 26.265625 48.1875 28.421875 48.1875 
Q 40.625 48.1875 47.75 41.5 
Q 54.890625 34.8125 54.890625 23.390625 
Q 54.890625 11.625 47.5625 5.09375 
Q 40.234375 -1.421875 26.90625 -1.421875 
Q 22.3125 -1.421875 17.546875 -0.640625 
Q 12.796875 0.140625 7.71875 1.703125 
L 7.71875 11.625 
Q 12.109375 9.234375 16.796875 8.0625 
Q 21.484375 6.890625 26.703125 6.890625 
Q 35.15625 6.890625 40.078125 11.328125 
Q 45.015625 15.765625 45.015625 23.390625 
Q 45.015625 31 40.078125 35.4375 
Q 35.15625 39.890625 26.703125 39.890625 
Q 22.75 39.890625 18.8125 39.015625 
Q 14.890625 38.140625 10.796875 36.28125 
z
" id="DejaVuSans-35"/>
      </defs>
      <g transform="translate(118.945141 322.182437)scale(0.1 -0.1)">
       <use xlink:href="#DejaVuSans-35"/>
       <use x="63.623047" xlink:href="#DejaVuSans-30"/>
       <use x="127.246094" xlink:href="#DejaVuSans-30"/>
      </g>
     </g>
    </g>
    <g id="xtick_3">
     <g id="line2d_3">
      <g>
       <use style="stroke:#000000;stroke-width:0.8;" x="183.144277" xlink:href="#mad6150bdba" y="307.584"/>
      </g>
     </g>
     <g id="text_3">
      <!-- 1000 -->
      <defs>
       <path d="M 12.40625 8.296875 
L 28.515625 8.296875 
L 28.515625 63.921875 
L 10.984375 60.40625 
L 10.984375 69.390625 
L 28.421875 72.90625 
L 38.28125 72.90625 
L 38.28125 8.296875 
L 54.390625 8.296875 
L 54.390625 0 
L 12.40625 0 
z
" id="DejaVuSans-31"/>
      </defs>
      <g transform="translate(170.419277 322.182437)scale(0.1 -0.1)">
       <use xlink:href="#DejaVuSans-31"/>
       <use x="63.623047" xlink:href="#DejaVuSans-30"/>
       <use x="127.246094" xlink:href="#DejaVuSans-30"/>
       <use x="190.869141" xlink:href="#DejaVuSans-30"/>
      </g>
     </g>
    </g>
    <g id="xtick_4">
     <g id="line2d_4">
      <g>
       <use style="stroke:#000000;stroke-width:0.8;" x="237.799662" xlink:href="#mad6150bdba" y="307.584"/>
      </g>
     </g>
     <g id="text_4">
      <!-- 1500 -->
      <g transform="translate(225.074662 322.182437)scale(0.1 -0.1)">
       <use xlink:href="#DejaVuSans-31"/>
       <use x="63.623047" xlink:href="#DejaVuSans-35"/>
       <use x="127.246094" xlink:href="#DejaVuSans-30"/>
       <use x="190.869141" xlink:href="#DejaVuSans-30"/>
      </g>
     </g>
    </g>
    <g id="xtick_5">
     <g id="line2d_5">
      <g>
       <use style="stroke:#000000;stroke-width:0.8;" x="292.455047" xlink:href="#mad6150bdba" y="307.584"/>
      </g>
     </g>
     <g id="text_5">
      <!-- 2000 -->
      <defs>
       <path d="M 19.1875 8.296875 
L 53.609375 8.296875 
L 53.609375 0 
L 7.328125 0 
L 7.328125 8.296875 
Q 12.9375 14.109375 22.625 23.890625 
Q 32.328125 33.6875 34.8125 36.53125 
Q 39.546875 41.84375 41.421875 45.53125 
Q 43.3125 49.21875 43.3125 52.78125 
Q 43.3125 58.59375 39.234375 62.25 
Q 35.15625 65.921875 28.609375 65.921875 
Q 23.96875 65.921875 18.8125 64.3125 
Q 13.671875 62.703125 7.8125 59.421875 
L 7.8125 69.390625 
Q 13.765625 71.78125 18.9375 73 
Q 24.125 74.21875 28.421875 74.21875 
Q 39.75 74.21875 46.484375 68.546875 
Q 53.21875 62.890625 53.21875 53.421875 
Q 53.21875 48.921875 51.53125 44.890625 
Q 49.859375 40.875 45.40625 35.40625 
Q 44.1875 33.984375 37.640625 27.21875 
Q 31.109375 20.453125 19.1875 8.296875 
" id="DejaVuSans-32"/>
      </defs>
      <g transform="translate(279.730047 322.182437)scale(0.1 -0.1)">
       <use xlink:href="#DejaVuSans-32"/>
       <use x="63.623047" xlink:href="#DejaVuSans-30"/>
       <use x="127.246094" xlink:href="#DejaVuSans-30"/>
       <use x="190.869141" xlink:href="#DejaVuSans-30"/>
      </g>
     </g>
    </g>
    <g id="xtick_6">
     <g id="line2d_6">
      <g>
       <use style="stroke:#000000;stroke-width:0.8;" x="347.110432" xlink:href="#mad6150bdba" y="307.584"/>
      </g>
     </g>
     <g id="text_6">
      <!-- 2500 -->
      <g transform="translate(334.385432 322.182437)scale(0.1 -0.1)">
       <use xlink:href="#DejaVuSans-32"/>
       <use x="63.623047" xlink:href="#DejaVuSans-35"/>
       <use x="127.246094" xlink:href="#DejaVuSans-30"/>
       <use x="190.869141" xlink:href="#DejaVuSans-30"/>
      </g>
     </g>
    </g>
    <g id="xtick_7">
     <g id="line2d_7">
      <g>
       <use style="stroke:#000000;stroke-width:0.8;" x="401.765817" xlink:href="#mad6150bdba" y="307.584"/>
      </g>
     </g>
     <g id="text_7">
      <!-- 3000 -->
      <defs>
       <path d="M 40.578125 39.3125 
Q 47.65625 37.796875 51.625 33 
Q 55.609375 28.21875 55.609375 21.1875 
Q 55.609375 10.40625 48.1875 4.484375 
Q 40.765625 -1.421875 27.09375 -1.421875 
Q 22.515625 -1.421875 17.65625 -0.515625 
Q 12.796875 0.390625 7.625 2.203125 
L 7.625 11.71875 
Q 11.71875 9.328125 16.59375 8.109375 
Q 21.484375 6.890625 26.8125 6.890625 
Q 36.078125 6.890625 40.9375 10.546875 
Q 45.796875 14.203125 45.796875 21.1875 
Q 45.796875 27.640625 41.28125 31.265625 
Q 36.765625 34.90625 28.71875 34.90625 
L 20.21875 34.90625 
L 20.21875 43.015625 
L 29.109375 43.015625 
Q 36.375 43.015625 40.234375 45.921875 
Q 44.09375 48.828125 44.09375 54.296875 
Q 44.09375 59.90625 40.109375 62.90625 
Q 36.140625 65.921875 28.71875 65.921875 
Q 24.65625 65.921875 20.015625 65.03125 
Q 15.375 64.15625 9.8125 62.3125 
L 9.8125 71.09375 
Q 15.4375 72.65625 20.34375 73.4375 
Q 25.25 74.21875 29.59375 74.21875 
Q 40.828125 74.21875 47.359375 69.109375 
Q 53.90625 64.015625 53.90625 55.328125 
Q 53.90625 49.265625 50.4375 45.09375 
Q 46.96875 40.921875 40.578125 39.3125 
" id="DejaVuSans-33"/>
      </defs>
      <g transform="translate(389.040817 322.182437)scale(0.1 -0.1)">
       <use xlink:href="#DejaVuSans-33"/>
       <use x="63.623047" xlink:href="#DejaVuSans-30"/>
       <use x="127.246094" xlink:href="#DejaVuSans-30"/>
       <use x="190.869141" xlink:href="#DejaVuSans-30"/>
      </g>
     </g>
    </g>
    <g id="text_8">
     <!-- Ramp Time -->
     <defs>
      <path d="M 44.390625 34.1875 
Q 47.5625 33.109375 50.5625 29.59375 
Q 53.5625 26.078125 56.59375 19.921875 
L 66.609375 0 
L 56 0 
L 46.6875 18.703125 
Q 43.0625 26.03125 39.671875 28.421875 
Q 36.28125 30.8125 30.421875 30.8125 
L 19.671875 30.8125 
L 19.671875 0 
L 9.8125 0 
L 9.8125 72.90625 
L 32.078125 72.90625 
Q 44.578125 72.90625 50.734375 67.671875 
Q 56.890625 62.453125 56.890625 51.90625 
Q 56.890625 45.015625 53.6875 40.46875 
Q 50.484375 35.9375 44.390625 34.1875 
M 19.671875 64.796875 
L 19.671875 38.921875 
L 32.078125 38.921875 
Q 39.203125 38.921875 42.84375 42.21875 
Q 46.484375 45.515625 46.484375 51.90625 
Q 46.484375 58.296875 42.84375 61.546875 
Q 39.203125 64.796875 32.078125 64.796875 
z
" id="DejaVuSans-52"/>
      <path d="M 34.28125 27.484375 
Q 23.390625 27.484375 19.1875 25 
Q 14.984375 22.515625 14.984375 16.5 
Q 14.984375 11.71875 18.140625 8.90625 
Q 21.296875 6.109375 26.703125 6.109375 
Q 34.1875 6.109375 38.703125 11.40625 
Q 43.21875 16.703125 43.21875 25.484375 
L 43.21875 27.484375 
z
M 52.203125 31.203125 
L 52.203125 0 
L 43.21875 0 
L 43.21875 8.296875 
Q 40.140625 3.328125 35.546875 0.953125 
Q 30.953125 -1.421875 24.3125 -1.421875 
Q 15.921875 -1.421875 10.953125 3.296875 
Q 6 8.015625 6 15.921875 
Q 6 25.140625 12.171875 29.828125 
Q 18.359375 34.515625 30.609375 34.515625 
L 43.21875 34.515625 
L 43.21875 35.40625 
Q 43.21875 41.609375 39.140625 45 
Q 35.0625 48.390625 27.6875 48.390625 
Q 23 48.390625 18.546875 47.265625 
Q 14.109375 46.140625 10.015625 43.890625 
L 10.015625 52.203125 
Q 14.9375 54.109375 19.578125 55.046875 
Q 24.21875 56 28.609375 56 
Q 40.484375 56 46.34375 49.84375 
Q 52.203125 43.703125 52.203125 31.203125 
" id="DejaVuSans-61"/>
      <path d="M 52 44.1875 
Q 55.375 50.25 60.0625 53.125 
Q 64.75 56 71.09375 56 
Q 79.640625 56 84.28125 50.015625 
Q 88.921875 44.046875 88.921875 33.015625 
L 88.921875 0 
L 79.890625 0 
L 79.890625 32.71875 
Q 79.890625 40.578125 77.09375 44.375 
Q 74.3125 48.1875 68.609375 48.1875 
Q 61.625 48.1875 57.5625 43.546875 
Q 53.515625 38.921875 53.515625 30.90625 
L 53.515625 0 
L 44.484375 0 
L 44.484375 32.71875 
Q 44.484375 40.625 41.703125 44.40625 
Q 38.921875 48.1875 33.109375 48.1875 
Q 26.21875 48.1875 22.15625 43.53125 
Q 18.109375 38.875 18.109375 30.90625 
L 18.109375 0 
L 9.078125 0 
L 9.078125 54.6875 
L 18.109375 54.6875 
L 18.109375 46.1875 
Q 21.1875 51.21875 25.484375 53.609375 
Q 29.78125 56 35.6875 56 
Q 41.65625 56 45.828125 52.96875 
Q 50 49.953125 52 44.1875 
" id="DejaVuSans-6d"/>
      <path d="M 18.109375 8.203125 
L 18.109375 -20.796875 
L 9.078125 -20.796875 
L 9.078125 54.6875 
L 18.109375 54.6875 
L 18.109375 46.390625 
Q 20.953125 51.265625 25.265625 53.625 
Q 29.59375 56 35.59375 56 
Q 45.5625 56 51.78125 48.09375 
Q 58.015625 40.1875 58.015625 27.296875 
Q 58.015625 14.40625 51.78125 6.484375 
Q 45.5625 -1.421875 35.59375 -1.421875 
Q 29.59375 -1.421875 25.265625 0.953125 
Q 20.953125 3.328125 18.109375 8.203125 
M 48.6875 27.296875 
Q 48.6875 37.203125 44.609375 42.84375 
Q 40.53125 48.484375 33.40625 48.484375 
Q 26.265625 48.484375 22.1875 42.84375 
Q 18.109375 37.203125 18.109375 27.296875 
Q 18.109375 17.390625 22.1875 11.75 
Q 26.265625 6.109375 33.40625 6.109375 
Q 40.53125 6.109375 44.609375 11.75 
Q 48.6875 17.390625 48.6875 27.296875 
" id="DejaVuSans-70"/>
      <path id="DejaVuSans-20"/>
      <path d="M -0.296875 72.90625 
L 61.375 72.90625 
L 61.375 64.59375 
L 35.5 64.59375 
L 35.5 0 
L 25.59375 0 
L 25.59375 64.59375 
L -0.296875 64.59375 
z
" id="DejaVuSans-54"/>
      <path d="M 9.421875 54.6875 
L 18.40625 54.6875 
L 18.40625 0 
L 9.421875 0 
z
M 9.421875 75.984375 
L 18.40625 75.984375 
L 18.40625 64.59375 
L 9.421875 64.59375 
z
" id="DejaVuSans-69"/>
      <path d="M 56.203125 29.59375 
L 56.203125 25.203125 
L 14.890625 25.203125 
Q 15.484375 15.921875 20.484375 11.0625 
Q 25.484375 6.203125 34.421875 6.203125 
Q 39.59375 6.203125 44.453125 7.46875 
Q 49.3125 8.734375 54.109375 11.28125 
L 54.109375 2.78125 
Q 49.265625 0.734375 44.1875 -0.34375 
Q 39.109375 -1.421875 33.890625 -1.421875 
Q 20.796875 -1.421875 13.15625 6.1875 
Q 5.515625 13.8125 5.515625 26.8125 
Q 5.515625 40.234375 12.765625 48.109375 
Q 20.015625 56 32.328125 56 
Q 43.359375 56 49.78125 48.890625 
Q 56.203125 41.796875 56.203125 29.59375 
M 47.21875 32.234375 
Q 47.125 39.59375 43.09375 43.984375 
Q 39.0625 48.390625 32.421875 48.390625 
Q 24.90625 48.390625 20.390625 44.140625 
Q 15.875 39.890625 15.1875 32.171875 
z
" id="DejaVuSans-65"/>
     </defs>
     <g transform="translate(207.602187 335.860562)scale(0.1 -0.1)">
      <use xlink:href="#DejaVuSans-52"/>
      <use x="69.451172" xlink:href="#DejaVuSans-61"/>
      <use x="130.730469" xlink:href="#DejaVuSans-6d"/>
      <use x="228.142578" xlink:href="#DejaVuSans-70"/>
      <use x="291.619141" xlink:href="#DejaVuSans-20"/>
      <use x="323.40625" xlink:href="#DejaVuSans-54"/>
      <use x="384.443359" xlink:href="#DejaVuSans-69"/>
      <use x="412.226562" xlink:href="#DejaVuSans-6d"/>
      <use x="509.638672" xlink:href="#DejaVuSans-65"/>
     </g>
    </g>
   </g>
   <g id="matplotlib.axis_2">
    <g id="ytick_1">
     <g id="line2d_8">
      <defs>
       <path d="M 0 0 
L -3.5 0 
" id="md4deafcc05" style="stroke:#000000;stroke-width:0.8;"/>
      </defs>
      <g>
       <use style="stroke:#000000;stroke-width:0.8;" x="57.6" xlink:href="#md4deafcc05" y="283.43962"/>
      </g>
     </g>
     <g id="text_9">
      <!-- 0.6625 -->
      <defs>
       <path d="M 10.6875 12.40625 
L 21 12.40625 
L 21 0 
L 10.6875 0 
z
" id="DejaVuSans-2e"/>
       <path d="M 33.015625 40.375 
Q 26.375 40.375 22.484375 35.828125 
Q 18.609375 31.296875 18.609375 23.390625 
Q 18.609375 15.53125 22.484375 10.953125 
Q 26.375 6.390625 33.015625 6.390625 
Q 39.65625 6.390625 43.53125 10.953125 
Q 47.40625 15.53125 47.40625 23.390625 
Q 47.40625 31.296875 43.53125 35.828125 
Q 39.65625 40.375 33.015625 40.375 
M 52.59375 71.296875 
L 52.59375 62.3125 
Q 48.875 64.0625 45.09375 64.984375 
Q 41.3125 65.921875 37.59375 65.921875 
Q 27.828125 65.921875 22.671875 59.328125 
Q 17.53125 52.734375 16.796875 39.40625 
Q 19.671875 43.65625 24.015625 45.921875 
Q 28.375 48.1875 33.59375 48.1875 
Q 44.578125 48.1875 50.953125 41.515625 
Q 57.328125 34.859375 57.328125 23.390625 
Q 57.328125 12.15625 50.6875 5.359375 
Q 44.046875 -1.421875 33.015625 -1.421875 
Q 20.359375 -1.421875 13.671875 8.265625 
Q 6.984375 17.96875 6.984375 36.375 
Q 6.984375 53.65625 15.1875 63.9375 
Q 23.390625 74.21875 37.203125 74.21875 
Q 40.921875 74.21875 44.703125 73.484375 
Q 48.484375 72.75 52.59375 71.296875 
" id="DejaVuSans-36"/>
      </defs>
      <g transform="translate(15.609375 287.238839)scale(0.1 -0.1)">
       <use xlink:href="#DejaVuSans-30"/>
       <use x="63.623047" xlink:href="#DejaVuSans-2e"/>
       <use x="95.410156" xlink:href="#DejaVuSans-36"/>
       <use x="159.033203" xlink:href="#DejaVuSans-36"/>
       <use x="222.65625" xlink:href="#DejaVuSans-32"/>
       <use x="286.279297" xlink:href="#DejaVuSans-35"/>
      </g>
     </g>
    </g>
    <g id="ytick_2">
     <g id="line2d_9">
      <g>
       <use style="stroke:#000000;stroke-width:0.8;" x="57.6" xlink:href="#md4deafcc05" y="251.875409"/>
      </g>
     </g>
     <g id="text_10">
      <!-- 0.6650 -->
      <g transform="translate(15.609375 255.674628)scale(0.1 -0.1)">
       <use xlink:href="#DejaVuSans-30"/>
       <use x="63.623047" xlink:href="#DejaVuSans-2e"/>
       <use x="95.410156" xlink:href="#DejaVuSans-36"/>
       <use x="159.033203" xlink:href="#DejaVuSans-36"/>
       <use x="222.65625" xlink:href="#DejaVuSans-35"/>
       <use x="286.279297" xlink:href="#DejaVuSans-30"/>
      </g>
     </g>
    </g>
    <g id="ytick_3">
     <g id="line2d_10">
      <g>
       <use style="stroke:#000000;stroke-width:0.8;" x="57.6" xlink:href="#md4deafcc05" y="220.311198"/>
      </g>
     </g>
     <g id="text_11">
      <!-- 0.6675 -->
      <defs>
       <path d="M 8.203125 72.90625 
L 55.078125 72.90625 
L 55.078125 68.703125 
L 28.609375 0 
L 18.3125 0 
L 43.21875 64.59375 
L 8.203125 64.59375 
z
" id="DejaVuSans-37"/>
      </defs>
      <g transform="translate(15.609375 224.110417)scale(0.1 -0.1)">
       <use xlink:href="#DejaVuSans-30"/>
       <use x="63.623047" xlink:href="#DejaVuSans-2e"/>
       <use x="95.410156" xlink:href="#DejaVuSans-36"/>
       <use x="159.033203" xlink:href="#DejaVuSans-36"/>
       <use x="222.65625" xlink:href="#DejaVuSans-37"/>
       <use x="286.279297" xlink:href="#DejaVuSans-35"/>
      </g>
     </g>
    </g>
    <g id="ytick_4">
     <g id="line2d_11">
      <g>
       <use style="stroke:#000000;stroke-width:0.8;" x="57.6" xlink:href="#md4deafcc05" y="188.746987"/>
      </g>
     </g>
     <g id="text_12">
      <!-- 0.6700 -->
      <g transform="translate(15.609375 192.546206)scale(0.1 -0.1)">
       <use xlink:href="#DejaVuSans-30"/>
       <use x="63.623047" xlink:href="#DejaVuSans-2e"/>
       <use x="95.410156" xlink:href="#DejaVuSans-36"/>
       <use x="159.033203" xlink:href="#DejaVuSans-37"/>
       <use x="222.65625" xlink:href="#DejaVuSans-30"/>
       <use x="286.279297" xlink:href="#DejaVuSans-30"/>
      </g>
     </g>
    </g>
    <g id="ytick_5">
     <g id="line2d_12">
      <g>
       <use style="stroke:#000000;stroke-width:0.8;" x="57.6" xlink:href="#md4deafcc05" y="157.182776"/>
      </g>
     </g>
     <g id="text_13">
      <!-- 0.6725 -->
      <g transform="translate(15.609375 160.981995)scale(0.1 -0.1)">
       <use xlink:href="#DejaVuSans-30"/>
       <use x="63.623047" xlink:href="#DejaVuSans-2e"/>
       <use x="95.410156" xlink:href="#DejaVuSans-36"/>
       <use x="159.033203" xlink:href="#DejaVuSans-37"/>
       <use x="222.65625" xlink:href="#DejaVuSans-32"/>
       <use x="286.279297" xlink:href="#DejaVuSans-35"/>
      </g>
     </g>
    </g>
    <g id="ytick_6">
     <g id="line2d_13">
      <g>
       <use style="stroke:#000000;stroke-width:0.8;" x="57.6" xlink:href="#md4deafcc05" y="125.618565"/>
      </g>
     </g>
     <g id="text_14">
      <!-- 0.6750 -->
      <g transform="translate(15.609375 129.417784)scale(0.1 -0.1)">
       <use xlink:href="#DejaVuSans-30"/>
       <use x="63.623047" xlink:href="#DejaVuSans-2e"/>
       <use x="95.410156" xlink:href="#DejaVuSans-36"/>
       <use x="159.033203" xlink:href="#DejaVuSans-37"/>
       <use x="222.65625" xlink:href="#DejaVuSans-35"/>
       <use x="286.279297" xlink:href="#DejaVuSans-30"/>
      </g>
     </g>
    </g>
    <g id="ytick_7">
     <g id="line2d_14">
      <g>
       <use style="stroke:#000000;stroke-width:0.8;" x="57.6" xlink:href="#md4deafcc05" y="94.054354"/>
      </g>
     </g>
     <g id="text_15">
      <!-- 0.6775 -->
      <g transform="translate(15.609375 97.853573)scale(0.1 -0.1)">
       <use xlink:href="#DejaVuSans-30"/>
       <use x="63.623047" xlink:href="#DejaVuSans-2e"/>
       <use x="95.410156" xlink:href="#DejaVuSans-36"/>
       <use x="159.033203" xlink:href="#DejaVuSans-37"/>
       <use x="222.65625" xlink:href="#DejaVuSans-37"/>
       <use x="286.279297" xlink:href="#DejaVuSans-35"/>
      </g>
     </g>
    </g>
    <g id="ytick_8">
     <g id="line2d_15">
      <g>
       <use style="stroke:#000000;stroke-width:0.8;" x="57.6" xlink:href="#md4deafcc05" y="62.490143"/>
      </g>
     </g>
     <g id="text_16">
      <!-- 0.6800 -->
      <defs>
       <path d="M 31.78125 34.625 
Q 24.75 34.625 20.71875 30.859375 
Q 16.703125 27.09375 16.703125 20.515625 
Q 16.703125 13.921875 20.71875 10.15625 
Q 24.75 6.390625 31.78125 6.390625 
Q 38.8125 6.390625 42.859375 10.171875 
Q 46.921875 13.96875 46.921875 20.515625 
Q 46.921875 27.09375 42.890625 30.859375 
Q 38.875 34.625 31.78125 34.625 
M 21.921875 38.8125 
Q 15.578125 40.375 12.03125 44.71875 
Q 8.5 49.078125 8.5 55.328125 
Q 8.5 64.0625 14.71875 69.140625 
Q 20.953125 74.21875 31.78125 74.21875 
Q 42.671875 74.21875 48.875 69.140625 
Q 55.078125 64.0625 55.078125 55.328125 
Q 55.078125 49.078125 51.53125 44.71875 
Q 48 40.375 41.703125 38.8125 
Q 48.828125 37.15625 52.796875 32.3125 
Q 56.78125 27.484375 56.78125 20.515625 
Q 56.78125 9.90625 50.3125 4.234375 
Q 43.84375 -1.421875 31.78125 -1.421875 
Q 19.734375 -1.421875 13.25 4.234375 
Q 6.78125 9.90625 6.78125 20.515625 
Q 6.78125 27.484375 10.78125 32.3125 
Q 14.796875 37.15625 21.921875 38.8125 
M 18.3125 54.390625 
Q 18.3125 48.734375 21.84375 45.5625 
Q 25.390625 42.390625 31.78125 42.390625 
Q 38.140625 42.390625 41.71875 45.5625 
Q 45.3125 48.734375 45.3125 54.390625 
Q 45.3125 60.0625 41.71875 63.234375 
Q 38.140625 66.40625 31.78125 66.40625 
Q 25.390625 66.40625 21.84375 63.234375 
Q 18.3125 60.0625 18.3125 54.390625 
" id="DejaVuSans-38"/>
      </defs>
      <g transform="translate(15.609375 66.289362)scale(0.1 -0.1)">
       <use xlink:href="#DejaVuSans-30"/>
       <use x="63.623047" xlink:href="#DejaVuSans-2e"/>
       <use x="95.410156" xlink:href="#DejaVuSans-36"/>
       <use x="159.033203" xlink:href="#DejaVuSans-38"/>
       <use x="222.65625" xlink:href="#DejaVuSans-30"/>
       <use x="286.279297" xlink:href="#DejaVuSans-30"/>
      </g>
     </g>
    </g>
    <g id="text_17">
     <!-- Total Parity -->
     <defs>
      <path d="M 30.609375 48.390625 
Q 23.390625 48.390625 19.1875 42.75 
Q 14.984375 37.109375 14.984375 27.296875 
Q 14.984375 17.484375 19.15625 11.84375 
Q 23.34375 6.203125 30.609375 6.203125 
Q 37.796875 6.203125 41.984375 11.859375 
Q 46.1875 17.53125 46.1875 27.296875 
Q 46.1875 37.015625 41.984375 42.703125 
Q 37.796875 48.390625 30.609375 48.390625 
M 30.609375 56 
Q 42.328125 56 49.015625 48.375 
Q 55.71875 40.765625 55.71875 27.296875 
Q 55.71875 13.875 49.015625 6.21875 
Q 42.328125 -1.421875 30.609375 -1.421875 
Q 18.84375 -1.421875 12.171875 6.21875 
Q 5.515625 13.875 5.515625 27.296875 
Q 5.515625 40.765625 12.171875 48.375 
Q 18.84375 56 30.609375 56 
" id="DejaVuSans-6f"/>
      <path d="M 18.3125 70.21875 
L 18.3125 54.6875 
L 36.8125 54.6875 
L 36.8125 47.703125 
L 18.3125 47.703125 
L 18.3125 18.015625 
Q 18.3125 11.328125 20.140625 9.421875 
Q 21.96875 7.515625 27.59375 7.515625 
L 36.8125 7.515625 
L 36.8125 0 
L 27.59375 0 
Q 17.1875 0 13.234375 3.875 
Q 9.28125 7.765625 9.28125 18.015625 
L 9.28125 47.703125 
L 2.6875 47.703125 
L 2.6875 54.6875 
L 9.28125 54.6875 
L 9.28125 70.21875 
z
" id="DejaVuSans-74"/>
      <path d="M 9.421875 75.984375 
L 18.40625 75.984375 
L 18.40625 0 
L 9.421875 0 
z
" id="DejaVuSans-6c"/>
      <path d="M 19.671875 64.796875 
L 19.671875 37.40625 
L 32.078125 37.40625 
Q 38.96875 37.40625 42.71875 40.96875 
Q 46.484375 44.53125 46.484375 51.125 
Q 46.484375 57.671875 42.71875 61.234375 
Q 38.96875 64.796875 32.078125 64.796875 
z
M 9.8125 72.90625 
L 32.078125 72.90625 
Q 44.34375 72.90625 50.609375 67.359375 
Q 56.890625 61.8125 56.890625 51.125 
Q 56.890625 40.328125 50.609375 34.8125 
Q 44.34375 29.296875 32.078125 29.296875 
L 19.671875 29.296875 
L 19.671875 0 
L 9.8125 0 
z
" id="DejaVuSans-50"/>
      <path d="M 41.109375 46.296875 
Q 39.59375 47.171875 37.8125 47.578125 
Q 36.03125 48 33.890625 48 
Q 26.265625 48 22.1875 43.046875 
Q 18.109375 38.09375 18.109375 28.8125 
L 18.109375 0 
L 9.078125 0 
L 9.078125 54.6875 
L 18.109375 54.6875 
L 18.109375 46.1875 
Q 20.953125 51.171875 25.484375 53.578125 
Q 30.03125 56 36.53125 56 
Q 37.453125 56 38.578125 55.875 
Q 39.703125 55.765625 41.0625 55.515625 
z
" id="DejaVuSans-72"/>
      <path d="M 32.171875 -5.078125 
Q 28.375 -14.84375 24.75 -17.8125 
Q 21.140625 -20.796875 15.09375 -20.796875 
L 7.90625 -20.796875 
L 7.90625 -13.28125 
L 13.1875 -13.28125 
Q 16.890625 -13.28125 18.9375 -11.515625 
Q 21 -9.765625 23.484375 -3.21875 
L 25.09375 0.875 
L 2.984375 54.6875 
L 12.5 54.6875 
L 29.59375 11.921875 
L 46.6875 54.6875 
L 56.203125 54.6875 
z
" id="DejaVuSans-79"/>
     </defs>
     <g transform="translate(9.529687 203.070188)rotate(-90)scale(0.1 -0.1)">
      <use xlink:href="#DejaVuSans-54"/>
      <use x="60.818359" xlink:href="#DejaVuSans-6f"/>
      <use x="122" xlink:href="#DejaVuSans-74"/>
      <use x="161.208984" xlink:href="#DejaVuSans-61"/>
      <use x="222.488281" xlink:href="#DejaVuSans-6c"/>
      <use x="250.271484" xlink:href="#DejaVuSans-20"/>
      <use x="282.058594" xlink:href="#DejaVuSans-50"/>
      <use x="342.298828" xlink:href="#DejaVuSans-61"/>
      <use x="403.578125" xlink:href="#DejaVuSans-72"/>
      <use x="444.691406" xlink:href="#DejaVuSans-69"/>
      <use x="472.474609" xlink:href="#DejaVuSans-74"/>
      <use x="511.683594" xlink:href="#DejaVuSans-79"/>
     </g>
    </g>
   </g>
   <g id="patch_3">
    <path d="M 57.6 307.584 
L 57.6 41.472 
" style="fill:none;stroke:#000000;stroke-linecap:square;stroke-linejoin:miter;stroke-width:0.8;"/>
   </g>
   <g id="patch_4">
    <path d="M 414.72 307.584 
L 414.72 41.472 
" style="fill:none;stroke:#000000;stroke-linecap:square;stroke-linejoin:miter;stroke-width:0.8;"/>
   </g>
   <g id="patch_5">
    <path d="M 57.6 307.584 
L 414.72 307.584 
" style="fill:none;stroke:#000000;stroke-linecap:square;stroke-linejoin:miter;stroke-width:0.8;"/>
   </g>
   <g id="patch_6">
    <path d="M 57.6 41.472 
L 414.72 41.472 
" style="fill:none;stroke:#000000;stroke-linecap:square;stroke-linejoin:miter;stroke-width:0.8;"/>
   </g>
  </g>
 </g>
 <defs>
  <clipPath id="pe315e22021">
   <rect height="266.112" width="357.12" x="57.6" y="41.472"/>
  </clipPath>
 </defs>
</svg>
