<?xml version="1.0" encoding="utf-8" standalone="no"?>
<!DOCTYPE svg PUBLIC "-//W3C//DTD SVG 1.1//EN"
  "http://www.w3.org/Graphics/SVG/1.1/DTD/svg11.dtd">
<!-- Created with matplotlib (http://matplotlib.org/) -->
<svg height="345pt" version="1.1" viewBox="0 0 460 345" width="460pt" xmlns="http://www.w3.org/2000/svg" xmlns:xlink="http://www.w3.org/1999/xlink">
 <defs>
  <style type="text/css">
*{stroke-linecap:butt;stroke-linejoin:round;}
  </style>
 </defs>
 <g id="figure_1">
  <g id="patch_1">
   <path d="M 0 345.6 
L 460.8 345.6 
L 460.8 0 
L 0 0 
z
" style="fill:#ffffff;"/>
  </g>
  <g id="axes_1">
   <g id="patch_2">
    <path d="M 57.6 307.584 
L 414.72 307.584 
L 414.72 41.472 
L 57.6 41.472 
z
" style="fill:#ffffff;"/>
   </g>
   <g id="PathCollection_1">
    <defs>
     <path d="M 0 3.535534 
C 0.937635 3.535534 1.836992 3.163008 2.5 2.5 
C 3.163008 1.836992 3.535534 0.937635 3.535534 0 
C 3.535534 -0.937635 3.163008 -1.836992 2.5 -2.5 
C 1.836992 -3.163008 0.937635 -3.535534 0 -3.535534 
C -0.937635 -3.535534 -1.836992 -3.163008 -2.5 -2.5 
C -3.163008 -1.836992 -3.535534 -0.937635 -3.535534 0 
C -3.535534 0.937635 -3.163008 1.836992 -2.5 2.5 
C -1.836992 3.163008 -0.937635 3.535534 0 3.535534 
z
" id="m8215db2d8e" style="stroke:#1f77b4;"/>
    </defs>
    <g clip-path="url(#pdf538ad963)">
     <use style="fill:#1f77b4;stroke:#1f77b4;" x="73.833506" xlink:href="#m8215db2d8e" y="179.49297"/>
     <use style="fill:#1f77b4;stroke:#1f77b4;" x="77.11283" xlink:href="#m8215db2d8e" y="177.690908"/>
     <use style="fill:#1f77b4;stroke:#1f77b4;" x="80.392153" xlink:href="#m8215db2d8e" y="173.044889"/>
     <use style="fill:#1f77b4;stroke:#1f77b4;" x="83.671476" xlink:href="#m8215db2d8e" y="169.434371"/>
     <use style="fill:#1f77b4;stroke:#1f77b4;" x="86.950799" xlink:href="#m8215db2d8e" y="169.980732"/>
     <use style="fill:#1f77b4;stroke:#1f77b4;" x="90.230122" xlink:href="#m8215db2d8e" y="173.563247"/>
     <use style="fill:#1f77b4;stroke:#1f77b4;" x="93.509445" xlink:href="#m8215db2d8e" y="176.371535"/>
     <use style="fill:#1f77b4;stroke:#1f77b4;" x="96.788768" xlink:href="#m8215db2d8e" y="176.673082"/>
     <use style="fill:#1f77b4;stroke:#1f77b4;" x="100.068091" xlink:href="#m8215db2d8e" y="175.894571"/>
     <use style="fill:#1f77b4;stroke:#1f77b4;" x="103.347414" xlink:href="#m8215db2d8e" y="175.291299"/>
     <use style="fill:#1f77b4;stroke:#1f77b4;" x="106.626737" xlink:href="#m8215db2d8e" y="174.439616"/>
     <use style="fill:#1f77b4;stroke:#1f77b4;" x="109.906061" xlink:href="#m8215db2d8e" y="173.102506"/>
     <use style="fill:#1f77b4;stroke:#1f77b4;" x="113.185384" xlink:href="#m8215db2d8e" y="172.150213"/>
     <use style="fill:#1f77b4;stroke:#1f77b4;" x="116.464707" xlink:href="#m8215db2d8e" y="172.124732"/>
     <use style="fill:#1f77b4;stroke:#1f77b4;" x="119.74403" xlink:href="#m8215db2d8e" y="172.655585"/>
     <use style="fill:#1f77b4;stroke:#1f77b4;" x="123.023353" xlink:href="#m8215db2d8e" y="173.930543"/>
     <use style="fill:#1f77b4;stroke:#1f77b4;" x="126.302676" xlink:href="#m8215db2d8e" y="176.535137"/>
     <use style="fill:#1f77b4;stroke:#1f77b4;" x="129.581999" xlink:href="#m8215db2d8e" y="179.025442"/>
     <use style="fill:#1f77b4;stroke:#1f77b4;" x="132.861322" xlink:href="#m8215db2d8e" y="178.196749"/>
     <use style="fill:#1f77b4;stroke:#1f77b4;" x="136.140645" xlink:href="#m8215db2d8e" y="173.202763"/>
     <use style="fill:#1f77b4;stroke:#1f77b4;" x="139.419968" xlink:href="#m8215db2d8e" y="167.953184"/>
     <use style="fill:#1f77b4;stroke:#1f77b4;" x="142.699292" xlink:href="#m8215db2d8e" y="167.598033"/>
     <use style="fill:#1f77b4;stroke:#1f77b4;" x="145.978615" xlink:href="#m8215db2d8e" y="172.836921"/>
     <use style="fill:#1f77b4;stroke:#1f77b4;" x="149.257938" xlink:href="#m8215db2d8e" y="179.151281"/>
     <use style="fill:#1f77b4;stroke:#1f77b4;" x="152.537261" xlink:href="#m8215db2d8e" y="181.457967"/>
     <use style="fill:#1f77b4;stroke:#1f77b4;" x="155.816584" xlink:href="#m8215db2d8e" y="178.327777"/>
     <use style="fill:#1f77b4;stroke:#1f77b4;" x="159.095907" xlink:href="#m8215db2d8e" y="172.408856"/>
     <use style="fill:#1f77b4;stroke:#1f77b4;" x="162.37523" xlink:href="#m8215db2d8e" y="168.187124"/>
     <use style="fill:#1f77b4;stroke:#1f77b4;" x="165.654553" xlink:href="#m8215db2d8e" y="168.78288"/>
     <use style="fill:#1f77b4;stroke:#1f77b4;" x="168.933876" xlink:href="#m8215db2d8e" y="173.31666"/>
     <use style="fill:#1f77b4;stroke:#1f77b4;" x="172.2132" xlink:href="#m8215db2d8e" y="177.542325"/>
     <use style="fill:#1f77b4;stroke:#1f77b4;" x="175.492523" xlink:href="#m8215db2d8e" y="178.149949"/>
     <use style="fill:#1f77b4;stroke:#1f77b4;" x="178.771846" xlink:href="#m8215db2d8e" y="175.818875"/>
     <use style="fill:#1f77b4;stroke:#1f77b4;" x="182.051169" xlink:href="#m8215db2d8e" y="173.344758"/>
     <use style="fill:#1f77b4;stroke:#1f77b4;" x="185.330492" xlink:href="#m8215db2d8e" y="172.307056"/>
     <use style="fill:#1f77b4;stroke:#1f77b4;" x="188.609815" xlink:href="#m8215db2d8e" y="172.445726"/>
     <use style="fill:#1f77b4;stroke:#1f77b4;" x="191.889138" xlink:href="#m8215db2d8e" y="173.171201"/>
     <use style="fill:#1f77b4;stroke:#1f77b4;" x="195.168461" xlink:href="#m8215db2d8e" y="174.131248"/>
     <use style="fill:#1f77b4;stroke:#1f77b4;" x="198.447784" xlink:href="#m8215db2d8e" y="174.603596"/>
     <use style="fill:#1f77b4;stroke:#1f77b4;" x="201.727107" xlink:href="#m8215db2d8e" y="174.253285"/>
     <use style="fill:#1f77b4;stroke:#1f77b4;" x="205.006431" xlink:href="#m8215db2d8e" y="174.000657"/>
     <use style="fill:#1f77b4;stroke:#1f77b4;" x="208.285754" xlink:href="#m8215db2d8e" y="174.66965"/>
     <use style="fill:#1f77b4;stroke:#1f77b4;" x="211.565077" xlink:href="#m8215db2d8e" y="175.248713"/>
     <use style="fill:#1f77b4;stroke:#1f77b4;" x="214.8444" xlink:href="#m8215db2d8e" y="174.225112"/>
     <use style="fill:#1f77b4;stroke:#1f77b4;" x="218.123723" xlink:href="#m8215db2d8e" y="172.567949"/>
     <use style="fill:#1f77b4;stroke:#1f77b4;" x="221.403046" xlink:href="#m8215db2d8e" y="172.753625"/>
     <use style="fill:#1f77b4;stroke:#1f77b4;" x="224.682369" xlink:href="#m8215db2d8e" y="174.487616"/>
     <use style="fill:#1f77b4;stroke:#1f77b4;" x="227.961692" xlink:href="#m8215db2d8e" y="174.904182"/>
     <use style="fill:#1f77b4;stroke:#1f77b4;" x="231.241015" xlink:href="#m8215db2d8e" y="173.406576"/>
     <use style="fill:#1f77b4;stroke:#1f77b4;" x="234.520338" xlink:href="#m8215db2d8e" y="172.696932"/>
     <use style="fill:#1f77b4;stroke:#1f77b4;" x="237.799662" xlink:href="#m8215db2d8e" y="174.578533"/>
     <use style="fill:#1f77b4;stroke:#1f77b4;" x="241.078985" xlink:href="#m8215db2d8e" y="177.043852"/>
     <use style="fill:#1f77b4;stroke:#1f77b4;" x="244.358308" xlink:href="#m8215db2d8e" y="176.705854"/>
     <use style="fill:#1f77b4;stroke:#1f77b4;" x="247.637631" xlink:href="#m8215db2d8e" y="173.436169"/>
     <use style="fill:#1f77b4;stroke:#1f77b4;" x="250.916954" xlink:href="#m8215db2d8e" y="170.424772"/>
     <use style="fill:#1f77b4;stroke:#1f77b4;" x="254.196277" xlink:href="#m8215db2d8e" y="170.01706"/>
     <use style="fill:#1f77b4;stroke:#1f77b4;" x="257.4756" xlink:href="#m8215db2d8e" y="172.284714"/>
     <use style="fill:#1f77b4;stroke:#1f77b4;" x="260.754923" xlink:href="#m8215db2d8e" y="176.102778"/>
     <use style="fill:#1f77b4;stroke:#1f77b4;" x="264.034246" xlink:href="#m8215db2d8e" y="179.08611"/>
     <use style="fill:#1f77b4;stroke:#1f77b4;" x="267.313569" xlink:href="#m8215db2d8e" y="178.517426"/>
     <use style="fill:#1f77b4;stroke:#1f77b4;" x="270.592893" xlink:href="#m8215db2d8e" y="174.150816"/>
     <use style="fill:#1f77b4;stroke:#1f77b4;" x="273.872216" xlink:href="#m8215db2d8e" y="169.421518"/>
     <use style="fill:#1f77b4;stroke:#1f77b4;" x="277.151539" xlink:href="#m8215db2d8e" y="168.423831"/>
     <use style="fill:#1f77b4;stroke:#1f77b4;" x="280.430862" xlink:href="#m8215db2d8e" y="171.748892"/>
     <use style="fill:#1f77b4;stroke:#1f77b4;" x="283.710185" xlink:href="#m8215db2d8e" y="176.172384"/>
     <use style="fill:#1f77b4;stroke:#1f77b4;" x="286.989508" xlink:href="#m8215db2d8e" y="178.129887"/>
     <use style="fill:#1f77b4;stroke:#1f77b4;" x="290.268831" xlink:href="#m8215db2d8e" y="176.960951"/>
     <use style="fill:#1f77b4;stroke:#1f77b4;" x="293.548154" xlink:href="#m8215db2d8e" y="174.39515"/>
     <use style="fill:#1f77b4;stroke:#1f77b4;" x="296.827477" xlink:href="#m8215db2d8e" y="172.44339"/>
     <use style="fill:#1f77b4;stroke:#1f77b4;" x="300.1068" xlink:href="#m8215db2d8e" y="172.20483"/>
     <use style="fill:#1f77b4;stroke:#1f77b4;" x="303.386124" xlink:href="#m8215db2d8e" y="173.047007"/>
     <use style="fill:#1f77b4;stroke:#1f77b4;" x="306.665447" xlink:href="#m8215db2d8e" y="173.390927"/>
     <use style="fill:#1f77b4;stroke:#1f77b4;" x="309.94477" xlink:href="#m8215db2d8e" y="172.987415"/>
     <use style="fill:#1f77b4;stroke:#1f77b4;" x="313.224093" xlink:href="#m8215db2d8e" y="173.29862"/>
     <use style="fill:#1f77b4;stroke:#1f77b4;" x="316.503416" xlink:href="#m8215db2d8e" y="175.512729"/>
     <use style="fill:#1f77b4;stroke:#1f77b4;" x="319.782739" xlink:href="#m8215db2d8e" y="177.879759"/>
     <use style="fill:#1f77b4;stroke:#1f77b4;" x="323.062062" xlink:href="#m8215db2d8e" y="177.16787"/>
     <use style="fill:#1f77b4;stroke:#1f77b4;" x="326.341385" xlink:href="#m8215db2d8e" y="173.351096"/>
     <use style="fill:#1f77b4;stroke:#1f77b4;" x="329.620708" xlink:href="#m8215db2d8e" y="169.794554"/>
     <use style="fill:#1f77b4;stroke:#1f77b4;" x="332.900032" xlink:href="#m8215db2d8e" y="169.371995"/>
     <use style="fill:#1f77b4;stroke:#1f77b4;" x="336.179355" xlink:href="#m8215db2d8e" y="172.081502"/>
     <use style="fill:#1f77b4;stroke:#1f77b4;" x="339.458678" xlink:href="#m8215db2d8e" y="175.863845"/>
     <use style="fill:#1f77b4;stroke:#1f77b4;" x="342.738001" xlink:href="#m8215db2d8e" y="178.763492"/>
     <use style="fill:#1f77b4;stroke:#1f77b4;" x="346.017324" xlink:href="#m8215db2d8e" y="178.988828"/>
     <use style="fill:#1f77b4;stroke:#1f77b4;" x="349.296647" xlink:href="#m8215db2d8e" y="175.462656"/>
     <use style="fill:#1f77b4;stroke:#1f77b4;" x="352.57597" xlink:href="#m8215db2d8e" y="170.370807"/>
     <use style="fill:#1f77b4;stroke:#1f77b4;" x="355.855293" xlink:href="#m8215db2d8e" y="168.04245"/>
     <use style="fill:#1f77b4;stroke:#1f77b4;" x="359.134616" xlink:href="#m8215db2d8e" y="170.290426"/>
     <use style="fill:#1f77b4;stroke:#1f77b4;" x="362.413939" xlink:href="#m8215db2d8e" y="174.710777"/>
     <use style="fill:#1f77b4;stroke:#1f77b4;" x="365.693263" xlink:href="#m8215db2d8e" y="177.660742"/>
     <use style="fill:#1f77b4;stroke:#1f77b4;" x="368.972586" xlink:href="#m8215db2d8e" y="177.92783"/>
     <use style="fill:#1f77b4;stroke:#1f77b4;" x="372.251909" xlink:href="#m8215db2d8e" y="176.544329"/>
     <use style="fill:#1f77b4;stroke:#1f77b4;" x="375.531232" xlink:href="#m8215db2d8e" y="174.198926"/>
     <use style="fill:#1f77b4;stroke:#1f77b4;" x="378.810555" xlink:href="#m8215db2d8e" y="171.22811"/>
     <use style="fill:#1f77b4;stroke:#1f77b4;" x="382.089878" xlink:href="#m8215db2d8e" y="169.363461"/>
     <use style="fill:#1f77b4;stroke:#1f77b4;" x="385.369201" xlink:href="#m8215db2d8e" y="170.970491"/>
     <use style="fill:#1f77b4;stroke:#1f77b4;" x="388.648524" xlink:href="#m8215db2d8e" y="175.219285"/>
     <use style="fill:#1f77b4;stroke:#1f77b4;" x="391.927847" xlink:href="#m8215db2d8e" y="178.117996"/>
     <use style="fill:#1f77b4;stroke:#1f77b4;" x="395.20717" xlink:href="#m8215db2d8e" y="177.2905"/>
     <use style="fill:#1f77b4;stroke:#1f77b4;" x="398.486494" xlink:href="#m8215db2d8e" y="174.167612"/>
    </g>
   </g>
   <g id="matplotlib.axis_1">
    <g id="xtick_1">
     <g id="line2d_1">
      <defs>
       <path d="M 0 0 
L 0 3.5 
" id="m26bb823593" style="stroke:#000000;stroke-width:0.8;"/>
      </defs>
      <g>
       <use style="stroke:#000000;stroke-width:0.8;" x="73.833506" xlink:href="#m26bb823593" y="307.584"/>
      </g>
     </g>
     <g id="text_1">
      <!-- 0 -->
      <defs>
       <path d="M 31.78125 66.40625 
Q 24.171875 66.40625 20.328125 58.90625 
Q 16.5 51.421875 16.5 36.375 
Q 16.5 21.390625 20.328125 13.890625 
Q 24.171875 6.390625 31.78125 6.390625 
Q 39.453125 6.390625 43.28125 13.890625 
Q 47.125 21.390625 47.125 36.375 
Q 47.125 51.421875 43.28125 58.90625 
Q 39.453125 66.40625 31.78125 66.40625 
M 31.78125 74.21875 
Q 44.046875 74.21875 50.515625 64.515625 
Q 56.984375 54.828125 56.984375 36.375 
Q 56.984375 17.96875 50.515625 8.265625 
Q 44.046875 -1.421875 31.78125 -1.421875 
Q 19.53125 -1.421875 13.0625 8.265625 
Q 6.59375 17.96875 6.59375 36.375 
Q 6.59375 54.828125 13.0625 64.515625 
Q 19.53125 74.21875 31.78125 74.21875 
" id="DejaVuSans-30"/>
      </defs>
      <g transform="translate(70.652256 322.182437)scale(0.1 -0.1)">
       <use xlink:href="#DejaVuSans-30"/>
      </g>
     </g>
    </g>
    <g id="xtick_2">
     <g id="line2d_2">
      <g>
       <use style="stroke:#000000;stroke-width:0.8;" x="128.488891" xlink:href="#m26bb823593" y="307.584"/>
      </g>
     </g>
     <g id="text_2">
      <!-- 500 -->
      <defs>
       <path d="M 10.796875 72.90625 
L 49.515625 72.90625 
L 49.515625 64.59375 
L 19.828125 64.59375 
L 19.828125 46.734375 
Q 21.96875 47.46875 24.109375 47.828125 
Q 26.265625 48.1875 28.421875 48.1875 
Q 40.625 48.1875 47.75 41.5 
Q 54.890625 34.8125 54.890625 23.390625 
Q 54.890625 11.625 47.5625 5.09375 
Q 40.234375 -1.421875 26.90625 -1.421875 
Q 22.3125 -1.421875 17.546875 -0.640625 
Q 12.796875 0.140625 7.71875 1.703125 
L 7.71875 11.625 
Q 12.109375 9.234375 16.796875 8.0625 
Q 21.484375 6.890625 26.703125 6.890625 
Q 35.15625 6.890625 40.078125 11.328125 
Q 45.015625 15.765625 45.015625 23.390625 
Q 45.015625 31 40.078125 35.4375 
Q 35.15625 39.890625 26.703125 39.890625 
Q 22.75 39.890625 18.8125 39.015625 
Q 14.890625 38.140625 10.796875 36.28125 
z
" id="DejaVuSans-35"/>
      </defs>
      <g transform="translate(118.945141 322.182437)scale(0.1 -0.1)">
       <use xlink:href="#DejaVuSans-35"/>
       <use x="63.623047" xlink:href="#DejaVuSans-30"/>
       <use x="127.246094" xlink:href="#DejaVuSans-30"/>
      </g>
     </g>
    </g>
    <g id="xtick_3">
     <g id="line2d_3">
      <g>
       <use style="stroke:#000000;stroke-width:0.8;" x="183.144277" xlink:href="#m26bb823593" y="307.584"/>
      </g>
     </g>
     <g id="text_3">
      <!-- 1000 -->
      <defs>
       <path d="M 12.40625 8.296875 
L 28.515625 8.296875 
L 28.515625 63.921875 
L 10.984375 60.40625 
L 10.984375 69.390625 
L 28.421875 72.90625 
L 38.28125 72.90625 
L 38.28125 8.296875 
L 54.390625 8.296875 
L 54.390625 0 
L 12.40625 0 
z
" id="DejaVuSans-31"/>
      </defs>
      <g transform="translate(170.419277 322.182437)scale(0.1 -0.1)">
       <use xlink:href="#DejaVuSans-31"/>
       <use x="63.623047" xlink:href="#DejaVuSans-30"/>
       <use x="127.246094" xlink:href="#DejaVuSans-30"/>
       <use x="190.869141" xlink:href="#DejaVuSans-30"/>
      </g>
     </g>
    </g>
    <g id="xtick_4">
     <g id="line2d_4">
      <g>
       <use style="stroke:#000000;stroke-width:0.8;" x="237.799662" xlink:href="#m26bb823593" y="307.584"/>
      </g>
     </g>
     <g id="text_4">
      <!-- 1500 -->
      <g transform="translate(225.074662 322.182437)scale(0.1 -0.1)">
       <use xlink:href="#DejaVuSans-31"/>
       <use x="63.623047" xlink:href="#DejaVuSans-35"/>
       <use x="127.246094" xlink:href="#DejaVuSans-30"/>
       <use x="190.869141" xlink:href="#DejaVuSans-30"/>
      </g>
     </g>
    </g>
    <g id="xtick_5">
     <g id="line2d_5">
      <g>
       <use style="stroke:#000000;stroke-width:0.8;" x="292.455047" xlink:href="#m26bb823593" y="307.584"/>
      </g>
     </g>
     <g id="text_5">
      <!-- 2000 -->
      <defs>
       <path d="M 19.1875 8.296875 
L 53.609375 8.296875 
L 53.609375 0 
L 7.328125 0 
L 7.328125 8.296875 
Q 12.9375 14.109375 22.625 23.890625 
Q 32.328125 33.6875 34.8125 36.53125 
Q 39.546875 41.84375 41.421875 45.53125 
Q 43.3125 49.21875 43.3125 52.78125 
Q 43.3125 58.59375 39.234375 62.25 
Q 35.15625 65.921875 28.609375 65.921875 
Q 23.96875 65.921875 18.8125 64.3125 
Q 13.671875 62.703125 7.8125 59.421875 
L 7.8125 69.390625 
Q 13.765625 71.78125 18.9375 73 
Q 24.125 74.21875 28.421875 74.21875 
Q 39.75 74.21875 46.484375 68.546875 
Q 53.21875 62.890625 53.21875 53.421875 
Q 53.21875 48.921875 51.53125 44.890625 
Q 49.859375 40.875 45.40625 35.40625 
Q 44.1875 33.984375 37.640625 27.21875 
Q 31.109375 20.453125 19.1875 8.296875 
" id="DejaVuSans-32"/>
      </defs>
      <g transform="translate(279.730047 322.182437)scale(0.1 -0.1)">
       <use xlink:href="#DejaVuSans-32"/>
       <use x="63.623047" xlink:href="#DejaVuSans-30"/>
       <use x="127.246094" xlink:href="#DejaVuSans-30"/>
       <use x="190.869141" xlink:href="#DejaVuSans-30"/>
      </g>
     </g>
    </g>
    <g id="xtick_6">
     <g id="line2d_6">
      <g>
       <use style="stroke:#000000;stroke-width:0.8;" x="347.110432" xlink:href="#m26bb823593" y="307.584"/>
      </g>
     </g>
     <g id="text_6">
      <!-- 2500 -->
      <g transform="translate(334.385432 322.182437)scale(0.1 -0.1)">
       <use xlink:href="#DejaVuSans-32"/>
       <use x="63.623047" xlink:href="#DejaVuSans-35"/>
       <use x="127.246094" xlink:href="#DejaVuSans-30"/>
       <use x="190.869141" xlink:href="#DejaVuSans-30"/>
      </g>
     </g>
    </g>
    <g id="xtick_7">
     <g id="line2d_7">
      <g>
       <use style="stroke:#000000;stroke-width:0.8;" x="401.765817" xlink:href="#m26bb823593" y="307.584"/>
      </g>
     </g>
     <g id="text_7">
      <!-- 3000 -->
      <defs>
       <path d="M 40.578125 39.3125 
Q 47.65625 37.796875 51.625 33 
Q 55.609375 28.21875 55.609375 21.1875 
Q 55.609375 10.40625 48.1875 4.484375 
Q 40.765625 -1.421875 27.09375 -1.421875 
Q 22.515625 -1.421875 17.65625 -0.515625 
Q 12.796875 0.390625 7.625 2.203125 
L 7.625 11.71875 
Q 11.71875 9.328125 16.59375 8.109375 
Q 21.484375 6.890625 26.8125 6.890625 
Q 36.078125 6.890625 40.9375 10.546875 
Q 45.796875 14.203125 45.796875 21.1875 
Q 45.796875 27.640625 41.28125 31.265625 
Q 36.765625 34.90625 28.71875 34.90625 
L 20.21875 34.90625 
L 20.21875 43.015625 
L 29.109375 43.015625 
Q 36.375 43.015625 40.234375 45.921875 
Q 44.09375 48.828125 44.09375 54.296875 
Q 44.09375 59.90625 40.109375 62.90625 
Q 36.140625 65.921875 28.71875 65.921875 
Q 24.65625 65.921875 20.015625 65.03125 
Q 15.375 64.15625 9.8125 62.3125 
L 9.8125 71.09375 
Q 15.4375 72.65625 20.34375 73.4375 
Q 25.25 74.21875 29.59375 74.21875 
Q 40.828125 74.21875 47.359375 69.109375 
Q 53.90625 64.015625 53.90625 55.328125 
Q 53.90625 49.265625 50.4375 45.09375 
Q 46.96875 40.921875 40.578125 39.3125 
" id="DejaVuSans-33"/>
      </defs>
      <g transform="translate(389.040817 322.182437)scale(0.1 -0.1)">
       <use xlink:href="#DejaVuSans-33"/>
       <use x="63.623047" xlink:href="#DejaVuSans-30"/>
       <use x="127.246094" xlink:href="#DejaVuSans-30"/>
       <use x="190.869141" xlink:href="#DejaVuSans-30"/>
      </g>
     </g>
    </g>
    <g id="text_8">
     <!-- Ramp Time -->
     <defs>
      <path d="M 44.390625 34.1875 
Q 47.5625 33.109375 50.5625 29.59375 
Q 53.5625 26.078125 56.59375 19.921875 
L 66.609375 0 
L 56 0 
L 46.6875 18.703125 
Q 43.0625 26.03125 39.671875 28.421875 
Q 36.28125 30.8125 30.421875 30.8125 
L 19.671875 30.8125 
L 19.671875 0 
L 9.8125 0 
L 9.8125 72.90625 
L 32.078125 72.90625 
Q 44.578125 72.90625 50.734375 67.671875 
Q 56.890625 62.453125 56.890625 51.90625 
Q 56.890625 45.015625 53.6875 40.46875 
Q 50.484375 35.9375 44.390625 34.1875 
M 19.671875 64.796875 
L 19.671875 38.921875 
L 32.078125 38.921875 
Q 39.203125 38.921875 42.84375 42.21875 
Q 46.484375 45.515625 46.484375 51.90625 
Q 46.484375 58.296875 42.84375 61.546875 
Q 39.203125 64.796875 32.078125 64.796875 
z
" id="DejaVuSans-52"/>
      <path d="M 34.28125 27.484375 
Q 23.390625 27.484375 19.1875 25 
Q 14.984375 22.515625 14.984375 16.5 
Q 14.984375 11.71875 18.140625 8.90625 
Q 21.296875 6.109375 26.703125 6.109375 
Q 34.1875 6.109375 38.703125 11.40625 
Q 43.21875 16.703125 43.21875 25.484375 
L 43.21875 27.484375 
z
M 52.203125 31.203125 
L 52.203125 0 
L 43.21875 0 
L 43.21875 8.296875 
Q 40.140625 3.328125 35.546875 0.953125 
Q 30.953125 -1.421875 24.3125 -1.421875 
Q 15.921875 -1.421875 10.953125 3.296875 
Q 6 8.015625 6 15.921875 
Q 6 25.140625 12.171875 29.828125 
Q 18.359375 34.515625 30.609375 34.515625 
L 43.21875 34.515625 
L 43.21875 35.40625 
Q 43.21875 41.609375 39.140625 45 
Q 35.0625 48.390625 27.6875 48.390625 
Q 23 48.390625 18.546875 47.265625 
Q 14.109375 46.140625 10.015625 43.890625 
L 10.015625 52.203125 
Q 14.9375 54.109375 19.578125 55.046875 
Q 24.21875 56 28.609375 56 
Q 40.484375 56 46.34375 49.84375 
Q 52.203125 43.703125 52.203125 31.203125 
" id="DejaVuSans-61"/>
      <path d="M 52 44.1875 
Q 55.375 50.25 60.0625 53.125 
Q 64.75 56 71.09375 56 
Q 79.640625 56 84.28125 50.015625 
Q 88.921875 44.046875 88.921875 33.015625 
L 88.921875 0 
L 79.890625 0 
L 79.890625 32.71875 
Q 79.890625 40.578125 77.09375 44.375 
Q 74.3125 48.1875 68.609375 48.1875 
Q 61.625 48.1875 57.5625 43.546875 
Q 53.515625 38.921875 53.515625 30.90625 
L 53.515625 0 
L 44.484375 0 
L 44.484375 32.71875 
Q 44.484375 40.625 41.703125 44.40625 
Q 38.921875 48.1875 33.109375 48.1875 
Q 26.21875 48.1875 22.15625 43.53125 
Q 18.109375 38.875 18.109375 30.90625 
L 18.109375 0 
L 9.078125 0 
L 9.078125 54.6875 
L 18.109375 54.6875 
L 18.109375 46.1875 
Q 21.1875 51.21875 25.484375 53.609375 
Q 29.78125 56 35.6875 56 
Q 41.65625 56 45.828125 52.96875 
Q 50 49.953125 52 44.1875 
" id="DejaVuSans-6d"/>
      <path d="M 18.109375 8.203125 
L 18.109375 -20.796875 
L 9.078125 -20.796875 
L 9.078125 54.6875 
L 18.109375 54.6875 
L 18.109375 46.390625 
Q 20.953125 51.265625 25.265625 53.625 
Q 29.59375 56 35.59375 56 
Q 45.5625 56 51.78125 48.09375 
Q 58.015625 40.1875 58.015625 27.296875 
Q 58.015625 14.40625 51.78125 6.484375 
Q 45.5625 -1.421875 35.59375 -1.421875 
Q 29.59375 -1.421875 25.265625 0.953125 
Q 20.953125 3.328125 18.109375 8.203125 
M 48.6875 27.296875 
Q 48.6875 37.203125 44.609375 42.84375 
Q 40.53125 48.484375 33.40625 48.484375 
Q 26.265625 48.484375 22.1875 42.84375 
Q 18.109375 37.203125 18.109375 27.296875 
Q 18.109375 17.390625 22.1875 11.75 
Q 26.265625 6.109375 33.40625 6.109375 
Q 40.53125 6.109375 44.609375 11.75 
Q 48.6875 17.390625 48.6875 27.296875 
" id="DejaVuSans-70"/>
      <path id="DejaVuSans-20"/>
      <path d="M -0.296875 72.90625 
L 61.375 72.90625 
L 61.375 64.59375 
L 35.5 64.59375 
L 35.5 0 
L 25.59375 0 
L 25.59375 64.59375 
L -0.296875 64.59375 
z
" id="DejaVuSans-54"/>
      <path d="M 9.421875 54.6875 
L 18.40625 54.6875 
L 18.40625 0 
L 9.421875 0 
z
M 9.421875 75.984375 
L 18.40625 75.984375 
L 18.40625 64.59375 
L 9.421875 64.59375 
z
" id="DejaVuSans-69"/>
      <path d="M 56.203125 29.59375 
L 56.203125 25.203125 
L 14.890625 25.203125 
Q 15.484375 15.921875 20.484375 11.0625 
Q 25.484375 6.203125 34.421875 6.203125 
Q 39.59375 6.203125 44.453125 7.46875 
Q 49.3125 8.734375 54.109375 11.28125 
L 54.109375 2.78125 
Q 49.265625 0.734375 44.1875 -0.34375 
Q 39.109375 -1.421875 33.890625 -1.421875 
Q 20.796875 -1.421875 13.15625 6.1875 
Q 5.515625 13.8125 5.515625 26.8125 
Q 5.515625 40.234375 12.765625 48.109375 
Q 20.015625 56 32.328125 56 
Q 43.359375 56 49.78125 48.890625 
Q 56.203125 41.796875 56.203125 29.59375 
M 47.21875 32.234375 
Q 47.125 39.59375 43.09375 43.984375 
Q 39.0625 48.390625 32.421875 48.390625 
Q 24.90625 48.390625 20.390625 44.140625 
Q 15.875 39.890625 15.1875 32.171875 
z
" id="DejaVuSans-65"/>
     </defs>
     <g transform="translate(207.602187 335.860562)scale(0.1 -0.1)">
      <use xlink:href="#DejaVuSans-52"/>
      <use x="69.451172" xlink:href="#DejaVuSans-61"/>
      <use x="130.730469" xlink:href="#DejaVuSans-6d"/>
      <use x="228.142578" xlink:href="#DejaVuSans-70"/>
      <use x="291.619141" xlink:href="#DejaVuSans-20"/>
      <use x="323.40625" xlink:href="#DejaVuSans-54"/>
      <use x="384.443359" xlink:href="#DejaVuSans-69"/>
      <use x="412.226562" xlink:href="#DejaVuSans-6d"/>
      <use x="509.638672" xlink:href="#DejaVuSans-65"/>
     </g>
    </g>
   </g>
   <g id="matplotlib.axis_2">
    <g id="ytick_1">
     <g id="line2d_8">
      <defs>
       <path d="M 0 0 
L -3.5 0 
" id="m84da28d511" style="stroke:#000000;stroke-width:0.8;"/>
      </defs>
      <g>
       <use style="stroke:#000000;stroke-width:0.8;" x="57.6" xlink:href="#m84da28d511" y="278.716594"/>
      </g>
     </g>
     <g id="text_9">
      <!-- −0.0075 -->
      <defs>
       <path d="M 10.59375 35.5 
L 73.1875 35.5 
L 73.1875 27.203125 
L 10.59375 27.203125 
z
" id="DejaVuSans-2212"/>
       <path d="M 10.6875 12.40625 
L 21 12.40625 
L 21 0 
L 10.6875 0 
z
" id="DejaVuSans-2e"/>
       <path d="M 8.203125 72.90625 
L 55.078125 72.90625 
L 55.078125 68.703125 
L 28.609375 0 
L 18.3125 0 
L 43.21875 64.59375 
L 8.203125 64.59375 
z
" id="DejaVuSans-37"/>
      </defs>
      <g transform="translate(7.229687 282.515813)scale(0.1 -0.1)">
       <use xlink:href="#DejaVuSans-2212"/>
       <use x="83.789062" xlink:href="#DejaVuSans-30"/>
       <use x="147.412109" xlink:href="#DejaVuSans-2e"/>
       <use x="179.199219" xlink:href="#DejaVuSans-30"/>
       <use x="242.822266" xlink:href="#DejaVuSans-30"/>
       <use x="306.445312" xlink:href="#DejaVuSans-37"/>
       <use x="370.068359" xlink:href="#DejaVuSans-35"/>
      </g>
     </g>
    </g>
    <g id="ytick_2">
     <g id="line2d_9">
      <g>
       <use style="stroke:#000000;stroke-width:0.8;" x="57.6" xlink:href="#m84da28d511" y="248.915225"/>
      </g>
     </g>
     <g id="text_10">
      <!-- −0.0050 -->
      <g transform="translate(7.229687 252.714444)scale(0.1 -0.1)">
       <use xlink:href="#DejaVuSans-2212"/>
       <use x="83.789062" xlink:href="#DejaVuSans-30"/>
       <use x="147.412109" xlink:href="#DejaVuSans-2e"/>
       <use x="179.199219" xlink:href="#DejaVuSans-30"/>
       <use x="242.822266" xlink:href="#DejaVuSans-30"/>
       <use x="306.445312" xlink:href="#DejaVuSans-35"/>
       <use x="370.068359" xlink:href="#DejaVuSans-30"/>
      </g>
     </g>
    </g>
    <g id="ytick_3">
     <g id="line2d_10">
      <g>
       <use style="stroke:#000000;stroke-width:0.8;" x="57.6" xlink:href="#m84da28d511" y="219.113856"/>
      </g>
     </g>
     <g id="text_11">
      <!-- −0.0025 -->
      <g transform="translate(7.229687 222.913075)scale(0.1 -0.1)">
       <use xlink:href="#DejaVuSans-2212"/>
       <use x="83.789062" xlink:href="#DejaVuSans-30"/>
       <use x="147.412109" xlink:href="#DejaVuSans-2e"/>
       <use x="179.199219" xlink:href="#DejaVuSans-30"/>
       <use x="242.822266" xlink:href="#DejaVuSans-30"/>
       <use x="306.445312" xlink:href="#DejaVuSans-32"/>
       <use x="370.068359" xlink:href="#DejaVuSans-35"/>
      </g>
     </g>
    </g>
    <g id="ytick_4">
     <g id="line2d_11">
      <g>
       <use style="stroke:#000000;stroke-width:0.8;" x="57.6" xlink:href="#m84da28d511" y="189.312488"/>
      </g>
     </g>
     <g id="text_12">
      <!-- 0.0000 -->
      <g transform="translate(15.609375 193.111706)scale(0.1 -0.1)">
       <use xlink:href="#DejaVuSans-30"/>
       <use x="63.623047" xlink:href="#DejaVuSans-2e"/>
       <use x="95.410156" xlink:href="#DejaVuSans-30"/>
       <use x="159.033203" xlink:href="#DejaVuSans-30"/>
       <use x="222.65625" xlink:href="#DejaVuSans-30"/>
       <use x="286.279297" xlink:href="#DejaVuSans-30"/>
      </g>
     </g>
    </g>
    <g id="ytick_5">
     <g id="line2d_12">
      <g>
       <use style="stroke:#000000;stroke-width:0.8;" x="57.6" xlink:href="#m84da28d511" y="159.511119"/>
      </g>
     </g>
     <g id="text_13">
      <!-- 0.0025 -->
      <g transform="translate(15.609375 163.310337)scale(0.1 -0.1)">
       <use xlink:href="#DejaVuSans-30"/>
       <use x="63.623047" xlink:href="#DejaVuSans-2e"/>
       <use x="95.410156" xlink:href="#DejaVuSans-30"/>
       <use x="159.033203" xlink:href="#DejaVuSans-30"/>
       <use x="222.65625" xlink:href="#DejaVuSans-32"/>
       <use x="286.279297" xlink:href="#DejaVuSans-35"/>
      </g>
     </g>
    </g>
    <g id="ytick_6">
     <g id="line2d_13">
      <g>
       <use style="stroke:#000000;stroke-width:0.8;" x="57.6" xlink:href="#m84da28d511" y="129.70975"/>
      </g>
     </g>
     <g id="text_14">
      <!-- 0.0050 -->
      <g transform="translate(15.609375 133.508969)scale(0.1 -0.1)">
       <use xlink:href="#DejaVuSans-30"/>
       <use x="63.623047" xlink:href="#DejaVuSans-2e"/>
       <use x="95.410156" xlink:href="#DejaVuSans-30"/>
       <use x="159.033203" xlink:href="#DejaVuSans-30"/>
       <use x="222.65625" xlink:href="#DejaVuSans-35"/>
       <use x="286.279297" xlink:href="#DejaVuSans-30"/>
      </g>
     </g>
    </g>
    <g id="ytick_7">
     <g id="line2d_14">
      <g>
       <use style="stroke:#000000;stroke-width:0.8;" x="57.6" xlink:href="#m84da28d511" y="99.908381"/>
      </g>
     </g>
     <g id="text_15">
      <!-- 0.0075 -->
      <g transform="translate(15.609375 103.7076)scale(0.1 -0.1)">
       <use xlink:href="#DejaVuSans-30"/>
       <use x="63.623047" xlink:href="#DejaVuSans-2e"/>
       <use x="95.410156" xlink:href="#DejaVuSans-30"/>
       <use x="159.033203" xlink:href="#DejaVuSans-30"/>
       <use x="222.65625" xlink:href="#DejaVuSans-37"/>
       <use x="286.279297" xlink:href="#DejaVuSans-35"/>
      </g>
     </g>
    </g>
    <g id="ytick_8">
     <g id="line2d_15">
      <g>
       <use style="stroke:#000000;stroke-width:0.8;" x="57.6" xlink:href="#m84da28d511" y="70.107012"/>
      </g>
     </g>
     <g id="text_16">
      <!-- 0.0100 -->
      <g transform="translate(15.609375 73.906231)scale(0.1 -0.1)">
       <use xlink:href="#DejaVuSans-30"/>
       <use x="63.623047" xlink:href="#DejaVuSans-2e"/>
       <use x="95.410156" xlink:href="#DejaVuSans-30"/>
       <use x="159.033203" xlink:href="#DejaVuSans-31"/>
       <use x="222.65625" xlink:href="#DejaVuSans-30"/>
       <use x="286.279297" xlink:href="#DejaVuSans-30"/>
      </g>
     </g>
    </g>
    <g id="text_17">
     <!-- Lap Error -->
     <defs>
      <path d="M 9.8125 72.90625 
L 19.671875 72.90625 
L 19.671875 8.296875 
L 55.171875 8.296875 
L 55.171875 0 
L 9.8125 0 
z
" id="DejaVuSans-4c"/>
      <path d="M 9.8125 72.90625 
L 55.90625 72.90625 
L 55.90625 64.59375 
L 19.671875 64.59375 
L 19.671875 43.015625 
L 54.390625 43.015625 
L 54.390625 34.71875 
L 19.671875 34.71875 
L 19.671875 8.296875 
L 56.78125 8.296875 
L 56.78125 0 
L 9.8125 0 
z
" id="DejaVuSans-45"/>
      <path d="M 41.109375 46.296875 
Q 39.59375 47.171875 37.8125 47.578125 
Q 36.03125 48 33.890625 48 
Q 26.265625 48 22.1875 43.046875 
Q 18.109375 38.09375 18.109375 28.8125 
L 18.109375 0 
L 9.078125 0 
L 9.078125 54.6875 
L 18.109375 54.6875 
L 18.109375 46.1875 
Q 20.953125 51.171875 25.484375 53.578125 
Q 30.03125 56 36.53125 56 
Q 37.453125 56 38.578125 55.875 
Q 39.703125 55.765625 41.0625 55.515625 
z
" id="DejaVuSans-72"/>
      <path d="M 30.609375 48.390625 
Q 23.390625 48.390625 19.1875 42.75 
Q 14.984375 37.109375 14.984375 27.296875 
Q 14.984375 17.484375 19.15625 11.84375 
Q 23.34375 6.203125 30.609375 6.203125 
Q 37.796875 6.203125 41.984375 11.859375 
Q 46.1875 17.53125 46.1875 27.296875 
Q 46.1875 37.015625 41.984375 42.703125 
Q 37.796875 48.390625 30.609375 48.390625 
M 30.609375 56 
Q 42.328125 56 49.015625 48.375 
Q 55.71875 40.765625 55.71875 27.296875 
Q 55.71875 13.875 49.015625 6.21875 
Q 42.328125 -1.421875 30.609375 -1.421875 
Q 18.84375 -1.421875 12.171875 6.21875 
Q 5.515625 13.875 5.515625 27.296875 
Q 5.515625 40.765625 12.171875 48.375 
Q 18.84375 56 30.609375 56 
" id="DejaVuSans-6f"/>
     </defs>
     <g transform="translate(1.15 197.524094)rotate(-90)scale(0.1 -0.1)">
      <use xlink:href="#DejaVuSans-4c"/>
      <use x="55.712891" xlink:href="#DejaVuSans-61"/>
      <use x="116.992188" xlink:href="#DejaVuSans-70"/>
      <use x="180.46875" xlink:href="#DejaVuSans-20"/>
      <use x="212.255859" xlink:href="#DejaVuSans-45"/>
      <use x="275.439453" xlink:href="#DejaVuSans-72"/>
      <use x="316.537109" xlink:href="#DejaVuSans-72"/>
      <use x="357.619141" xlink:href="#DejaVuSans-6f"/>
      <use x="418.800781" xlink:href="#DejaVuSans-72"/>
     </g>
    </g>
   </g>
   <g id="patch_3">
    <path d="M 57.6 307.584 
L 57.6 41.472 
" style="fill:none;stroke:#000000;stroke-linecap:square;stroke-linejoin:miter;stroke-width:0.8;"/>
   </g>
   <g id="patch_4">
    <path d="M 414.72 307.584 
L 414.72 41.472 
" style="fill:none;stroke:#000000;stroke-linecap:square;stroke-linejoin:miter;stroke-width:0.8;"/>
   </g>
   <g id="patch_5">
    <path d="M 57.6 307.584 
L 414.72 307.584 
" style="fill:none;stroke:#000000;stroke-linecap:square;stroke-linejoin:miter;stroke-width:0.8;"/>
   </g>
   <g id="patch_6">
    <path d="M 57.6 41.472 
L 414.72 41.472 
" style="fill:none;stroke:#000000;stroke-linecap:square;stroke-linejoin:miter;stroke-width:0.8;"/>
   </g>
  </g>
 </g>
 <defs>
  <clipPath id="pdf538ad963">
   <rect height="266.112" width="357.12" x="57.6" y="41.472"/>
  </clipPath>
 </defs>
</svg>
